<?xml version="1.0" encoding="UTF-8"?><svg id="_Слой_1" xmlns="http://www.w3.org/2000/svg" viewBox="0 0 635.29676 543.73079"><defs><style>.cls-1{fill:#1e1e1c;}</style></defs><path class="cls-1" d="M289.43454,29.4973c2.56805,3.0264,5.4321,5.71238,8.5477,7.60402,7.75116,4.70609,17.80624,5.285,29.4491,5.95533,13.90115,.80025,29.65717,1.70734,43.15866,10.09225,.04776,.0297,4.76581,2.94566,6.15378,3.70673,2.1702,1.19405,4.53458,1.77452,7.22806,1.77452,2.03467,0,4.05481-.32891,6.39398-.70975,3.43991-.56008,8.15109-1.32709,15.4256-1.45267l.24167-.00208c7.90326,0,18.69543,6.52876,21.78717,8.94701,1.42249,1.30238,3.14905,2.16676,5.03021,2.51241,.59845,.10983,1.21112,.1655,1.82092,.1655,3.79962,0,6.78253-2.09092,8.30225-4.0415,3.71503-4.75957,8.07434-7.9546,13.88422-9.88963-2.24451,7.67172,1.71442,15.39994,4.45636,20.75213,.21381,.41717,.42267,.82484,.61554,1.20725,.12189,.24384,12.18335,24.71625,11.58466,53.79575-.25482,12.38333-3.8291,22.6955-4.81018,24.95393-1.07031,1.55859-2.40466,4.29343-1.77734,7.66623,.51184,2.74892,2.48499,5.92766,6.49469,7.24622,12.34503,6.86961,21.63947,27.05695,21.2699,31.76595-.35046,4.28467,.41626,7.19701,2.48627,9.44318,1.71649,1.86266,4.15051,2.931,6.67792,2.931,1.85565,0,3.64569-.55992,5.17657-1.61934l.08826-.06183c1.57587-1.11859,2.09412-1.56618,2.26276-1.71184,.28693-.24771,.56989-.50447,.84949-.76907-.06281,4.29205,.83563,8.66484,3.14825,12.34508,3.29785,5.24841,5.37061,7.37517,7.73773,9.61017,1.50171,1.41782,2.92004,2.75708,5.87085,7.0025,2.58704,3.72183,4.13293,6.47324,5.62793,9.13416,1.7384,3.09418,3.53607,6.29367,6.5705,10.2515,4.78589,6.24234,8.66907,8.97852,12.78027,11.87534,2.31598,1.63193,4.71082,3.31934,7.83331,6.00467,3.79706,3.2655,5.77081,5.92316,7.67969,8.49326,2.97021,3.99942,6.33679,8.5325,14.34583,11.97824,3.29456,1.41742,6.29004,2.22885,9.18689,3.01352,4.26141,1.15433,8.84521,2.39627,15.53381,6.09344-15.71643,2.38324-26.12744,9.42694-36.25848,16.28113-2.99188,2.02408-6.08563,4.11716-9.29413,6.0675-18.56708,11.28583-27.74469,21.29657-32.67529,26.67465-.97766,1.0665-2.1944,2.39368-2.61932,2.73935-3.76447,2.92148-4.31635,6.54083-4.31018,8.44189,.00494,1.35529,.29144,3.31927,1.5332,5.31778,1.96759,4.57608,8.46704,27.03708,9.23175,32.53766-.49249,3.09988,.40259,6.10718,2.54175,8.31067,1.8006,1.85333,4.24664,2.87399,6.88751,2.87399,.42645,0,.85681-.02734,1.28888-.08167,2.60071,.29147,10.77441,2.25214,17.83783,8.83777,.05322,.05188,.33533,.33008,.77252,.81058-5.98999-1.8147-12.67383-3.0502-19.5509-3.06952l-.17346-.00024c-22.18512-.00116-40.5473,12.45541-56.75421,23.44983-7.87189,5.34015-17.53784,10.47391-20.48883,10.8956-.15436-.00711-.33923-.0127-.54578-.0127-3.34204,0-6.34839,1.45126-8.24805,3.98135-1.83014,2.43723-2.39966,5.4624-1.65643,8.5304-.1626,1.43002-.63409,4.20966-1.026,6.51993-1.78253,10.50867-4.4729,26.3667-2.50299,39.4715-2.64862-1.84943-5.12836-3.48682-7.31177-4.76343-16.99072-9.93433-38.42099-11.00708-46.84625-11.00714-1.4455,0-2.47934,.0321-2.95291,.0506-.07166,.00256-.47324,.01471-1.11084,.01471-7.25412,0-12.27814-1.3349-13.42493-2.24701-3.00961-3.05396-4.16489-4.92725-4.36389-5.26794-1.95367-4.15704-4.92072-6.26437-8.82193-6.26437l-2.70465,.41367c-.76987,.24124-7.28033,2.52832-6.19434,10.51477-.28574,.19843-.65625,.43658-1.1366,.72174-3.47324,2.06165-8.76965,3.15143-15.31674,3.15143-6.30667,0-11.43793-1.03387-11.47116-1.04059-15.10425-3.15216-23.05161-6.67395-30.73734-10.07977-8.25418-3.65775-16.05066-7.11264-30.09991-9.11075-.24643-.03497-6.1221-.85791-13.69736-.85806-14.26099-.00043-25.00531,2.81107-31.93448,8.35632-.28198,.22565-.83578,.68982-1.55725,1.3175-3.47272-4.94977-8.89096-9.58893-16.80225-12.75342-17.91418-7.16574-41.64026-11.27576-65.09459-11.27625-25.40343-.00052-63.50508,4.83734-100.75833,27.88757-2.63683,1.63153-5.05853,3.29858-7.26782,4.93793,1.85201-8.15735,4.53735-14.65945,4.57924-14.75983,3.88991-9.25751,6.45975-14.31659,8.16016-17.66428,2.48726-4.89658,4.13042-8.13147,3.04701-13.73315-1.94284-10.04651-9.57658-14.68491-15.15051-18.07184-4.87383-2.96149-7.93608-4.97424-9.41591-8.86951-1.75192-4.61108,.13866-10.40747,5.98833-25.79706,5.36317-14.1095,9.3875-20.12735,12.62109-24.96283,3.31416-4.95602,6.1765-9.23627,7.51108-17.77792,.19359-1.24493,4.3945-30.90808-25.66458-67.25867-1.8651-2.25549-3.57499-4.3233-5.16501-6.20584,7.07204-1.69608,14.94063-4.27249,21.78967-7.25818,10.49976-4.57715,14.58267-8.35233,17.86342-11.38583,2.49025-2.30249,4.13533-3.82364,9.66817-5.91248,5.07275-1.9151,9.23274-2.6741,13.25583-3.40808,7.0125-1.27951,14.26375-2.60242,21.86717-9.63394,2.62566-2.42825,9.60049-8.87866,10.46858-19.13673,.07394-.87358,.10527-1.80367,.08714-2.77563,4.6013,1.35013,9.47231,2.68536,13.93994,3.81647,3.455,.87466,6.18707,1.28207,8.59799,1.28207,8.75551,0,12.07217-5.66475,13.48851-8.08374,.09958-.17009,.20091-.34375,.30733-.52017,5.44626-9.03308,9.15833-17.586,13.45651-27.48933,4.31808-9.94925,9.21231-21.22592,17.38858-36.886,.19424-.37308,4.78824-9.28658,7.55707-22.24475,.1113-.52272,.24881-1.2175,.38965-2.04924,3.47943,2.37914,6.90466,4.85011,8.59302,6.79457l.0361,.04167c1.1619,1.34209,3.88281,4.485,8.4299,4.485,1.51291,0,3.01593-.37558,4.35043-1.08824,7.37399-3.94276,4.42191-12.33467,3.45181-15.09242l-.03708-.1055c-.43558-1.27142-1.31482-7.15892-.90582-14.18542,.45984-7.90074,2.28284-12.42616,3.70432-13.90099,8.13126-8.43658,12.06277-8.64642,14.17493-8.75917,2.01767-.10775,7.37732-.39383,10.11917-5.74191,1.11551-2.00633,10.31592-13.34042,24.00583-23.20233,12.46625-8.9804,19.98062-19.52277,23.94363-29.79727M283.03254,0c-.00269,0-.00531,.0003-.00787,.00091-.29849,.07067,.46024,4.24525,.5379,4.70242,.91309,5.37342,2.99484,28.32333-23.33224,47.28875-14.03265,10.10883-24.86108,22.70859-26.73267,26.35825-1.36234,2.65675-7.76709-3.18175-22.78683,12.40208-8.15399,8.45983-6.80499,31.57983-4.81882,37.28859,.22617,.65024,1.44174,3.98399,.84216,4.30458-.03186,.01703-.06769,.02496-.10687,.02496-.45514,0-1.36118-1.07147-1.6713-1.42856-5.55258-6.39474-19.08191-13.07283-25.01675-19.33983-.29288-.30943-1.4957-1.59799-1.72339-1.59799-.00967,0-.01761,.00233-.02362,.00716-.14609,.11742,.90985,1.64809,1.06052,1.87167,3.82733,5.68507,1.12317,18.34142,1.12317,18.34149-2.5531,11.94867-6.73767,19.9635-6.73767,19.96359-16.7095,32.00391-20.33826,46.91449-30.56926,63.88358-1.38206,2.29193-2.13017,4.25093-6.08835,4.25093-1.55588,0-3.60776-.3027-6.38907-1.00684-12.27625-3.10793-27.43741-7.74843-29.91432-9.35783-.36411-.23657-1.84306-1.21599-2.25157-1.21599-.04048,0-.07053,.00964-.08784,.03056-.21227,.25659,1.625,2.02867,2.4955,2.99451,3.6759,4.07907,4.91508,10.21158,4.55432,14.47357-.56233,6.64476-5.21074,11.06816-7.6114,13.28835-9.3541,8.65048-17.32701,5.61792-32.19109,11.22958-14.65608,5.53308-10.11325,9.6929-27.94925,17.46808-11.74399,5.11948-25.94283,8.64731-32.62727,8.64731-.6446,0-1.22053-.0329-1.71641-.10031-.27371-.03717-1.20589-.17767-2.0088-.17767-.62077,0-1.16431,.08401-1.2662,.36475-.22192,.61118,1.76241,1.84109,2.24558,2.15234,3.66308,2.35849,8.49866,8.20624,15.40958,16.56366,27.84258,33.67017,23.70674,60.14017,23.70674,60.14026-2.14508,13.72858-8.66617,12.02466-19.65175,40.92551-6.07441,15.98083-9.0495,24.13559-5.98883,32.19131,5.31233,13.98334,21.77425,13.20267,24.14334,25.45358,.88232,4.56186-1.46968,4.31134-10.66809,26.20218,0,.00009-8.16541,19.43243-6.86258,35.56024,.07308,.90295,.28491,3.52875,.99833,3.61841,.01256,.00159,.02507,.00238,.0377,.00238,.46755,0,.98224-1.06677,1.33497-1.93634,3.68199-3.45428,10.33932-10.17358,20.21291-16.28284,32.11478-19.87088,66.39183-26.54156,96.02269-26.54099,25.45503,.00049,47.48213,4.92441,61.75224,10.63248,14.38858,5.75543,16.2774,16.4364,16.28284,19.6048,.00031,.20477-.02936,1.65692,.32748,1.73138,.00961,.00195,.01932,.00293,.02914,.00293,.30713,0,.72882-.94531,.81302-1.12598,1.27567-2.7337,8.77393-9.22717,9.87283-10.10657,6.51767-5.21588,17.64737-6.38348,26.31088-6.38324,7.026,.00018,12.43097,.76849,12.43097,.76849,25.51749,3.62909,28.05341,12.36786,60.26523,19.09027,0,0,5.89514,1.23035,13.30984,1.23035,6.44839,0,14.04654-.93115,19.91068-4.41211,1.40775-.83569,5.63916-3.34723,5.80206-6.83124,.07083-1.51141-.61142-3.48187-.37442-3.55609,.00449-.0014,.00912-.00208,.01398-.00208,.18713,0,.64542,1.02228,.73477,1.21857,0,.00006,1.27893,2.80792,6.08267,7.67352,4.41785,4.47485,15.76154,4.88721,19.79337,4.88721,.9111,0,1.44897-.02106,1.44897-.02106,.36588-.01434,1.27341-.04431,2.61475-.04425,7.23648,.00006,27.07465,.87231,42.30359,9.77655,10.05719,5.88019,29.11719,21.70209,35.37274,24.98572,.77313,.40576,3.0498,1.60077,3.34045,1.60077,.01508,0,.02484-.00323,.02875-.00995,.04895-.08459-.84839-.68854-.93604-.7486-1.35864-.93085-14.32538-12.40631-17.03131-30.03906-2.72321-17.74426,4.64197-43.69611,3.55609-46.32187-.05627-.13541-.48871-1.06497-.09387-1.59082,.24963-.3324,.74158-.38535,1.05109-.38535,.12677,0,.22296,.00888,.25934,.01111,.1098,.00665,.22217,.00995,.33801,.00995,7.12854,0,25.48981-12.45605,25.48981-12.45605,15.69995-10.65048,32.27844-21.89871,51.70123-21.89777,.04633,0,.09515,.00006,.14154,.00018,18.73651,.05267,34.76459,10.5701,36.02808,12.25885,.08801,.11765,.81232,1.13892,1.2276,1.13892,.02917,0,.05695-.00507,.08276-.01584,.29498-.12317,.21478-.93817,.18719-1.21667-1.49255-15.12799-12.53961-25.45349-12.53961-25.45358-10.09235-9.43289-21.8139-11.32599-24.36542-11.32599-.20636,0-.35278,.01239-.43341,.03415-.04767,.01288-.27258,.08307-.50317,.08307-.16071,0-.32428-.03409-.43243-.14548-.27948-.2879-.03619-.93466,0-1.04498,.94385-2.87128-8.89636-35.98575-10.4809-38.13361-.05151-.06998-.27954-.35806-.28094-.74866-.00214-.67175,.66748-1.17407,.84216-1.31009,3.90173-3.03525,11.20142-14.69867,34.43744-28.82248,16.50696-10.03366,27.55341-21.88644,52.54584-21.88547,3.91107,.00012,8.16663,.29059,12.83496,.92371,.03687,.005,.07648,.00739,.11877,.00739,.71057,0,2.12891-.68262,2.12726-1.25513-.0011-.43494-.87878-.67593-1.12329-.8735-27.94879-22.58377-36.05914-19.71402-46.78949-24.3306-10.11041-4.34982-9.06421-9.86899-19.71405-19.02783-9.11536-7.83917-12.98169-8.23975-19.3396-16.53232-5.06653-6.60843-6.02576-10.52243-11.95056-19.04642-7.08911-10.1991-7.5766-7.03101-13.3783-16.26425-2.75641-4.38643-1.87665-11.42259,0-15.59659,3.0567-6.80008,12.82996-13.40617,14.19263-14.19284,.1062-.06142,.815-.44525,.74884-.71741-.05414-.222-.59747-.27176-.78003-.28084-1.00531-.04997-1.96674-.07446-2.88959-.07446-8.86963,0-14.07635,2.26624-18.44647,5.97005-3.68066,3.11925-7.16296,8.56216-10.32483,11.29184-.36444,.31474-1.591,1.18541-1.591,1.18541-.01978,.01367-.03815,.02017-.05536,.02017-.33624,0-.20679-2.48656-.19415-2.64043,.74872-9.10841-11.4165-33.06467-26.91949-40.92542-.08704-.04399-.89709-.09142-.96716-.46783-.06396-.34366,.42773-1.04442,.49933-1.123,.87225-.95766,5.91876-14.13608,6.23834-29.66466,.6557-31.8525-12.53967-58.01926-12.53967-58.01934-2.57538-5.10716-6.59387-12.03867-3.80554-16.96899,2.65338-4.69167,13.31897-10.84109,14.883-11.49084,.13287-.05517,.84406-.33817,.80719-.53408-.03247-.17309-.63281-.19442-.84216-.20275-1.90454-.07597-3.74182-.11508-5.52203-.11508-18.68787,0-30.7002,4.32225-39.61432,15.74274-.09637,.12379-.61963,.57914-1.20752,.57914-.06476,0-.13037-.00554-.19623-.01764-.37329-.06858-.60925-.32783-.65509-.37424-.66919-.6786-14.99719-11.23299-27.78708-11.23299-.13168,0-.26443,.00114-.39581,.0034-12.43668,.21464-18.06284,2.16108-21.66544,2.16108-1.10959,0-2.02789-.18486-2.89322-.66183-.78351-.41467-5.45834-3.28991-5.74258-3.46633-26.51718-16.46808-58.70859-7.60917-72.68292-16.09375-9.241-5.61066-17.46909-23.53683-18.80951-27.53567C283.75913,1.62098,283.2302-.00016,283.03254,0h0Z"/><path class="cls-1" d="M592.80522,304.8089c-1.27208,.19865-13.36562-.7473-22.55265-9.73221-7.48324-7.31885-3.96441-11.09765-11.04258-16.37646-5.66958-4.22854-7.65748-1.60252-14.19241-6.58182,0,0-8.83606-6.73206-11.82248-6.69474-.10682,.00139-.52798,.01665-.81874-.25747-.87784-.82817,.36207-3.4288,.53824-3.84067,1.61195-3.76909-2.83354-18.3846-14.09919-28.82235-11.46652-10.62336-25.72052-12.95653-27.66874-12.53967-.12041,.0258-.75715,.18256-1.02904-.12471-.61815-.69902,1.17886-3.20046,1.49709-3.68072,3.45197-5.21152-3.78934-19.24884-4.49183-20.58765-5.76364-10.98154-14.95705-20.55658-20.18189-21.02407-2.70647-.24221-5.33138-1.24698-8.04812-1.29456-.61121-.01082-1.78314-.00763-1.98068-.53034-.28771-.76228,1.68853-2.13688,2.26173-2.57344,3.64035-2.77306,4.74819-8.91194,5.52087-13.19472,2.96866-16.45026,1.59115-37.74359,1.59115-37.74359,0-.00014-1.47767-22.83481-9.17094-49.09801-.13567-.46361-.92583-3.11557-1.3567-3.04135-.26718,.04592-.16397,1.10035-.42144,2.10553-.59873,2.33858-2.95645,3.65617-4.11728,4.30469-5.20486,2.90845-16.62699-.1906-18.85653-.79543-9.74913-2.64502-19.00164-7.37407-20.25985-8.9057-.12513-.15246-.8315-1.0769-1.49709-.93568-.33071,.06992-.52049,.37538-.56155,.43656-.67669,1.0081-6.86842,4.03335-11.01095,4.95974-7.87222,1.76053-18.47283-1.79354-20.15109-2.37077-16.71522-5.74796-16.2308-11.3966-27.41848-13.63128-8.4407-1.68603-7.13283,.81791-24.33107,1.40373-12.82017,.4367-21.33578-4.66343-27.32498-8.28187-1.2879-.77809-3.1576-3.07617-3.88339-2.62019-.44447,.27925,.28161,1.72751,.32738,4.21106,0,.00014,.03524,1.91104-.71747,4.63222-2.01314,7.27641-10.97988,14.0369-10.97988,14.0369-8.28589,6.24695-9.03166,3.93403-20.58751,11.41671,0,0-13.31014,8.61868-14.03676,14.17729-.02774,.21072-.12679,1.31287-.9361,1.9496-.75077,.59096-1.73347,.48151-1.93379,.46777-2.43042-.16577-16.01522,5.14008-19.71412,13.72505-3.0666,7.11798,3.57543,9.73013,2.86989,22.20945-.14594,2.58121-1.23407,16.69732-10.51238,21.11785-2.94674,1.40387-8.25981,2.56373-11.88435,.28077-.86091-.54227-3.35875-2.36993-5.56804-5.33415-.86812-1.16527-1.65912-2.46232-1.91825-2.33941-.40951,.19435,1.56118,3.44253,.93554,7.39279-.24332,1.5358-.79238,2.63032-1.12282,3.27524-2.84242,5.54668-17.17577,31.82014-19.09014,35.37296-11.7065,21.72504-14.66185,39.42435-14.34917,41.29974,.03052,.18325,.27855,1.33284-.31157,2.37077-.34181,.60095-.84898,.96107-1.24795,1.18524-8.39825,4.72516-14.91016,5.17809-14.91016,5.17809-5.00705,.34833-16.39144,.21668-20.88382-1.93393-.35346-.16924-1.56951-.78434-2.3863-.28077-1.10811,.68349-.80015,3.00722-.74855,3.55601,.48026,5.12565-6.52051,14.3973-11.8849,18.52873-8.96785,6.90699-13.65417-.32738-25.17284,5.52129-2.49978,1.26931-9.87287,8.16256-24.51779,21.89747-2.67568,2.50963-4.94934,4.65538-8.46872,5.19363-2.32915,.35624-4.41415-.11209-11.27619,.23402-1.33812,.06756-2.98503,.17243-3.01832,.5148-.04217,.43462,2.54195,1.0074,2.83105,1.07607,3.47361,.82443,13.95603,9.14444,20.30674,30.60049,2.4884,8.40644,8.56417,28.93388,1.31009,53.52742-6.98301,23.67409-22.65586,38.70174-23.8941,39.49052-.08906,.05688-.86507,.52506-.7799,.7799,.10571,.31518,1.46824,.1168,1.65329,.0935,1.99982-.25247,11.18269,1.65718,18.46617,8.23498,6.39704,5.77696,12.02917,15.78675,10.60588,25.70318-1.23019,8.57346-7.94019,18.51583-9.48251,20.52509-.23666,.3081-1.61723,2.07848-1.43494,2.24592,.15537,.14302,1.37474-.9533,1.49709-1.06053,1.70989-1.50001,30.97865-21.9986,72.05629-20.58765,24.62017,.84579,34.39511,10.68759,46.22813,3.93042,2.63878-1.50666,7.71962-6.49651,16.09568-6.55061,2.67734-.0172,8.01704,.2909,15.15986,3.36901,18.47366,7.96086,28.21419,15.11297,27.98058,17.40578-.03579,.34958,.02303,.53797-.34348,1.49723-.16231,.42532,1.65884-.70194,1.80949-.81111,1.5437-1.11838,18.72003-8.5324,48.59889,.81111,18.63375,5.82703,19.25689,10.99458,38.99126,15.53413,12.22477,2.81204,17.73261,2.15117,22.20945,.24956,7.61947-3.23612,5.47093-7.18443,17.49927-15.87733,0,0,10.24187-7.40167,22.95051-11.41658,.74438-.23527,2.9878-.94414,3.01804-.85786,.01609,.04578-.60011,.29784-.67086,.32752-1.38944,.58194-9.73054,6.29328-9.60764,14.84787,.13179,9.15179,9.8443,14.15828,10.73073,14.59845,6.99078,3.47,8.82441-.86105,22.45915,.37427,13.64029,1.23574,28.08407,7.04529,30.70953,9.40468,.21641,.19477,1.31398,1.22991,1.82475,.93582,.51244-.2952,.16341-1.77454,.09378-2.10553-1.46824-6.96123,8.67542-36.50299,9.54493-42.95289,.05105-.37871,.19754-1.6243,1.1231-2.62033,1.11783-1.203,2.73755-1.35906,3.08796-1.40373,2.59799-.33071,8.81609-3.87202,20.86829-11.41658,18.82269-11.78308,20.06592-13.41765,29.33701-18.24796,0,0,15.76719-8.21472,22.88032-4.67911,.23583,.11722,1.802,.93485,2.10553,.56155,.33155-.40743-1.02349-2.01036-1.29456-2.33955-3.50413-4.25794-8.9057-18.20079-10.91773-23.95625-4.04847-11.5811-6.07243-17.37165-5.24038-24.70507,.92167-8.12095,4.59338-13.79331,7.48657-18.15432,10.42582-15.71586,26.01849-23.52787,35.46632-28.26094,9.33213-4.67508,17.97592-10.66151,27.37215-15.20675,.18672-.09031,1.13059-.53699,1.07621-.7018-.04522-.13692-.7577-.01318-.84232,0Zm-130.9051-30.86712c7.00271-14.91058,8.56638-38.06473,5.69677-56.12097-.28077-1.76677-.91945-6.53299,.374-7.29971,1.59864-.94775,3.94998,5.34178,11.9784,11.75922,10.00854,8.00026,13.98571,6.84331,22.20945,15.09743,3.64368,3.65728,6.34766,6.37096,7.48601,10.85517,2.17267,8.55612-3.10239,16.66763-7.48601,23.20784-6.19395,9.24182-8.85576,8.63755-14.97286,16.46982-2.64571,3.38774-4.45105,6.45004-15.72141,35.93451-5.972,15.6243-6.95526,18.6626-10.85503,22.83343-2.4515,2.62158-7.39917,7.12797-20.21324,11.60385-21.23479,7.41762-25.9089,1.42093-44.54376,7.11216-18.54247,5.66293-18.01061,12.8511-34.81155,15.34686-14.95039,2.22095-28.09766-1.58033-30.31972-2.24592-13.43388-4.02364-14.42879-8.91014-28.0738-11.22944-5.56305-.94539-9.73415-.87048-19.46469-2.9946-2.71618-.59304-14.02095-3.06077-13.84949-4.49169,.13484-1.12573,7.31261-1.10617,10.29348-1.12296,15.47004-.08795,30.86962-2.26159,46.2284-4.11756,29.94545-3.61843,45.09476-5.20805,67.87631-15.347,22.70858-10.10662,52.46675-31.81709,68.16874-65.25043Zm-67.91931-52.2853c-2.41488-5.21388-14.30533-30.88418-38.42971-37.43188-20.98897-5.69663-40.68422,5.94578-41.67415,3.24416-.74688-2.0388,7.40972-6.92252,16.3046-10.77332,14.88852-6.44532,28.46306-8.47913,38.87306-8.69124,21.91869-.44655,35.779,15.59781,44.88973,30.44443,14.5284,23.67533,12.49805,52.72491,1.49765,72.36828-9.08937,16.23038-24.70951,26.76607-26.95099,24.95435-1.93851-1.56673,7.52652-11.23804,11.22958-28.19852,4.66135-21.34938-2.9448-39.88185-5.73978-45.91628Zm-59.14207-24.45551c1.05207-1.26792,37.03721,9.58308,37.68144,37.93086,.48109,21.16668-19.10568,36.0656-34.9364,38.92911-11.89212,2.15103-24.12521-2.04463-24.20622-4.99095-.09045-3.2966,15.11436-2.013,28.19893-13.22593,1.59586-1.3678,14.58638-12.80519,14.22404-27.44997-.45667-18.4602-21.83629-30.13938-20.96179-31.19312Zm45.85385,60.20274c.5338,4.87928,2.5869,7.22147,3.36901,9.54521,2.93675,8.72453-8.87934,26.57671-24.89235,29.3839-13.051,2.28795-24.97974-6.80905-24.51779-8.42225,.28605-.99783,5.35912,1.31745,12.24142-.6735,3.38649-.97966,11.23957-2.86864,18.45257-10.93035,12.72695-14.22404,14.55586-27.7657,15.72169-27.32512,.54018,.2042-.91418,3.48762-.37455,8.42211Zm-53.55877-27.14575c-.604,.85411-10.70632-3.73233-18.49724,.00777-5.38576,2.58537-6.56934,7.36741-6.36347,12.63317,.38842,9.94071,5.36328,13.54652,5.06892,13.74836-.54379,.37289-18.07664-10.61878-18.07664-23.6677,0-6.59736,3.46251-15.34714,14.97286-16.37646,13.87363-1.24073,23.5004,12.80019,22.89558,13.65486Zm-35.46632,55.53154c1.8833,.63244,6.54104,2.19223,11.7287,3.74315,12.25252,3.66324,12.2761,2.73713,14.72288,4.49183,5.11886,3.67087,5.35246,7.96599,10.48103,9.23322,1.16111,.28688,2.68733,.19116,5.73922,0,8.72924-.54712,9.39178-2.02077,12.2281-1.49723,5.78223,1.06719,4.76456,7.51307,12.97637,12.97623,1.2313,.81929,6.44365,4.12699,13.47522,4.49183,6.38262,.33127,11.07976-1.92769,11.47928-.99825,.44474,1.03487-5.15326,4.35505-6.2389,4.99095-7.98347,4.67661-16.42917,9.62414-23.70655,6.73775-3.28189-1.30163-2.33997-2.61533-7.48657-6.23862-6.17953-4.35061-11.52145-6.41189-15.72113-7.36158-11.4729-2.59439-13.61255-1.01808-19.96382-4.11742-4.15141-2.02604-6.17786-4.80271-11.22958-11.10487-6.09713-7.60712-7.02435-8.85104-12.72695-13.6002-4.39278-3.65839-8.45485-5.28088-8.23484-5.7395,.21585-.44932,4.0826,1.17429,12.47752,3.99271Zm32.16778-81.92098c-.25802,.94539-3.753-.12665-13.19472,0-16.23385,.21779-30.30224-.03288-38.43775,10.55109-6.4259,8.35969-6.33212,16.96908-4.44494,25.73439,2.54694,11.82927,20.03207,26.10769,19.79208,26.3893-.43392,.50897-48.94043-17.17022-44.91831-48.00613,1.87164-14.34889,16.05323-21.9574,25.12623-24.56468,28.27662-8.1258,56.81986,7.17653,56.07742,9.89604Zm-66.35563,81.67142c4.06207,5.25799,20.20131,25.34846,41.29987,31.31797,3.50468,.99159,9.60125,1.22561,9.60708,3.868,.00444,1.8955-2.7062,2.89458-5.60327,3.97051-5.63296,2.09179-12.50998,1.9084-15.23338,1.64414-16.71965-1.62194-32.87915-10.60949-47.03937-29.07191-2.34413-3.05619-13.60007-18.09204-14.47374-41.92371-.19782-5.39769,1.05734-18.49405,4.11756-19.46788,2.13993-.68085,3.32934,7.6203,6.11405,13.72838,3.86786,8.48454,15.94975,29.12449,21.21121,35.93451Zm-1.06039-184.97535c5.80581-4.17832,16.33956-5.84132,23.77535-5.65044,15.96584,.41006,22.49827-7.16751,40.21728-11.56584,21.81437-5.41489,27.15352-1.87386,53.16868,.93346,20.08367,2.16726,27.45288-2.30224,39.3031,.56155,9.11517,2.20263,25.86562,6.25041,32.19164,20.77465,0,0,7.64721,7.46562-3.81348,34.88161-.23833,.57057-.91113,2.18002-1.80145,2.17586-.61759-.00305-1.31453-.62231-1.47379-.79543-2.40961-2.62033-8.38688-9.82515-11.82164-13.16725-12.82572-12.47947-19.92525-16.63781-28.25387-21.78469-19.47218-12.03347-46.66621-4.78897-54.46296-2.43319-11.49509,3.47333-13.39448,6.81737-47.5385,20.77479-5.5439,2.26617-12.3954,4.97861-21.33606,4.30456-3.92085-.29548-20.53674,2.41086-23.58197-9.35793-1.70878-6.60416,.09516-15.81407,5.42765-19.65169Zm-41.92385,70.9332c5.68928-5.23164,21.35881-19.64073,44.91831-24.51779,17.10974-3.54172,29.03099,3.03219,45.57308-6.1762,28.0738-15.62777,56.00528-30.70551,80.75918-20.77465,31.56739,12.66438,48.84859,38.18042,54.65024,49.22273,13.54791,25.78544,16.78458,60.05167,13.66277,75.42503-.34736,1.70906-1.52345,7.50127-2.43319,7.42401-1.17054-.09933-1.12726-9.84332-1.24795-13.22593-.94942-26.6132-26.03736-51.34615-33.43875-58.64295-13.27407-13.08652-26.81115-22.03369-45.23016-26.32715-39.87769-9.29551-73.55338,20.83707-75.47192,22.41227-.48192,.39591-2.4798,2.66708-4.32009,3.16606-2.92843,.79419-5.19238-.01484-5.83328-.12471-12.91394-2.2147-47.07017-4.8661-69.15505,19.83883-27.6729,30.95618-25.40673,92.12901-19.27714,110.61085,.1612,.48636,1.88191,4.38723,1.30982,4.77261-.66115,.4453-2.53779-.9601-4.8661-5.02203-9.40482-16.40767-30.15936-91.56801,20.40024-138.06096Zm-48.28677,264.14366c-.20614,.74702-3.74162,.37441-4.92853,.24942-12.57629-1.3248-24.21843-11.0516-38.67969-11.63506-9.35488-.37732-11.66461,3.40328-20.02596,.93582-.78295-.23111-8.55418-2.23079-12.91394-8.04784-11.479-15.31578-5.31917-24.87917,.2805-50.62646,3.33794-15.347,1.40886-21.6468-3.64923-45.16759-2.49562-11.60385-1.20078-15.53247,2.52641-19.87018,5.33415-6.20727,10.10676-8.64032,17.06285-16.31389,3.84566-4.24227,4.29568-7.08927,5.11553-6.98731,3.07242,.38204-11.41297,44.13078,3.36901,87.59043,12.76329,37.52552,44.09402,65.26999,49.03559,67.75146,.34986,.1759,2.99474,1.44355,2.80746,2.1212Zm15.15986-39.27231c-5.694,.75368-11.46346,1.52081-17.78033,5.80193-.10404,.07061-.23389,.09364-.88893,.5148-.34264,.22001,.12457-1.69089,.18728-1.90272,.7405-2.51032,3.9547-32.66385-10.59007-51.35961-7.25463-9.32492-10.70077-5.22498-16.84423-13.6002-10.12757-13.80621-10.33288-37.63594-.49912-53.15315,6.79989-10.73045,12.72667-14.66074,24.14352-28.13623,2.6926-3.17841,2.83438-3.66033,3.80543-3.68086,5.23788-.11042-3.18867,47.74769,20.71236,84.09684,26.09257,39.68223,80.47979,49.54359,83.34802,49.90899,.5646,.072,1.4441,.22487,1.80894,.23389,.62397,.01568-1.60779,1.11408-2.29253,1.40373-25.69499,10.8689-38.54235,16.30335-46.36851,16.4232-17.16495,.26302-26.9077-8.11692-38.74183-6.55061Zm162.26663,66.81578c-15.1643-.6882-31.62981-2.90096-31.62981-2.90096-23.55839-3.16592-35.33786-4.74902-35.93465-4.70241-.12651,.00999-.70166-.0935-1.02932-.25733-.19449-.09724-.46-.436-.46777-.46777-.18034-.71761-5.4357-7.86806-8.88989-10.57453-4.96404-3.8895-19.89029-9.32006-39.72482-10.20012,0,0-8.82191-.39147-24.56441-5.9892-.90752-.32267-2.27921-.88269-2.24592-1.49723,.0394-.72302,2.00398-1.15944,2.68261-1.31009,60.22189-13.37658,88.83809,4.21106,88.83809,4.21106,14.33335,8.80929,16.77098,16.84672,29.47768,20.86829,8.15105,2.57982,15.54579,7.12104,23.33227,10.65235,.70083,.31795,2.8169,1.27708,2.68261,1.80922-.11375,.4514-1.79535,.39203-2.52669,.35874Zm198.8874-144.51779c-5.78833,2.97601-10.20386,2.27227-14.97258,4.11742-12.41482,4.80382-18.85875,20.09643-20.27566,35.62266-1.49709,16.40753,3.66643,29.55467,6.62871,38.19596,.29603,.86313,1.21965,3.26164,0,4.44494-1.49903,1.45395-3.35625,.38412-4.11756,.04689-15.6662-6.94-61.52837,14.83234-61.52837,14.83234-29.53649,16.73172-35.88998,24.78373-51.90576,27.69953-5.1158,.93124-38.8886,7.08011-57.86305-10.10662,0,0-19.5851-17.73982-29.94545-17.68655-.36262,.00194-3.05411,.04314-3.08824-.28064-.04855-.46458,5.40462-1.3832,6.80045-1.62208,21.06444-3.60401,41.86614-8.63436,62.91615-12.32132,0,0,39.8308-6.97635,79.44936-19.65169,4.84224-1.54925,14.46569-4.76067,21.71005-13.56899,5.18517-6.30424,6.12737-11.79876,8.98366-22.45915,0,0,8.44625-33.04395,21.14906-58.95493,3.1146-6.35335,6.78241-12.22297,10.66803-18.62223,.38065-.62647,1.40248-2.97019,1.73126-2.85435,.24304,.08573-.04078,1.4552-.10904,1.82489-.7713,4.16292,2.03617,9.60611,2.74476,10.98002,2.41987,4.69131,6.56601,7.42553,15.34714,13.97448,13.58592,10.13214,14.28646,11.16715,15.09743,14.34889,1.30871,5.13509-5.14383,9.8418-9.42036,12.04055Z"/></svg>