<svg xmlns="http://www.w3.org/2000/svg" viewBox="0 0 3297 474">
  <path d="M2010,78h3v3h-3z M222,84h21v3h-21z M1203,84h6v3h-6z M1212,84h3v3h-3z M222,87h18v3h-18z M693,87h6v3h-6z M702,87h3v3h-3z M1998,87h9v3h-9z M2646,87h6v3h-6z M2655,87h6v3h-6z M222,90h18v3h-18z M693,90h12v3h-12z M1206,90h3v3h-3z M1998,90h3v3h-3z M2649,90h12v3h-12z M222,93h9v3h-9z M237,93h6v3h-6z M696,93h3v3h-3z M1197,93h3v3h-3z M1206,93h6v3h-6z M1995,93h9v3h-9z M2469,93h3v3h-3z M2649,93h6v3h-6z M219,96h21v3h-21z M693,96h6v3h-6z M1005,96h3v3h-3z M1014,96h3v3h-3z M1197,96h9v3h-9z M1818,96h3v3h-3z M1992,96h6v3h-6z M2460,96h9v3h-9z M2472,96h3v3h-3z M2643,96h9v3h-9z M207,99h15v3h-15z M228,99h12v3h-12z M681,99h6v3h-6z M690,99h6v3h-6z M996,99h21v3h-21z M1188,99h18v3h-18z M1800,99h18v3h-18z M1821,99h6v3h-6z M1983,99h15v3h-15z M2454,99h21v3h-21z M2634,99h15v3h-15z M207,102h33v3h-33z M681,102h3v3h-3z M687,102h9v3h-9z M996,102h21v3h-21z M1188,102h12v3h-12z M1800,102h18v3h-18z M1821,102h6v3h-6z M1983,102h9v3h-9z M1995,102h6v3h-6z M2454,102h21v3h-21z M2634,102h9v3h-9z M207,105h9v3h-9z M219,105h9v3h-9z M234,105h6v3h-6z M684,105h15v3h-15z M996,105h12v3h-12z M1014,105h3v3h-3z M1188,105h9v3h-9z M1800,105h6v3h-6z M1812,105h12v3h-12z M1986,105h15v3h-15z M2451,105h6v3h-6z M2460,105h9v3h-9z M2472,105h3v3h-3z M2637,105h15v3h-15z M207,108h9v3h-9z M219,108h21v3h-21z M681,108h9v3h-9z M993,108h24v3h-24z M1188,108h3v3h-3z M1194,108h9v3h-9z M1800,108h24v3h-24z M1983,108h3v3h-3z M1989,108h6v3h-6z M2439,108h3v3h-3z M2454,108h15v3h-15z M2472,108h6v3h-6z M2634,108h15v3h-15z M195,111h6v3h-6z M204,111h18v3h-18z M228,111h9v3h-9z M681,111h3v3h-3z M687,111h9v3h-9z M984,111h18v3h-18z M1008,111h9v3h-9z M1086,111h3v3h-3z M1095,111h6v3h-6z M1188,111h3v3h-3z M1194,111h9v3h-9z M1782,111h3v3h-3z M1791,111h6v3h-6z M1803,111h9v3h-9z M1815,111h9v3h-9z M1884,111h6v3h-6z M1893,111h6v3h-6z M1983,111h3v3h-3z M1989,111h12v3h-12z M2430,111h3v3h-3z M2436,111h15v3h-15z M2454,111h9v3h-9z M2466,111h9v3h-9z M2535,111h3v3h-3z M2634,111h6v3h-6z M2643,111h6v3h-6z M195,114h15v3h-15z M213,114h24v3h-24z M681,114h3v3h-3z M687,114h9v3h-9z M972,114h6v3h-6z M987,114h6v3h-6z M996,114h6v3h-6z M1005,114h12v3h-12z M1086,114h3v3h-3z M1095,114h3v3h-3z M1188,114h15v3h-15z M1782,114h36v3h-36z M1821,114h3v3h-3z M1884,114h15v3h-15z M1983,114h9v3h-9z M1995,114h6v3h-6z M2430,114h6v3h-6z M2439,114h12v3h-12z M2454,114h9v3h-9z M2466,114h6v3h-6z M2532,114h15v3h-15z M2634,114h15v3h-15z M195,117h12v3h-12z M210,117h18v3h-18z M234,117h6v3h-6z M681,117h9v3h-9z M693,117h3v3h-3z M972,117h39v3h-39z M1014,117h3v3h-3z M1086,117h12v3h-12z M1188,117h6v3h-6z M1200,117h3v3h-3z M1782,117h24v3h-24z M1809,117h9v3h-9z M1821,117h3v3h-3z M1884,117h9v3h-9z M1983,117h6v3h-6z M1992,117h6v3h-6z M2430,117h15v3h-15z M2448,117h9v3h-9z M2460,117h15v3h-15z M2535,117h12v3h-12z M2634,117h12v3h-12z M195,120h21v3h-21z M219,120h21v3h-21z M534,120h3v3h-3z M543,120h9v3h-9z M681,120h9v3h-9z M693,120h6v3h-6z M972,120h12v3h-12z M987,120h12v3h-12z M1002,120h15v3h-15z M1086,120h15v3h-15z M1188,120h6v3h-6z M1200,120h3v3h-3z M1671,120h6v3h-6z M1782,120h9v3h-9z M1797,120h9v3h-9z M1809,120h12v3h-12z M1884,120h15v3h-15z M1983,120h6v3h-6z M1992,120h9v3h-9z M2430,120h12v3h-12z M2445,120h30v3h-30z M2532,120h15v3h-15z M2634,120h6v3h-6z M2643,120h6v3h-6z M195,123h42v3h-42z M534,123h18v3h-18z M687,123h9v3h-9z M972,123h18v3h-18z M996,123h9v3h-9z M1008,123h9v3h-9z M1086,123h3v3h-3z M1092,123h12v3h-12z M1194,123h9v3h-9z M1659,123h18v3h-18z M1782,123h42v3h-42z M1884,123h6v3h-6z M1893,123h6v3h-6z M1983,123h12v3h-12z M1998,123h3v3h-3z M2430,123h45v3h-45z M2532,123h9v3h-9z M2544,123h6v3h-6z M2634,123h15v3h-15z M195,126h6v3h-6z M204,126h6v3h-6z M216,126h9v3h-9z M228,126h6v3h-6z M534,126h12v3h-12z M549,126h12v3h-12z M564,126h12v3h-12z M681,126h15v3h-15z M960,126h21v3h-21z M984,126h21v3h-21z M1008,126h9v3h-9z M1086,126h3v3h-3z M1092,126h21v3h-21z M1188,126h15v3h-15z M1659,126h42v3h-42z M1767,126h6v3h-6z M1776,126h9v3h-9z M1788,126h12v3h-12z M1803,126h9v3h-9z M1818,126h6v3h-6z M1884,126h6v3h-6z M1893,126h18v3h-18z M1989,126h12v3h-12z M2418,126h3v3h-3z M2427,126h6v3h-6z M2439,126h9v3h-9z M2451,126h9v3h-9z M2463,126h12v3h-12z M2532,126h30v3h-30z M2637,126h9v3h-9z M195,129h42v3h-42z M540,129h36v3h-36z M681,129h12v3h-12z M696,129h3v3h-3z M963,129h36v3h-36z M1002,129h15v3h-15z M1086,129h15v3h-15z M1104,129h9v3h-9z M1188,129h6v3h-6z M1200,129h3v3h-3z M1659,129h12v3h-12z M1674,129h12v3h-12z M1689,129h12v3h-12z M1770,129h3v3h-3z M1776,129h9v3h-9z M1788,129h36v3h-36z M1887,129h9v3h-9z M1899,129h12v3h-12z M1983,129h15v3h-15z M2418,129h42v3h-42z M2463,129h12v3h-12z M2535,129h9v3h-9z M2547,129h9v3h-9z M2559,129h3v3h-3z M2634,129h15v3h-15z M198,132h6v3h-6z M210,132h6v3h-6z M222,132h15v3h-15z M534,132h18v3h-18z M558,132h9v3h-9z M570,132h6v3h-6z M681,132h6v3h-6z M690,132h6v3h-6z M960,132h15v3h-15z M978,132h6v3h-6z M990,132h9v3h-9z M1002,132h9v3h-9z M1014,132h3v3h-3z M1086,132h9v3h-9z M1098,132h9v3h-9z M1188,132h15v3h-15z M1659,132h18v3h-18z M1680,132h21v3h-21z M1770,132h36v3h-36z M1809,132h12v3h-12z M1884,132h12v3h-12z M1899,132h12v3h-12z M1983,132h15v3h-15z M2418,132h9v3h-9z M2430,132h12v3h-12z M2445,132h30v3h-30z M2532,132h12v3h-12z M2547,132h12v3h-12z M2634,132h6v3h-6z M2643,132h6v3h-6z M195,135h42v3h-42z M534,135h6v3h-6z M546,135h21v3h-21z M573,135h3v3h-3z M681,135h18v3h-18z M963,135h54v3h-54z M1086,135h21v3h-21z M1110,135h3v3h-3z M1185,135h15v3h-15z M1206,135h3v3h-3z M1659,135h6v3h-6z M1668,135h9v3h-9z M1680,135h12v3h-12z M1695,135h6v3h-6z M1770,135h9v3h-9z M1782,135h9v3h-9z M1797,135h9v3h-9z M1812,135h12v3h-12z M1884,135h6v3h-6z M1893,135h9v3h-9z M1905,135h6v3h-6z M1983,135h9v3h-9z M1998,135h3v3h-3z M2421,135h21v3h-21z M2445,135h9v3h-9z M2457,135h9v3h-9z M2472,135h3v3h-3z M2532,135h6v3h-6z M2541,135h9v3h-9z M2556,135h6v3h-6z M2634,135h6v3h-6z M2646,135h6v3h-6z M195,138h3v3h-3z M204,138h6v3h-6z M216,138h9v3h-9z M228,138h6v3h-6z M534,138h51v3h-51z M588,138h3v3h-3z M672,138h21v3h-21z M696,138h6v3h-6z M843,138h9v3h-9z M855,138h12v3h-12z M960,138h9v3h-9z M972,138h9v3h-9z M984,138h9v3h-9z M996,138h9v3h-9z M1008,138h9v3h-9z M1086,138h3v3h-3z M1092,138h9v3h-9z M1104,138h9v3h-9z M1176,138h15v3h-15z M1197,138h12v3h-12z M1659,138h57v3h-57z M1770,138h54v3h-54z M1884,138h3v3h-3z M1893,138h18v3h-18z M1974,138h9v3h-9z M1986,138h18v3h-18z M2418,138h57v3h-57z M2532,138h30v3h-30z M2622,138h36v3h-36z M2709,138h3v3h-3z M195,141h30v3h-30z M228,141h6v3h-6z M537,141h9v3h-9z M552,141h9v3h-9z M564,141h27v3h-27z M672,141h30v3h-30z M705,141h3v3h-3z M843,141h6v3h-6z M855,141h9v3h-9z M960,141h27v3h-27z M990,141h24v3h-24z M1086,141h27v3h-27z M1179,141h12v3h-12z M1197,141h9v3h-9z M1212,141h3v3h-3z M1260,141h3v3h-3z M1659,141h12v3h-12z M1674,141h9v3h-9z M1689,141h9v3h-9z M1701,141h15v3h-15z M1767,141h6v3h-6z M1776,141h9v3h-9z M1788,141h12v3h-12z M1803,141h9v3h-9z M1818,141h6v3h-6z M1884,141h3v3h-3z M1890,141h6v3h-6z M1902,141h9v3h-9z M1977,141h6v3h-6z M1986,141h12v3h-12z M2001,141h9v3h-9z M2418,141h6v3h-6z M2427,141h9v3h-9z M2439,141h9v3h-9z M2451,141h9v3h-9z M2466,141h9v3h-9z M2535,141h9v3h-9z M2547,141h9v3h-9z M2622,141h24v3h-24z M2652,141h3v3h-3z M195,144h21v3h-21z M219,144h18v3h-18z M534,144h57v3h-57z M672,144h36v3h-36z M714,144h3v3h-3z M846,144h21v3h-21z M963,144h12v3h-12z M978,144h9v3h-9z M990,144h9v3h-9z M1002,144h6v3h-6z M1014,144h3v3h-3z M1086,144h6v3h-6z M1098,144h9v3h-9z M1110,144h3v3h-3z M1179,144h36v3h-36z M1218,144h3v3h-3z M1230,144h3v3h-3z M1242,144h3v3h-3z M1251,144h3v3h-3z M1260,144h9v3h-9z M1662,144h54v3h-54z M1770,144h54v3h-54z M1884,144h27v3h-27z M1977,144h30v3h-30z M2418,144h57v3h-57z M2532,144h27v3h-27z M2625,144h36v3h-36z M2670,144h3v3h-3z M2700,144h6v3h-6z M2709,144h3v3h-3z M195,147h12v3h-12z M210,147h6v3h-6z M219,147h18v3h-18z M534,147h6v3h-6z M543,147h9v3h-9z M558,147h9v3h-9z M570,147h9v3h-9z M582,147h9v3h-9z M672,147h36v3h-36z M711,147h6v3h-6z M726,147h6v3h-6z M738,147h3v3h-3z M747,147h3v3h-3z M753,147h6v3h-6z M843,147h3v3h-3z M849,147h6v3h-6z M861,147h6v3h-6z M960,147h57v3h-57z M1086,147h27v3h-27z M1176,147h24v3h-24z M1203,147h9v3h-9z M1215,147h9v3h-9z M1227,147h15v3h-15z M1245,147h6v3h-6z M1254,147h3v3h-3z M1263,147h6v3h-6z M1338,147h6v3h-6z M1347,147h6v3h-6z M1659,147h18v3h-18z M1680,147h12v3h-12z M1695,147h9v3h-9z M1710,147h6v3h-6z M1770,147h9v3h-9z M1782,147h9v3h-9z M1797,147h9v3h-9z M1812,147h12v3h-12z M1884,147h6v3h-6z M1896,147h9v3h-9z M1908,147h3v3h-3z M1977,147h12v3h-12z M1995,147h9v3h-9z M2007,147h6v3h-6z M2022,147h6v3h-6z M2034,147h6v3h-6z M2043,147h18v3h-18z M2418,147h12v3h-12z M2433,147h9v3h-9z M2445,147h9v3h-9z M2460,147h6v3h-6z M2469,147h6v3h-6z M2532,147h6v3h-6z M2541,147h9v3h-9z M2556,147h6v3h-6z M2625,147h15v3h-15z M2643,147h9v3h-9z M2655,147h21v3h-21z M2682,147h6v3h-6z M2694,147h6v3h-6z M2709,147h3v3h-3z M204,150h6v3h-6z M216,150h6v3h-6z M534,150h6v3h-6z M543,150h9v3h-9z M555,150h39v3h-39z M672,150h78v3h-78z M843,150h24v3h-24z M960,150h21v3h-21z M984,150h9v3h-9z M996,150h6v3h-6z M1083,150h6v3h-6z M1092,150h9v3h-9z M1104,150h9v3h-9z M1176,150h18v3h-18z M1197,150h33v3h-33z M1233,150h9v3h-9z M1245,150h12v3h-12z M1329,150h21v3h-21z M1659,150h6v3h-6z M1668,150h48v3h-48z M1770,150h6v3h-6z M1782,150h36v3h-36z M1884,150h27v3h-27z M1977,150h72v3h-72z M2421,150h9v3h-9z M2433,150h39v3h-39z M2532,150h30v3h-30z M2622,150h12v3h-12z M2637,150h33v3h-33z M2673,150h15v3h-15z M2691,150h9v3h-9z M2769,150h3v3h-3z M2778,150h3v3h-3z M204,153h6v3h-6z M213,153h9v3h-9z M534,153h12v3h-12z M549,153h36v3h-36z M588,153h6v3h-6z M672,153h42v3h-42z M717,153h21v3h-21z M741,153h9v3h-9z M843,153h6v3h-6z M855,153h12v3h-12z M960,153h15v3h-15z M978,153h9v3h-9z M990,153h12v3h-12z M1086,153h15v3h-15z M1104,153h9v3h-9z M1179,153h27v3h-27z M1212,153h6v3h-6z M1224,153h24v3h-24z M1251,153h6v3h-6z M1329,153h21v3h-21z M1659,153h27v3h-27z M1689,153h9v3h-9z M1701,153h12v3h-12z M1716,153h3v3h-3z M1770,153h15v3h-15z M1788,153h12v3h-12z M1803,153h9v3h-9z M1884,153h3v3h-3z M1890,153h6v3h-6z M1902,153h6v3h-6z M1977,153h21v3h-21z M2001,153h9v3h-9z M2016,153h6v3h-6z M2025,153h9v3h-9z M2037,153h6v3h-6z M2046,153h3v3h-3z M2418,153h18v3h-18z M2439,153h6v3h-6z M2451,153h9v3h-9z M2532,153h12v3h-12z M2547,153h9v3h-9z M2622,153h6v3h-6z M2631,153h15v3h-15z M2652,153h6v3h-6z M2661,153h9v3h-9z M2673,153h9v3h-9z M2685,153h15v3h-15z M2766,153h15v3h-15z M207,156h15v3h-15z M534,156h12v3h-12z M549,156h36v3h-36z M588,156h6v3h-6z M672,156h3v3h-3z M678,156h18v3h-18z M699,156h51v3h-51z M843,156h24v3h-24z M960,156h15v3h-15z M978,156h9v3h-9z M990,156h12v3h-12z M1086,156h6v3h-6z M1098,156h15v3h-15z M1176,156h48v3h-48z M1227,156h9v3h-9z M1239,156h9v3h-9z M1251,156h6v3h-6z M1329,156h3v3h-3z M1335,156h15v3h-15z M1662,156h9v3h-9z M1674,156h12v3h-12z M1689,156h24v3h-24z M1716,156h3v3h-3z M1767,156h3v3h-3z M1776,156h9v3h-9z M1788,156h24v3h-24z M1884,156h27v3h-27z M1977,156h6v3h-6z M1986,156h12v3h-12z M2001,156h21v3h-21z M2025,156h15v3h-15z M2043,156h6v3h-6z M2415,156h9v3h-9z M2427,156h33v3h-33z M2532,156h30v3h-30z M2625,156h66v3h-66z M2694,156h6v3h-6z M2775,156h6v3h-6z M204,159h15v3h-15z M534,159h18v3h-18z M555,159h39v3h-39z M669,159h81v3h-81z M843,159h15v3h-15z M861,159h6v3h-6z M960,159h9v3h-9z M972,159h30v3h-30z M1083,159h30v3h-30z M1176,159h24v3h-24z M1203,159h21v3h-21z M1227,159h30v3h-30z M1329,159h15v3h-15z M1347,159h6v3h-6z M1659,159h48v3h-48z M1710,159h9v3h-9z M1767,159h45v3h-45z M1884,159h6v3h-6z M1896,159h15v3h-15z M1977,159h6v3h-6z M1986,159h63v3h-63z M2415,159h27v3h-27z M2445,159h6v3h-6z M2454,159h6v3h-6z M2532,159h6v3h-6z M2541,159h9v3h-9z M2553,159h9v3h-9z M2622,159h18v3h-18z M2643,159h57v3h-57z M2769,159h6v3h-6z M2778,159h6v3h-6z M204,162h6v3h-6z M534,162h3v3h-3z M543,162h9v3h-9z M555,162h12v3h-12z M570,162h9v3h-9z M582,162h9v3h-9z M669,162h6v3h-6z M831,162h36v3h-36z M957,162h21v3h-21z M981,162h12v3h-12z M1086,162h3v3h-3z M1092,162h21v3h-21z M1176,162h3v3h-3z M1329,162h15v3h-15z M1347,162h6v3h-6z M1659,162h18v3h-18z M1683,162h9v3h-9z M1695,162h12v3h-12z M1710,162h9v3h-9z M1767,162h12v3h-12z M1782,162h9v3h-9z M1797,162h6v3h-6z M1884,162h9v3h-9z M1896,162h9v3h-9z M1908,162h3v3h-3z M1968,162h3v3h-3z M1974,162h3v3h-3z M2373,162h3v3h-3z M2421,162h9v3h-9z M2433,162h9v3h-9z M2445,162h15v3h-15z M2532,162h30v3h-30z M2619,162h3v3h-3z M2766,162h18v3h-18z M195,165h9v3h-9z M549,165h45v3h-45z M651,165h9v3h-9z M663,165h12v3h-12z M831,165h6v3h-6z M840,165h9v3h-9z M855,165h9v3h-9z M960,165h27v3h-27z M1089,165h12v3h-12z M1158,165h6v3h-6z M1167,165h12v3h-12z M1329,165h21v3h-21z M1671,165h42v3h-42z M1716,165h3v3h-3z M1767,165h30v3h-30z M1890,165h12v3h-12z M1959,165h18v3h-18z M2415,165h42v3h-42z M2538,165h6v3h-6z M2547,165h3v3h-3z M2610,165h12v3h-12z M2769,165h12v3h-12z M195,168h9v3h-9z M549,168h9v3h-9z M561,168h24v3h-24z M588,168h6v3h-6z M651,168h18v3h-18z M672,168h3v3h-3z M831,168h3v3h-3z M840,168h12v3h-12z M855,168h12v3h-12z M957,168h15v3h-15z M978,168h6v3h-6z M1083,168h9v3h-9z M1095,168h6v3h-6z M1158,168h15v3h-15z M1329,168h6v3h-6z M1338,168h12v3h-12z M1674,168h12v3h-12z M1692,168h9v3h-9z M1704,168h9v3h-9z M1716,168h3v3h-3z M1764,168h6v3h-6z M1773,168h12v3h-12z M1788,168h6v3h-6z M1884,168h3v3h-3z M1890,168h12v3h-12z M1950,168h6v3h-6z M1959,168h6v3h-6z M1971,168h6v3h-6z M2376,168h6v3h-6z M2415,168h9v3h-9z M2427,168h9v3h-9z M2439,168h6v3h-6z M2532,168h18v3h-18z M2601,168h6v3h-6z M2610,168h6v3h-6z M2619,168h6v3h-6z M2763,168h6v3h-6z M2775,168h6v3h-6z M186,171h9v3h-9z M198,171h9v3h-9z M549,171h45v3h-45z M651,171h6v3h-6z M660,171h6v3h-6z M669,171h6v3h-6z M831,171h27v3h-27z M861,171h6v3h-6z M954,171h9v3h-9z M966,171h18v3h-18z M1086,171h6v3h-6z M1095,171h6v3h-6z M1158,171h3v3h-3z M1164,171h6v3h-6z M1176,171h3v3h-3z M1329,171h12v3h-12z M1347,171h6v3h-6z M1677,171h9v3h-9z M1689,171h30v3h-30z M1764,171h30v3h-30z M1884,171h6v3h-6z M1893,171h6v3h-6z M1950,171h12v3h-12z M1965,171h3v3h-3z M1971,171h3v3h-3z M2373,171h18v3h-18z M2415,171h27v3h-27z M2532,171h6v3h-6z M2541,171h9v3h-9z M2601,171h15v3h-15z M2619,171h3v3h-3z M2763,171h18v3h-18z M186,174h21v3h-21z M549,174h3v3h-3z M555,174h9v3h-9z M567,174h9v3h-9z M582,174h12v3h-12z M651,174h24v3h-24z M831,174h9v3h-9z M846,174h3v3h-3z M852,174h6v3h-6z M861,174h6v3h-6z M957,174h27v3h-27z M1086,174h12v3h-12z M1155,174h24v3h-24z M1329,174h12v3h-12z M1347,174h6v3h-6z M1674,174h18v3h-18z M1698,174h6v3h-6z M1710,174h9v3h-9z M1764,174h18v3h-18z M1785,174h9v3h-9z M1884,174h18v3h-18z M1953,174h21v3h-21z M2376,174h15v3h-15z M2409,174h36v3h-36z M2532,174h18v3h-18z M2601,174h12v3h-12z M2616,174h6v3h-6z M2766,174h12v3h-12z M189,177h3v3h-3z M549,177h45v3h-45z M831,177h9v3h-9z M843,177h12v3h-12z M858,177h9v3h-9z M951,177h6v3h-6z M1083,177h6v3h-6z M1095,177h3v3h-3z M1131,177h3v3h-3z M1143,177h3v3h-3z M1149,177h6v3h-6z M1317,177h33v3h-33z M1683,177h9v3h-9z M1695,177h24v3h-24z M1755,177h9v3h-9z M1884,177h9v3h-9z M1896,177h6v3h-6z M1962,177h6v3h-6z M2373,177h12v3h-12z M2388,177h6v3h-6z M2409,177h9v3h-9z M2424,177h3v3h-3z M2532,177h9v3h-9z M2598,177h3v3h-3z M2757,177h6v3h-6z M2769,177h15v3h-15z M183,180h12v3h-12z M564,180h6v3h-6z M576,180h9v3h-9z M588,180h6v3h-6z M633,180h3v3h-3z M639,180h12v3h-12z M831,180h3v3h-3z M840,180h27v3h-27z M939,180h18v3h-18z M1068,180h18v3h-18z M1131,180h15v3h-15z M1149,180h6v3h-6z M1317,180h6v3h-6z M1326,180h9v3h-9z M1338,180h12v3h-12z M1689,180h9v3h-9z M1704,180h6v3h-6z M1716,180h6v3h-6z M1746,180h18v3h-18z M1869,180h6v3h-6z M1878,180h9v3h-9z M1926,180h15v3h-15z M1944,180h6v3h-6z M2382,180h30v3h-30z M2517,180h3v3h-3z M2523,180h9v3h-9z M2535,180h3v3h-3z M2574,180h27v3h-27z M2748,180h6v3h-6z M2757,180h27v3h-27z M183,183h9v3h-9z M561,183h3v3h-3z M570,183h3v3h-3z M576,183h6v3h-6z M585,183h9v3h-9z M636,183h6v3h-6z M648,183h3v3h-3z M831,183h3v3h-3z M837,183h12v3h-12z M855,183h3v3h-3z M864,183h3v3h-3z M939,183h18v3h-18z M1071,183h15v3h-15z M1131,183h3v3h-3z M1137,183h6v3h-6z M1155,183h3v3h-3z M1317,183h24v3h-24z M1344,183h6v3h-6z M1689,183h9v3h-9z M1704,183h15v3h-15z M1749,183h6v3h-6z M1758,183h6v3h-6z M1869,183h15v3h-15z M1929,183h12v3h-12z M1944,183h6v3h-6z M2382,183h6v3h-6z M2394,183h9v3h-9z M2406,183h6v3h-6z M2517,183h15v3h-15z M2577,183h24v3h-24z M2748,183h24v3h-24z M2778,183h6v3h-6z M183,186h9v3h-9z M561,186h3v3h-3z M570,186h24v3h-24z M633,186h12v3h-12z M648,186h3v3h-3z M831,186h9v3h-9z M843,186h24v3h-24z M939,186h9v3h-9z M951,186h6v3h-6z M1068,186h9v3h-9z M1080,186h6v3h-6z M1131,186h6v3h-6z M1143,186h6v3h-6z M1152,186h3v3h-3z M1317,186h12v3h-12z M1332,186h9v3h-9z M1344,186h9v3h-9z M1689,186h3v3h-3z M1698,186h6v3h-6z M1710,186h9v3h-9z M1746,186h12v3h-12z M1761,186h3v3h-3z M1869,186h9v3h-9z M1881,186h3v3h-3z M1926,186h6v3h-6z M1938,186h6v3h-6z M1947,186h6v3h-6z M2382,186h9v3h-9z M2394,186h9v3h-9z M2406,186h6v3h-6z M2517,186h9v3h-9z M2529,186h3v3h-3z M2577,186h3v3h-3z M2586,186h6v3h-6z M2595,186h6v3h-6z M2748,186h9v3h-9z M2763,186h21v3h-21z M183,189h3v3h-3z M189,189h3v3h-3z M561,189h15v3h-15z M582,189h3v3h-3z M591,189h3v3h-3z M630,189h9v3h-9z M642,189h9v3h-9z M831,189h3v3h-3z M840,189h6v3h-6z M849,189h15v3h-15z M939,189h9v3h-9z M951,189h6v3h-6z M1068,189h9v3h-9z M1080,189h6v3h-6z M1131,189h27v3h-27z M1305,189h3v3h-3z M1314,189h39v3h-39z M1689,189h6v3h-6z M1698,189h6v3h-6z M1710,189h12v3h-12z M1746,189h12v3h-12z M1761,189h3v3h-3z M1869,189h9v3h-9z M1881,189h6v3h-6z M1926,189h6v3h-6z M1935,189h9v3h-9z M1947,189h3v3h-3z M2382,189h15v3h-15z M2400,189h12v3h-12z M2517,189h15v3h-15z M2574,189h6v3h-6z M2583,189h18v3h-18z M2748,189h18v3h-18z M2769,189h9v3h-9z M141,192h3v3h-3z M150,192h3v3h-3z M159,192h6v3h-6z M651,192h9v3h-9z M663,192h6v3h-6z M672,192h6v3h-6z M681,192h9v3h-9z M693,192h18v3h-18z M714,192h39v3h-39z M756,192h6v3h-6z M840,192h15v3h-15z M933,192h6v3h-6z M987,192h3v3h-3z M996,192h3v3h-3z M1005,192h3v3h-3z M1014,192h3v3h-3z M1020,192h9v3h-9z M1032,192h9v3h-9z M1044,192h6v3h-6z M1053,192h12v3h-12z M1116,192h3v3h-3z M1125,192h3v3h-3z M1155,192h93v3h-93z M1305,192h15v3h-15z M1326,192h9v3h-9z M1338,192h12v3h-12z M1734,192h15v3h-15z M1812,192h3v3h-3z M1824,192h3v3h-3z M1833,192h3v3h-3z M1857,192h3v3h-3z M1863,192h6v3h-6z M1914,192h3v3h-3z M1953,192h9v3h-9z M1965,192h6v3h-6z M1977,192h6v3h-6z M1986,192h6v3h-6z M1995,192h3v3h-3z M2004,192h3v3h-3z M2010,192h3v3h-3z M2019,192h3v3h-3z M2031,192h6v3h-6z M2382,192h3v3h-3z M2394,192h3v3h-3z M2400,192h3v3h-3z M2514,192h3v3h-3z M2574,192h9v3h-9z M2589,192h6v3h-6z M2601,192h3v3h-3z M2625,192h6v3h-6z M2637,192h9v3h-9z M2649,192h9v3h-9z M2661,192h9v3h-9z M2673,192h6v3h-6z M2739,192h3v3h-3z M2745,192h6v3h-6z M2754,192h30v3h-30z M3105,192h3v3h-3z M138,195h9v3h-9z M150,195h15v3h-15z M618,195h12v3h-12z M648,195h27v3h-27z M678,195h9v3h-9z M690,195h6v3h-6z M699,195h42v3h-42z M744,195h9v3h-9z M756,195h6v3h-6z M843,195h12v3h-12z M924,195h15v3h-15z M984,195h18v3h-18z M1005,195h12v3h-12z M1020,195h45v3h-45z M1116,195h12v3h-12z M1155,195h24v3h-24z M1182,195h6v3h-6z M1191,195h21v3h-21z M1215,195h9v3h-9z M1230,195h9v3h-9z M1242,195h6v3h-6z M1308,195h36v3h-36z M1347,195h3v3h-3z M1737,195h15v3h-15z M1791,195h45v3h-45z M1839,195h9v3h-9z M1851,195h15v3h-15z M1914,195h9v3h-9z M1947,195h75v3h-75z M2025,195h12v3h-12z M2394,195h9v3h-9z M2439,195h78v3h-78z M2562,195h12v3h-12z M2601,195h21v3h-21z M2625,195h54v3h-54z M2736,195h24v3h-24z M2763,195h9v3h-9z M2775,195h9v3h-9z M3096,195h12v3h-12z M141,198h24v3h-24z M618,198h12v3h-12z M648,198h6v3h-6z M657,198h6v3h-6z M666,198h9v3h-9z M678,198h9v3h-9z M690,198h6v3h-6z M699,198h9v3h-9z M711,198h6v3h-6z M723,198h6v3h-6z M735,198h21v3h-21z M759,198h6v3h-6z M843,198h3v3h-3z M849,198h6v3h-6z M927,198h6v3h-6z M936,198h3v3h-3z M987,198h9v3h-9z M999,198h6v3h-6z M1011,198h12v3h-12z M1026,198h9v3h-9z M1038,198h9v3h-9z M1050,198h9v3h-9z M1062,198h3v3h-3z M1116,198h9v3h-9z M1155,198h6v3h-6z M1164,198h9v3h-9z M1176,198h12v3h-12z M1191,198h9v3h-9z M1203,198h9v3h-9z M1215,198h24v3h-24z M1242,198h6v3h-6z M1305,198h24v3h-24z M1332,198h21v3h-21z M1734,198h6v3h-6z M1746,198h6v3h-6z M1794,198h6v3h-6z M1803,198h9v3h-9z M1818,198h6v3h-6z M1827,198h9v3h-9z M1839,198h9v3h-9z M1851,198h15v3h-15z M1914,198h9v3h-9z M1947,198h12v3h-12z M1962,198h6v3h-6z M1971,198h6v3h-6z M1983,198h6v3h-6z M1995,198h9v3h-9z M2007,198h6v3h-6z M2019,198h6v3h-6z M2028,198h3v3h-3z M2034,198h3v3h-3z M2394,198h9v3h-9z M2445,198h6v3h-6z M2454,198h9v3h-9z M2466,198h6v3h-6z M2478,198h6v3h-6z M2490,198h6v3h-6z M2499,198h6v3h-6z M2511,198h6v3h-6z M2562,198h9v3h-9z M2595,198h33v3h-33z M2631,198h9v3h-9z M2643,198h9v3h-9z M2658,198h6v3h-6z M2670,198h6v3h-6z M2736,198h9v3h-9z M2748,198h30v3h-30z M3096,198h12v3h-12z M138,201h12v3h-12z M153,201h6v3h-6z M162,201h6v3h-6z M618,201h6v3h-6z M627,201h3v3h-3z M648,201h33v3h-33z M684,201h63v3h-63z M750,201h15v3h-15z M840,201h15v3h-15z M924,201h15v3h-15z M987,201h9v3h-9z M999,201h15v3h-15z M1017,201h6v3h-6z M1026,201h39v3h-39z M1116,201h12v3h-12z M1155,201h93v3h-93z M1305,201h6v3h-6z M1314,201h9v3h-9z M1326,201h27v3h-27z M1734,201h15v3h-15z M1794,201h6v3h-6z M1803,201h6v3h-6z M1812,201h30v3h-30z M1845,201h9v3h-9z M1857,201h12v3h-12z M1914,201h9v3h-9z M1947,201h78v3h-78z M2028,201h9v3h-9z M2394,201h6v3h-6z M2439,201h6v3h-6z M2448,201h9v3h-9z M2460,201h57v3h-57z M2562,201h9v3h-9z M2595,201h33v3h-33z M2631,201h48v3h-48z M2739,201h27v3h-27z M2769,201h12v3h-12z M3096,201h15v3h-15z M138,204h12v3h-12z M153,204h15v3h-15z M618,204h6v3h-6z M627,204h3v3h-3z M648,204h3v3h-3z M654,204h6v3h-6z M663,204h6v3h-6z M675,204h3v3h-3z M687,204h3v3h-3z M699,204h3v3h-3z M708,204h3v3h-3z M717,204h6v3h-6z M729,204h3v3h-3z M741,204h3v3h-3z M756,204h6v3h-6z M924,204h3v3h-3z M930,204h9v3h-9z M984,204h6v3h-6z M993,204h9v3h-9z M1005,204h9v3h-9z M1017,204h3v3h-3z M1023,204h6v3h-6z M1035,204h3v3h-3z M1047,204h3v3h-3z M1056,204h3v3h-3z M1116,204h6v3h-6z M1125,204h6v3h-6z M1248,204h18v3h-18z M1269,204h6v3h-6z M1314,204h9v3h-9z M1326,204h9v3h-9z M1734,204h3v3h-3z M1740,204h6v3h-6z M1794,204h12v3h-12z M1812,204h6v3h-6z M1824,204h3v3h-3z M1836,204h6v3h-6z M1848,204h6v3h-6z M1860,204h3v3h-3z M1914,204h3v3h-3z M1923,204h3v3h-3z M1947,204h6v3h-6z M1956,204h6v3h-6z M1965,204h6v3h-6z M1977,204h9v3h-9z M1989,204h9v3h-9z M2001,204h6v3h-6z M2013,204h6v3h-6z M2025,204h3v3h-3z M2031,204h6v3h-6z M2397,204h6v3h-6z M2439,204h6v3h-6z M2448,204h6v3h-6z M2460,204h6v3h-6z M2472,204h6v3h-6z M2484,204h6v3h-6z M2496,204h6v3h-6z M2505,204h6v3h-6z M2559,204h6v3h-6z M2568,204h6v3h-6z M2595,204h15v3h-15z M2613,204h3v3h-3z M2619,204h27v3h-27z M2649,204h9v3h-9z M2661,204h9v3h-9z M2673,204h6v3h-6z M2742,204h9v3h-9z M2754,204h18v3h-18z M3096,204h6v3h-6z M3105,204h3v3h-3z M99,207h3v3h-3z M108,207h3v3h-3z M159,207h57v3h-57z M291,207h27v3h-27z M606,207h42v3h-42z M759,207h30v3h-30z M792,207h6v3h-6z M831,207h9v3h-9z M906,207h21v3h-21z M930,207h57v3h-57z M990,207h12v3h-12z M1005,207h12v3h-12z M1077,207h48v3h-48z M1128,207h24v3h-24z M1248,207h9v3h-9z M1260,207h6v3h-6z M1269,207h6v3h-6z M1305,207h33v3h-33z M1428,207h15v3h-15z M1719,207h75v3h-75z M1797,207h15v3h-15z M1878,207h69v3h-69z M2037,207h33v3h-33z M2106,207h6v3h-6z M2115,207h6v3h-6z M2397,207h30v3h-30z M2430,207h30v3h-30z M2523,207h3v3h-3z M2529,207h6v3h-6z M2538,207h6v3h-6z M2547,207h18v3h-18z M2568,207h12v3h-12z M2583,207h9v3h-9z M2679,207h15v3h-15z M2697,207h15v3h-15z M2742,207h15v3h-15z M2760,207h9v3h-9z M2844,207h9v3h-9z M3078,207h18v3h-18z M96,210h18v3h-18z M159,210h6v3h-6z M168,210h12v3h-12z M183,210h9v3h-9z M195,210h21v3h-21z M291,210h12v3h-12z M306,210h15v3h-15z M606,210h12v3h-12z M621,210h6v3h-6z M630,210h6v3h-6z M639,210h9v3h-9z M759,210h9v3h-9z M771,210h6v3h-6z M780,210h9v3h-9z M792,210h6v3h-6z M831,210h6v3h-6z M906,210h18v3h-18z M927,210h9v3h-9z M942,210h6v3h-6z M954,210h6v3h-6z M966,210h6v3h-6z M978,210h9v3h-9z M990,210h6v3h-6z M1002,210h6v3h-6z M1014,210h3v3h-3z M1077,210h9v3h-9z M1089,210h12v3h-12z M1107,210h6v3h-6z M1116,210h12v3h-12z M1131,210h9v3h-9z M1143,210h6v3h-6z M1248,210h9v3h-9z M1260,210h9v3h-9z M1272,210h6v3h-6z M1305,210h33v3h-33z M1428,210h6v3h-6z M1437,210h6v3h-6z M1719,210h45v3h-45z M1767,210h6v3h-6z M1779,210h6v3h-6z M1788,210h24v3h-24z M1881,210h12v3h-12z M1899,210h6v3h-6z M1908,210h6v3h-6z M1917,210h6v3h-6z M1929,210h12v3h-12z M1944,210h3v3h-3z M2037,210h12v3h-12z M2052,210h9v3h-9z M2064,210h6v3h-6z M2106,210h21v3h-21z M2394,210h6v3h-6z M2403,210h9v3h-9z M2415,210h9v3h-9z M2427,210h12v3h-12z M2445,210h6v3h-6z M2454,210h6v3h-6z M2523,210h6v3h-6z M2535,210h24v3h-24z M2562,210h9v3h-9z M2574,210h18v3h-18z M2679,210h9v3h-9z M2691,210h9v3h-9z M2703,210h9v3h-9z M2736,210h9v3h-9z M2748,210h18v3h-18z M2841,210h15v3h-15z M3069,210h9v3h-9z M3081,210h9v3h-9z M3093,210h3v3h-3z M99,213h12v3h-12z M159,213h42v3h-42z M207,213h6v3h-6z M291,213h6v3h-6z M300,213h12v3h-12z M315,213h3v3h-3z M606,213h6v3h-6z M615,213h36v3h-36z M759,213h39v3h-39z M831,213h6v3h-6z M906,213h9v3h-9z M918,213h30v3h-30z M951,213h42v3h-42z M996,213h12v3h-12z M1011,213h6v3h-6z M1080,213h9v3h-9z M1092,213h63v3h-63z M1248,213h36v3h-36z M1290,213h6v3h-6z M1302,213h6v3h-6z M1317,213h21v3h-21z M1428,213h6v3h-6z M1437,213h6v3h-6z M1719,213h6v3h-6z M1728,213h12v3h-12z M1746,213h6v3h-6z M1755,213h60v3h-60z M1872,213h6v3h-6z M1881,213h12v3h-12z M1896,213h9v3h-9z M1908,213h18v3h-18z M1929,213h9v3h-9z M1941,213h3v3h-3z M2037,213h24v3h-24z M2064,213h6v3h-6z M2106,213h6v3h-6z M2115,213h3v3h-3z M2121,213h6v3h-6z M2394,213h6v3h-6z M2403,213h6v3h-6z M2415,213h18v3h-18z M2436,213h24v3h-24z M2523,213h6v3h-6z M2535,213h3v3h-3z M2544,213h6v3h-6z M2553,213h18v3h-18z M2574,213h15v3h-15z M2679,213h9v3h-9z M2691,213h9v3h-9z M2703,213h9v3h-9z M2736,213h9v3h-9z M2748,213h12v3h-12z M2766,213h3v3h-3z M2841,213h6v3h-6z M2850,213h6v3h-6z M3069,213h9v3h-9z M3081,213h9v3h-9z M96,216h6v3h-6z M105,216h6v3h-6z M159,216h57v3h-57z M291,216h27v3h-27z M606,216h45v3h-45z M759,216h39v3h-39z M906,216h6v3h-6z M915,216h15v3h-15z M933,216h48v3h-48z M984,216h9v3h-9z M996,216h21v3h-21z M1077,216h3v3h-3z M1083,216h72v3h-72z M1281,216h12v3h-12z M1296,216h12v3h-12z M1425,216h18v3h-18z M1716,216h75v3h-75z M1794,216h18v3h-18z M1878,216h69v3h-69z M2037,216h6v3h-6z M2046,216h9v3h-9z M2058,216h12v3h-12z M2106,216h18v3h-18z M2397,216h48v3h-48z M2448,216h12v3h-12z M2523,216h57v3h-57z M2583,216h9v3h-9z M2679,216h33v3h-33z M2739,216h30v3h-30z M2841,216h15v3h-15z M3069,216h27v3h-27z M96,219h18v3h-18z M210,219h9v3h-9z M225,219h3v3h-3z M234,219h3v3h-3z M261,219h3v3h-3z M273,219h3v3h-3z M285,219h6v3h-6z M294,219h9v3h-9z M312,219h3v3h-3z M588,219h3v3h-3z M600,219h6v3h-6z M792,219h18v3h-18z M813,219h6v3h-6z M822,219h6v3h-6z M900,219h18v3h-18z M1017,219h6v3h-6z M1029,219h6v3h-6z M1041,219h3v3h-3z M1053,219h6v3h-6z M1065,219h3v3h-3z M1077,219h6v3h-6z M1284,219h9v3h-9z M1296,219h6v3h-6z M1305,219h3v3h-3z M1413,219h3v3h-3z M1419,219h9v3h-9z M1710,219h9v3h-9z M1812,219h6v3h-6z M1824,219h3v3h-3z M1833,219h3v3h-3z M1842,219h6v3h-6z M1854,219h6v3h-6z M1869,219h3v3h-3z M2073,219h3v3h-3z M2091,219h3v3h-3z M2097,219h12v3h-12z M2112,219h3v3h-3z M2121,219h3v3h-3z M2391,219h6v3h-6z M2460,219h3v3h-3z M2712,219h3v3h-3z M2721,219h3v3h-3z M2733,219h3v3h-3z M2835,219h3v3h-3z M2844,219h3v3h-3z M3066,219h3v3h-3z M3072,219h6v3h-6z M99,222h9v3h-9z M111,222h27v3h-27z M213,222h81v3h-81z M579,222h30v3h-30z M792,222h36v3h-36z M894,222h15v3h-15z M912,222h6v3h-6z M1017,222h66v3h-66z M1281,222h27v3h-27z M1416,222h12v3h-12z M1701,222h15v3h-15z M1812,222h66v3h-66z M2073,222h30v3h-30z M2385,222h12v3h-12z M2460,222h60v3h-60z M2712,222h12v3h-12z M2727,222h12v3h-12z M2823,222h27v3h-27z M3027,222h48v3h-48z M99,225h9v3h-9z M111,225h9v3h-9z M123,225h6v3h-6z M132,225h6v3h-6z M213,225h12v3h-12z M228,225h9v3h-9z M240,225h9v3h-9z M252,225h9v3h-9z M264,225h9v3h-9z M276,225h18v3h-18z M582,225h27v3h-27z M795,225h9v3h-9z M810,225h6v3h-6z M819,225h6v3h-6z M894,225h6v3h-6z M903,225h6v3h-6z M912,225h6v3h-6z M1020,225h12v3h-12z M1035,225h6v3h-6z M1047,225h6v3h-6z M1059,225h6v3h-6z M1068,225h9v3h-9z M1080,225h3v3h-3z M1284,225h3v3h-3z M1293,225h15v3h-15z M1413,225h6v3h-6z M1425,225h3v3h-3z M1704,225h15v3h-15z M1815,225h6v3h-6z M1824,225h9v3h-9z M1839,225h6v3h-6z M1848,225h6v3h-6z M1860,225h6v3h-6z M1869,225h9v3h-9z M2073,225h12v3h-12z M2088,225h15v3h-15z M2385,225h12v3h-12z M2463,225h9v3h-9z M2475,225h9v3h-9z M2487,225h6v3h-6z M2499,225h6v3h-6z M2508,225h12v3h-12z M2712,225h9v3h-9z M2727,225h12v3h-12z M2823,225h15v3h-15z M2841,225h6v3h-6z M3030,225h3v3h-3z M3036,225h9v3h-9z M3048,225h9v3h-9z M3060,225h15v3h-15z M96,228h6v3h-6z M105,228h33v3h-33z M213,228h33v3h-33z M249,228h6v3h-6z M261,228h12v3h-12z M276,228h9v3h-9z M288,228h9v3h-9z M555,228h3v3h-3z M579,228h6v3h-6z M588,228h9v3h-9z M603,228h6v3h-6z M795,228h33v3h-33z M894,228h24v3h-24z M1017,228h6v3h-6z M1026,228h57v3h-57z M1302,228h6v3h-6z M1407,228h3v3h-3z M1413,228h15v3h-15z M1704,228h6v3h-6z M1713,228h6v3h-6z M1812,228h9v3h-9z M1824,228h6v3h-6z M1833,228h36v3h-36z M1872,228h6v3h-6z M2073,228h30v3h-30z M2385,228h12v3h-12z M2466,228h45v3h-45z M2514,228h6v3h-6z M2712,228h6v3h-6z M2721,228h18v3h-18z M2823,228h12v3h-12z M2838,228h9v3h-9z M3030,228h3v3h-3z M3036,228h9v3h-9z M3048,228h9v3h-9z M3060,228h6v3h-6z M3069,228h6v3h-6z M96,231h18v3h-18z M117,231h24v3h-24z M213,231h6v3h-6z M222,231h6v3h-6z M234,231h12v3h-12z M249,231h21v3h-21z M273,231h12v3h-12z M288,231h6v3h-6z M579,231h6v3h-6z M588,231h21v3h-21z M795,231h3v3h-3z M804,231h6v3h-6z M816,231h3v3h-3z M822,231h6v3h-6z M837,231h3v3h-3z M849,231h3v3h-3z M858,231h6v3h-6z M867,231h6v3h-6z M876,231h6v3h-6z M885,231h6v3h-6z M1032,231h6v3h-6z M1041,231h6v3h-6z M1053,231h6v3h-6z M1065,231h6v3h-6z M1074,231h9v3h-9z M1308,231h6v3h-6z M1317,231h9v3h-9z M1329,231h9v3h-9z M1341,231h3v3h-3z M1350,231h6v3h-6z M1359,231h6v3h-6z M1368,231h18v3h-18z M1389,231h15v3h-15z M1419,231h3v3h-3z M1425,231h3v3h-3z M1827,231h3v3h-3z M1836,231h3v3h-3z M1845,231h6v3h-6z M1854,231h6v3h-6z M1866,231h3v3h-3z M2076,231h3v3h-3z M2085,231h3v3h-3z M2094,231h12v3h-12z M2112,231h3v3h-3z M2391,231h6v3h-6z M2460,231h3v3h-3z M2469,231h9v3h-9z M2481,231h9v3h-9z M2493,231h30v3h-30z M2712,231h6v3h-6z M2721,231h18v3h-18z M2823,231h24v3h-24z M3030,231h36v3h-36z M3069,231h6v3h-6z M141,234h15v3h-15z M243,234h18v3h-18z M519,234h12v3h-12z M534,234h12v3h-12z M564,234h3v3h-3z M573,234h3v3h-3z M828,234h54v3h-54z M885,234h6v3h-6z M1083,234h30v3h-30z M1308,234h36v3h-36z M1347,234h33v3h-33z M1383,234h9v3h-9z M1395,234h9v3h-9z M1665,234h36v3h-36z M1881,234h24v3h-24z M2097,234h27v3h-27z M2349,234h3v3h-3z M2355,234h9v3h-9z M2367,234h3v3h-3z M2373,234h12v3h-12z M2523,234h9v3h-9z M2535,234h12v3h-12z M2739,234h15v3h-15z M2757,234h6v3h-6z M2766,234h9v3h-9z M2778,234h6v3h-6z M2787,234h9v3h-9z M2802,234h6v3h-6z M2814,234h12v3h-12z M2832,234h6v3h-6z M2988,234h39v3h-39z M3078,234h33v3h-33z M141,237h15v3h-15z M243,237h6v3h-6z M255,237h6v3h-6z M522,237h6v3h-6z M534,237h3v3h-3z M540,237h6v3h-6z M564,237h12v3h-12z M828,237h9v3h-9z M840,237h6v3h-6z M852,237h6v3h-6z M864,237h6v3h-6z M873,237h12v3h-12z M1086,237h24v3h-24z M1311,237h12v3h-12z M1326,237h6v3h-6z M1338,237h21v3h-21z M1362,237h9v3h-9z M1374,237h6v3h-6z M1386,237h6v3h-6z M1395,237h6v3h-6z M1668,237h9v3h-9z M1680,237h6v3h-6z M1692,237h9v3h-9z M1881,237h24v3h-24z M2097,237h27v3h-27z M2352,237h33v3h-33z M2523,237h6v3h-6z M2532,237h15v3h-15z M2739,237h21v3h-21z M2763,237h21v3h-21z M2787,237h48v3h-48z M2988,237h9v3h-9z M3000,237h27v3h-27z M3078,237h18v3h-18z M3099,237h9v3h-9z M141,240h3v3h-3z M147,240h9v3h-9z M243,240h18v3h-18z M522,240h15v3h-15z M540,240h9v3h-9z M567,240h9v3h-9z M825,240h39v3h-39z M870,240h21v3h-21z M1086,240h3v3h-3z M1092,240h9v3h-9z M1107,240h6v3h-6z M1308,240h42v3h-42z M1356,240h45v3h-45z M1665,240h12v3h-12z M1680,240h9v3h-9z M1692,240h9v3h-9z M1884,240h12v3h-12z M1899,240h6v3h-6z M2097,240h3v3h-3z M2103,240h12v3h-12z M2118,240h6v3h-6z M2352,240h6v3h-6z M2364,240h18v3h-18z M2523,240h15v3h-15z M2541,240h6v3h-6z M2739,240h12v3h-12z M2754,240h6v3h-6z M2763,240h6v3h-6z M2772,240h18v3h-18z M2796,240h6v3h-6z M2808,240h9v3h-9z M2823,240h9v3h-9z M2991,240h15v3h-15z M3009,240h6v3h-6z M3018,240h9v3h-9z M3081,240h18v3h-18z M3102,240h6v3h-6z M141,243h15v3h-15z M243,243h18v3h-18z M519,243h30v3h-30z M570,243h6v3h-6z M828,243h3v3h-3z M837,243h6v3h-6z M846,243h6v3h-6z M858,243h6v3h-6z M867,243h15v3h-15z M885,243h6v3h-6z M1083,243h6v3h-6z M1092,243h21v3h-21z M1308,243h6v3h-6z M1317,243h9v3h-9z M1329,243h9v3h-9z M1341,243h45v3h-45z M1389,243h12v3h-12z M1665,243h39v3h-39z M1881,243h27v3h-27z M2097,243h27v3h-27z M2346,243h6v3h-6z M2355,243h27v3h-27z M2526,243h21v3h-21z M2739,243h39v3h-39z M2781,243h9v3h-9z M2793,243h39v3h-39z M2991,243h36v3h-36z M3078,243h33v3h-33z M156,246h6v3h-6z M165,246h3v3h-3z M261,246h3v3h-3z M273,246h3v3h-3z M279,246h6v3h-6z M288,246h3v3h-3z M495,246h3v3h-3z M507,246h3v3h-3z M513,246h6v3h-6z M564,246h3v3h-3z M588,246h3v3h-3z M597,246h3v3h-3z M603,246h6v3h-6z M858,246h12v3h-12z M963,246h51v3h-51z M1017,246h12v3h-12z M1032,246h6v3h-6z M1101,246h6v3h-6z M1113,246h6v3h-6z M1122,246h3v3h-3z M1350,246h9v3h-9z M1362,246h9v3h-9z M1401,246h9v3h-9z M1413,246h9v3h-9z M1629,246h3v3h-3z M1638,246h6v3h-6z M1647,246h9v3h-9z M1659,246h6v3h-6z M1767,246h6v3h-6z M1776,246h6v3h-6z M1788,246h6v3h-6z M1800,246h9v3h-9z M1812,246h6v3h-6z M1821,246h3v3h-3z M1893,246h9v3h-9z M1905,246h3v3h-3z M2118,246h3v3h-3z M2124,246h3v3h-3z M2130,246h3v3h-3z M2139,246h3v3h-3z M2316,246h3v3h-3z M2340,246h3v3h-3z M2361,246h3v3h-3z M2370,246h3v3h-3z M2538,246h3v3h-3z M2544,246h9v3h-9z M2742,246h3v3h-3z M2751,246h3v3h-3z M2757,246h6v3h-6z M2769,246h27v3h-27z M2802,246h6v3h-6z M2955,246h6v3h-6z M2967,246h6v3h-6z M2976,246h6v3h-6z M2985,246h6v3h-6z M3027,246h9v3h-9z M3039,246h6v3h-6z M3108,246h9v3h-9z M3120,246h3v3h-3z M156,249h12v3h-12z M261,249h39v3h-39z M495,249h24v3h-24z M564,249h9v3h-9z M576,249h48v3h-48z M852,249h9v3h-9z M864,249h6v3h-6z M963,249h15v3h-15z M984,249h9v3h-9z M996,249h9v3h-9z M1008,249h30v3h-30z M1104,249h6v3h-6z M1113,249h15v3h-15z M1350,249h21v3h-21z M1401,249h21v3h-21z M1629,249h3v3h-3z M1635,249h9v3h-9z M1647,249h18v3h-18z M1767,249h15v3h-15z M1788,249h9v3h-9z M1800,249h9v3h-9z M1812,249h15v3h-15z M1830,249h6v3h-6z M1899,249h6v3h-6z M1908,249h9v3h-9z M2121,249h12v3h-12z M2136,249h6v3h-6z M2313,249h30v3h-30z M2409,249h9v3h-9z M2421,249h12v3h-12z M2436,249h42v3h-42z M2547,249h15v3h-15z M2781,249h3v3h-3z M2787,249h9v3h-9z M2955,249h33v3h-33z M3027,249h27v3h-27z M3108,249h15v3h-15z M156,252h12v3h-12z M264,252h6v3h-6z M273,252h9v3h-9z M285,252h15v3h-15z M495,252h24v3h-24z M567,252h9v3h-9z M579,252h9v3h-9z M591,252h15v3h-15z M609,252h15v3h-15z M852,252h12v3h-12z M867,252h3v3h-3z M963,252h48v3h-48z M1014,252h9v3h-9z M1026,252h9v3h-9z M1104,252h12v3h-12z M1119,252h6v3h-6z M1356,252h18v3h-18z M1401,252h21v3h-21z M1629,252h21v3h-21z M1653,252h9v3h-9z M1767,252h57v3h-57z M1827,252h9v3h-9z M1899,252h12v3h-12z M1914,252h3v3h-3z M2121,252h3v3h-3z M2127,252h15v3h-15z M2316,252h3v3h-3z M2322,252h9v3h-9z M2334,252h6v3h-6z M2412,252h6v3h-6z M2421,252h42v3h-42z M2466,252h9v3h-9z M2547,252h6v3h-6z M2556,252h6v3h-6z M2778,252h9v3h-9z M2790,252h6v3h-6z M2958,252h18v3h-18z M2979,252h9v3h-9z M3027,252h6v3h-6z M3036,252h6v3h-6z M3048,252h6v3h-6z M3108,252h12v3h-12z M153,255h15v3h-15z M261,255h30v3h-30z M294,255h6v3h-6z M495,255h15v3h-15z M513,255h9v3h-9z M564,255h51v3h-51z M618,255h9v3h-9z M852,255h18v3h-18z M963,255h9v3h-9z M975,255h9v3h-9z M990,255h9v3h-9z M1002,255h9v3h-9z M1014,255h21v3h-21z M1107,255h9v3h-9z M1122,255h3v3h-3z M1350,255h24v3h-24z M1401,255h24v3h-24z M1629,255h36v3h-36z M1767,255h9v3h-9z M1779,255h9v3h-9z M1794,255h9v3h-9z M1806,255h9v3h-9z M1818,255h6v3h-6z M1827,255h9v3h-9z M1905,255h3v3h-3z M1914,255h3v3h-3z M2121,255h6v3h-6z M2130,255h12v3h-12z M2313,255h30v3h-30z M2412,255h12v3h-12z M2430,255h9v3h-9z M2442,255h9v3h-9z M2454,255h24v3h-24z M2547,255h6v3h-6z M2556,255h3v3h-3z M2778,255h9v3h-9z M2790,255h6v3h-6z M2955,255h36v3h-36z M3027,255h6v3h-6z M3036,255h6v3h-6z M3045,255h9v3h-9z M3108,255h15v3h-15z M156,258h3v3h-3z M165,258h6v3h-6z M261,258h3v3h-3z M270,258h6v3h-6z M279,258h6v3h-6z M288,258h12v3h-12z M495,258h3v3h-3z M504,258h15v3h-15z M564,258h3v3h-3z M573,258h6v3h-6z M585,258h9v3h-9z M600,258h27v3h-27z M852,258h3v3h-3z M858,258h15v3h-15z M876,258h6v3h-6z M888,258h3v3h-3z M948,258h3v3h-3z M954,258h3v3h-3z M963,258h24v3h-24z M990,258h27v3h-27z M1020,258h6v3h-6z M1113,258h9v3h-9z M1125,258h6v3h-6z M1137,258h3v3h-3z M1374,258h3v3h-3z M1422,258h6v3h-6z M1629,258h3v3h-3z M1659,258h9v3h-9z M1671,258h6v3h-6z M1683,258h3v3h-3z M1758,258h3v3h-3z M1764,258h12v3h-12z M1779,258h48v3h-48z M1833,258h3v3h-3z M1908,258h12v3h-12z M2136,258h6v3h-6z M2313,258h9v3h-9z M2328,258h6v3h-6z M2340,258h3v3h-3z M2409,258h15v3h-15z M2427,258h12v3h-12z M2442,258h27v3h-27z M2472,258h3v3h-3z M2547,258h9v3h-9z M2784,258h9v3h-9z M2964,258h3v3h-3z M2973,258h6v3h-6z M2985,258h6v3h-6z M3027,258h21v3h-21z M3051,258h3v3h-3z M3111,258h12v3h-12z M168,261h9v3h-9z M180,261h3v3h-3z M291,261h54v3h-54z M348,261h9v3h-9z M459,261h6v3h-6z M468,261h24v3h-24z M510,261h12v3h-12z M615,261h6v3h-6z M624,261h12v3h-12z M639,261h3v3h-3z M870,261h21v3h-21z M948,261h3v3h-3z M954,261h12v3h-12z M969,261h9v3h-9z M981,261h12v3h-12z M996,261h9v3h-9z M1008,261h18v3h-18z M1113,261h27v3h-27z M1374,261h12v3h-12z M1422,261h42v3h-42z M1467,261h6v3h-6z M1590,261h39v3h-39z M1662,261h27v3h-27z M1746,261h6v3h-6z M1755,261h15v3h-15z M1773,261h9v3h-9z M1788,261h9v3h-9z M1800,261h9v3h-9z M1812,261h6v3h-6z M1821,261h3v3h-3z M1905,261h9v3h-9z M1917,261h9v3h-9z M1929,261h3v3h-3z M2142,261h24v3h-24z M2169,261h6v3h-6z M2268,261h6v3h-6z M2277,261h24v3h-24z M2304,261h12v3h-12z M2397,261h3v3h-3z M2403,261h42v3h-42z M2448,261h6v3h-6z M2457,261h6v3h-6z M2547,261h9v3h-9z M2559,261h15v3h-15z M2790,261h27v3h-27z M2865,261h3v3h-3z M2874,261h6v3h-6z M2886,261h6v3h-6z M2898,261h9v3h-9z M2910,261h9v3h-9z M2925,261h12v3h-12z M2940,261h12v3h-12z M3030,261h9v3h-9z M3042,261h21v3h-21z M3066,261h3v3h-3z M168,264h15v3h-15z M291,264h6v3h-6z M300,264h9v3h-9z M312,264h33v3h-33z M348,264h6v3h-6z M459,264h12v3h-12z M474,264h15v3h-15z M510,264h6v3h-6z M519,264h12v3h-12z M615,264h6v3h-6z M624,264h12v3h-12z M639,264h3v3h-3z M870,264h21v3h-21z M948,264h3v3h-3z M954,264h12v3h-12z M969,264h9v3h-9z M981,264h12v3h-12z M996,264h27v3h-27z M1122,264h3v3h-3z M1131,264h3v3h-3z M1374,264h3v3h-3z M1380,264h6v3h-6z M1422,264h6v3h-6z M1431,264h9v3h-9z M1443,264h30v3h-30z M1593,264h9v3h-9z M1608,264h9v3h-9z M1620,264h9v3h-9z M1662,264h12v3h-12z M1677,264h6v3h-6z M1686,264h3v3h-3z M1749,264h6v3h-6z M1761,264h9v3h-9z M1773,264h9v3h-9z M1785,264h39v3h-39z M1908,264h21v3h-21z M2142,264h18v3h-18z M2166,264h6v3h-6z M2271,264h12v3h-12z M2286,264h6v3h-6z M2295,264h18v3h-18z M2397,264h12v3h-12z M2412,264h6v3h-6z M2424,264h6v3h-6z M2436,264h9v3h-9z M2448,264h6v3h-6z M2460,264h3v3h-3z M2547,264h3v3h-3z M2556,264h12v3h-12z M2571,264h3v3h-3z M2793,264h18v3h-18z M2865,264h72v3h-72z M2940,264h6v3h-6z M3027,264h12v3h-12z M3045,264h6v3h-6z M3057,264h6v3h-6z M3066,264h3v3h-3z M171,267h18v3h-18z M291,267h30v3h-30z M324,267h24v3h-24z M351,267h3v3h-3z M459,267h12v3h-12z M474,267h18v3h-18z M510,267h21v3h-21z M615,267h12v3h-12z M630,267h12v3h-12z M867,267h24v3h-24z M948,267h63v3h-63z M1014,267h9v3h-9z M1116,267h3v3h-3z M1122,267h12v3h-12z M1137,267h3v3h-3z M1374,267h3v3h-3z M1380,267h6v3h-6z M1422,267h6v3h-6z M1431,267h12v3h-12z M1446,267h12v3h-12z M1461,267h12v3h-12z M1593,267h9v3h-9z M1605,267h24v3h-24z M1662,267h27v3h-27z M1749,267h75v3h-75z M1908,267h3v3h-3z M1914,267h6v3h-6z M1926,267h3v3h-3z M2142,267h30v3h-30z M2271,267h21v3h-21z M2295,267h9v3h-9z M2307,267h9v3h-9z M2397,267h6v3h-6z M2406,267h57v3h-57z M2550,267h12v3h-12z M2565,267h6v3h-6z M2793,267h24v3h-24z M2865,267h9v3h-9z M2880,267h9v3h-9z M2892,267h9v3h-9z M2904,267h9v3h-9z M2919,267h9v3h-9z M2931,267h15v3h-15z M3027,267h6v3h-6z M3036,267h33v3h-33z M168,270h21v3h-21z M291,270h3v3h-3z M297,270h24v3h-24z M324,270h33v3h-33z M459,270h24v3h-24z M486,270h6v3h-6z M510,270h12v3h-12z M525,270h6v3h-6z M615,270h27v3h-27z M870,270h3v3h-3z M876,270h15v3h-15z M948,270h9v3h-9z M963,270h9v3h-9z M975,270h9v3h-9z M990,270h9v3h-9z M1002,270h9v3h-9z M1014,270h12v3h-12z M1122,270h18v3h-18z M1374,270h12v3h-12z M1422,270h54v3h-54z M1593,270h36v3h-36z M1662,270h3v3h-3z M1671,270h18v3h-18z M1746,270h6v3h-6z M1755,270h9v3h-9z M1767,270h9v3h-9z M1782,270h6v3h-6z M1794,270h9v3h-9z M1806,270h9v3h-9z M1818,270h6v3h-6z M1911,270h18v3h-18z M2142,270h6v3h-6z M2151,270h15v3h-15z M2169,270h3v3h-3z M2268,270h9v3h-9z M2280,270h6v3h-6z M2289,270h27v3h-27z M2397,270h6v3h-6z M2406,270h6v3h-6z M2418,270h6v3h-6z M2430,270h9v3h-9z M2442,270h9v3h-9z M2454,270h9v3h-9z M2550,270h21v3h-21z M2793,270h15v3h-15z M2811,270h6v3h-6z M2865,270h24v3h-24z M2892,270h9v3h-9z M2904,270h39v3h-39z M2946,270h6v3h-6z M3027,270h18v3h-18z M3048,270h9v3h-9z M3060,270h12v3h-12z M180,273h6v3h-6z M189,273h3v3h-3z M195,273h3v3h-3z M201,273h3v3h-3z M312,273h15v3h-15z M348,273h36v3h-36z M387,273h9v3h-9z M399,273h9v3h-9z M411,273h9v3h-9z M423,273h9v3h-9z M435,273h6v3h-6z M447,273h15v3h-15z M519,273h15v3h-15z M639,273h3v3h-3z M891,273h12v3h-12z M927,273h87v3h-87z M1131,273h3v3h-3z M1386,273h12v3h-12z M1413,273h12v3h-12z M1476,273h9v3h-9z M1491,273h6v3h-6z M1500,273h6v3h-6z M1512,273h6v3h-6z M1521,273h9v3h-9z M1533,273h9v3h-9z M1548,273h12v3h-12z M1563,273h12v3h-12z M1578,273h12v3h-12z M1689,273h6v3h-6z M1698,273h3v3h-3z M1731,273h3v3h-3z M1743,273h6v3h-6z M1755,273h54v3h-54z M2181,273h6v3h-6z M2190,273h3v3h-3z M2211,273h6v3h-6z M2223,273h3v3h-3z M2229,273h15v3h-15z M2250,273h3v3h-3z M2256,273h3v3h-3z M2265,273h3v3h-3z M2373,273h24v3h-24z M2400,273h54v3h-54z M2817,273h6v3h-6z M2829,273h3v3h-3z M2850,273h3v3h-3z M2862,273h9v3h-9z M2874,273h9v3h-9z M2886,273h33v3h-33z M2922,273h12v3h-12z M3027,273h18v3h-18z M3048,273h24v3h-24z M180,276h6v3h-6z M189,276h15v3h-15z M312,276h15v3h-15z M348,276h111v3h-111z M522,276h12v3h-12z M891,276h12v3h-12z M933,276h18v3h-18z M954,276h9v3h-9z M969,276h9v3h-9z M981,276h12v3h-12z M996,276h9v3h-9z M1008,276h6v3h-6z M1131,276h3v3h-3z M1386,276h12v3h-12z M1413,276h12v3h-12z M1476,276h114v3h-114z M1689,276h12v3h-12z M1731,276h3v3h-3z M1737,276h21v3h-21z M1761,276h9v3h-9z M1773,276h9v3h-9z M1788,276h9v3h-9z M1800,276h9v3h-9z M2181,276h6v3h-6z M2190,276h6v3h-6z M2211,276h6v3h-6z M2220,276h39v3h-39z M2262,276h6v3h-6z M2373,276h9v3h-9z M2385,276h9v3h-9z M2400,276h6v3h-6z M2412,276h6v3h-6z M2424,276h9v3h-9z M2436,276h9v3h-9z M2448,276h6v3h-6z M2817,276h18v3h-18z M2850,276h18v3h-18z M2874,276h9v3h-9z M2886,276h9v3h-9z M2898,276h9v3h-9z M2910,276h9v3h-9z M2925,276h9v3h-9z M3027,276h24v3h-24z M3054,276h9v3h-9z M3066,276h3v3h-3z M180,279h6v3h-6z M189,279h6v3h-6z M198,279h6v3h-6z M312,279h6v3h-6z M321,279h6v3h-6z M348,279h6v3h-6z M357,279h12v3h-12z M372,279h9v3h-9z M384,279h6v3h-6z M393,279h9v3h-9z M408,279h9v3h-9z M420,279h9v3h-9z M432,279h6v3h-6z M441,279h21v3h-21z M522,279h6v3h-6z M531,279h3v3h-3z M891,279h6v3h-6z M900,279h6v3h-6z M930,279h15v3h-15z M948,279h18v3h-18z M969,279h9v3h-9z M981,279h12v3h-12z M996,279h9v3h-9z M1386,279h6v3h-6z M1395,279h3v3h-3z M1413,279h3v3h-3z M1419,279h6v3h-6z M1479,279h3v3h-3z M1485,279h6v3h-6z M1497,279h6v3h-6z M1506,279h9v3h-9z M1518,279h6v3h-6z M1530,279h6v3h-6z M1542,279h9v3h-9z M1557,279h9v3h-9z M1569,279h12v3h-12z M1584,279h6v3h-6z M1692,279h9v3h-9z M1731,279h12v3h-12z M1749,279h9v3h-9z M1761,279h9v3h-9z M1773,279h12v3h-12z M1788,279h9v3h-9z M1800,279h9v3h-9z M2184,279h9v3h-9z M2217,279h6v3h-6z M2226,279h6v3h-6z M2235,279h6v3h-6z M2247,279h9v3h-9z M2259,279h6v3h-6z M2376,279h15v3h-15z M2394,279h39v3h-39z M2436,279h9v3h-9z M2448,279h6v3h-6z M2817,279h15v3h-15z M2853,279h9v3h-9z M2868,279h63v3h-63z M3033,279h6v3h-6z M3042,279h30v3h-30z M186,282h9v3h-9z M198,282h6v3h-6z M312,282h15v3h-15z M354,282h108v3h-108z M522,282h3v3h-3z M528,282h6v3h-6z M891,282h15v3h-15z M927,282h18v3h-18z M948,282h9v3h-9z M963,282h9v3h-9z M975,282h24v3h-24z M1002,282h9v3h-9z M1389,282h12v3h-12z M1413,282h12v3h-12z M1476,282h114v3h-114z M1689,282h12v3h-12z M1731,282h6v3h-6z M1740,282h63v3h-63z M1806,282h6v3h-6z M2184,282h9v3h-9z M2211,282h12v3h-12z M2226,282h39v3h-39z M2373,282h27v3h-27z M2406,282h6v3h-6z M2415,282h24v3h-24z M2442,282h12v3h-12z M2820,282h3v3h-3z M2826,282h9v3h-9z M2850,282h12v3h-12z M2868,282h9v3h-9z M2880,282h9v3h-9z M2892,282h9v3h-9z M2904,282h9v3h-9z M2916,282h18v3h-18z M3027,282h6v3h-6z M3036,282h21v3h-21z M3060,282h9v3h-9z M183,285h21v3h-21z M312,285h3v3h-3z M321,285h9v3h-9z M339,285h3v3h-3z M390,285h3v3h-3z M402,285h3v3h-3z M414,285h6v3h-6z M429,285h3v3h-3z M438,285h3v3h-3z M447,285h3v3h-3z M456,285h3v3h-3z M528,285h6v3h-6z M891,285h9v3h-9z M906,285h3v3h-3z M930,285h27v3h-27z M963,285h9v3h-9z M975,285h9v3h-9z M990,285h9v3h-9z M1389,285h9v3h-9z M1491,285h3v3h-3z M1503,285h3v3h-3z M1515,285h3v3h-3z M1524,285h6v3h-6z M1536,285h6v3h-6z M1548,285h6v3h-6z M1566,285h3v3h-3z M1689,285h3v3h-3z M1698,285h6v3h-6z M1713,285h3v3h-3z M1731,285h6v3h-6z M1740,285h12v3h-12z M1755,285h9v3h-9z M1767,285h9v3h-9z M1782,285h9v3h-9z M1794,285h9v3h-9z M2181,285h6v3h-6z M2190,285h6v3h-6z M2211,285h24v3h-24z M2241,285h9v3h-9z M2253,285h15v3h-15z M2373,285h3v3h-3z M2379,285h6v3h-6z M2388,285h12v3h-12z M2403,285h9v3h-9z M2418,285h6v3h-6z M2430,285h9v3h-9z M2442,285h12v3h-12z M2820,285h15v3h-15z M2850,285h39v3h-39z M2892,285h9v3h-9z M2904,285h30v3h-30z M3036,285h6v3h-6z M3048,285h6v3h-6z M3060,285h9v3h-9z M180,288h6v3h-6z M192,288h15v3h-15z M330,288h12v3h-12z M534,288h12v3h-12z M903,288h15v3h-15z M921,288h6v3h-6z M954,288h45v3h-45z M1386,288h12v3h-12z M1428,288h18v3h-18z M1701,288h27v3h-27z M1746,288h51v3h-51z M2196,288h15v3h-15z M2397,288h9v3h-9z M2409,288h33v3h-33z M2823,288h3v3h-3z M2835,288h15v3h-15z M2865,288h6v3h-6z M2874,288h9v3h-9z M2886,288h9v3h-9z M2898,288h9v3h-9z M2910,288h9v3h-9z M3042,288h21v3h-21z M3066,288h3v3h-3z M168,291h27v3h-27z M204,291h12v3h-12z M330,291h6v3h-6z M339,291h3v3h-3z M534,291h6v3h-6z M543,291h3v3h-3z M900,291h6v3h-6z M912,291h9v3h-9z M924,291h3v3h-3z M954,291h12v3h-12z M969,291h9v3h-9z M981,291h9v3h-9z M996,291h3v3h-3z M1386,291h3v3h-3z M1395,291h6v3h-6z M1428,291h9v3h-9z M1701,291h15v3h-15z M1719,291h6v3h-6z M1749,291h9v3h-9z M1761,291h9v3h-9z M1773,291h9v3h-9z M1788,291h9v3h-9z M2199,291h9v3h-9z M2397,291h9v3h-9z M2412,291h6v3h-6z M2424,291h9v3h-9z M2436,291h6v3h-6z M2835,291h15v3h-15z M2868,291h12v3h-12z M2886,291h9v3h-9z M2898,291h9v3h-9z M2910,291h6v3h-6z M3042,291h6v3h-6z M3054,291h9v3h-9z M3066,291h6v3h-6z M171,294h12v3h-12z M186,294h9v3h-9z M201,294h6v3h-6z M213,294h3v3h-3z M330,294h3v3h-3z M336,294h6v3h-6z M534,294h12v3h-12z M903,294h9v3h-9z M915,294h6v3h-6z M924,294h3v3h-3z M951,294h6v3h-6z M963,294h36v3h-36z M1386,294h15v3h-15z M1428,294h9v3h-9z M1704,294h21v3h-21z M1746,294h51v3h-51z M2196,294h3v3h-3z M2205,294h6v3h-6z M2397,294h3v3h-3z M2406,294h33v3h-33z M2835,294h9v3h-9z M2847,294h3v3h-3z M2868,294h15v3h-15z M2886,294h33v3h-33z M3042,294h15v3h-15z M3060,294h9v3h-9z M171,297h24v3h-24z M201,297h15v3h-15z M330,297h12v3h-12z M534,297h12v3h-12z M903,297h9v3h-9z M915,297h12v3h-12z M951,297h6v3h-6z M963,297h9v3h-9z M975,297h9v3h-9z M990,297h9v3h-9z M1386,297h9v3h-9z M1428,297h15v3h-15z M1704,297h6v3h-6z M1713,297h15v3h-15z M1746,297h6v3h-6z M1755,297h21v3h-21z M1782,297h6v3h-6z M1794,297h3v3h-3z M2196,297h6v3h-6z M2205,297h6v3h-6z M2397,297h3v3h-3z M2406,297h6v3h-6z M2418,297h9v3h-9z M2430,297h12v3h-12z M2835,297h15v3h-15z M2865,297h9v3h-9z M2880,297h9v3h-9z M2892,297h9v3h-9z M2904,297h15v3h-15z M3042,297h3v3h-3z M3048,297h15v3h-15z M3066,297h3v3h-3z M147,300h9v3h-9z M162,300h9v3h-9z M174,300h12v3h-12z M210,300h15v3h-15z M345,300h3v3h-3z M354,300h3v3h-3z M534,300h3v3h-3z M543,300h3v3h-3z M870,300h3v3h-3z M876,300h6v3h-6z M888,300h6v3h-6z M900,300h3v3h-3z M927,300h15v3h-15z M1371,300h27v3h-27z M1443,300h3v3h-3z M1452,300h3v3h-3z M1662,300h3v3h-3z M1671,300h6v3h-6z M1683,300h18v3h-18z M1722,300h6v3h-6z M2814,300h6v3h-6z M2826,300h6v3h-6z M2850,300h3v3h-3z M2856,300h6v3h-6z M3057,300h6v3h-6z M3066,300h6v3h-6z M147,303h9v3h-9z M162,303h15v3h-15z M180,303h9v3h-9z M210,303h6v3h-6z M219,303h6v3h-6z M345,303h6v3h-6z M354,303h3v3h-3z M522,303h33v3h-33z M867,303h6v3h-6z M876,303h9v3h-9z M888,303h9v3h-9z M900,303h3v3h-3z M927,303h9v3h-9z M939,303h3v3h-3z M1362,303h3v3h-3z M1368,303h21v3h-21z M1392,303h9v3h-9z M1443,303h9v3h-9z M1662,303h3v3h-3z M1671,303h9v3h-9z M1683,303h6v3h-6z M1692,303h9v3h-9z M1722,303h3v3h-3z M1728,303h9v3h-9z M2163,303h18v3h-18z M2184,303h9v3h-9z M2214,303h6v3h-6z M2223,303h3v3h-3z M2373,303h9v3h-9z M2793,303h15v3h-15z M2811,303h12v3h-12z M2826,303h6v3h-6z M2850,303h12v3h-12z M3060,303h9v3h-9z M138,306h27v3h-27z M168,306h9v3h-9z M180,306h9v3h-9z M210,306h15v3h-15z M345,306h12v3h-12z M522,306h12v3h-12z M540,306h6v3h-6z M549,306h6v3h-6z M870,306h9v3h-9z M882,306h21v3h-21z M927,306h15v3h-15z M1362,306h27v3h-27z M1392,306h9v3h-9z M1443,306h15v3h-15z M1662,306h9v3h-9z M1674,306h9v3h-9z M1689,306h12v3h-12z M1722,306h18v3h-18z M2157,306h6v3h-6z M2166,306h27v3h-27z M2214,306h6v3h-6z M2373,306h6v3h-6z M2796,306h36v3h-36z M2850,306h12v3h-12z M3060,306h9v3h-9z M138,309h12v3h-12z M153,309h36v3h-36z M210,309h15v3h-15z M345,309h12v3h-12z M522,309h24v3h-24z M549,309h6v3h-6z M870,309h9v3h-9z M882,309h9v3h-9z M894,309h9v3h-9z M927,309h15v3h-15z M1362,309h36v3h-36z M1443,309h6v3h-6z M1452,309h6v3h-6z M1662,309h36v3h-36z M1719,309h21v3h-21z M2154,309h9v3h-9z M2166,309h9v3h-9z M2178,309h9v3h-9z M2190,309h3v3h-3z M2214,309h12v3h-12z M2376,309h6v3h-6z M2793,309h9v3h-9z M2805,309h9v3h-9z M2820,309h9v3h-9z M2850,309h3v3h-3z M2856,309h6v3h-6z M3060,309h9v3h-9z M138,312h33v3h-33z M174,312h9v3h-9z M219,312h24v3h-24z M249,312h6v3h-6z M258,312h3v3h-3z M345,312h3v3h-3z M351,312h6v3h-6z M522,312h6v3h-6z M531,312h9v3h-9z M543,312h12v3h-12z M861,312h42v3h-42z M1359,312h9v3h-9z M1371,312h12v3h-12z M1386,312h9v3h-9z M1455,312h3v3h-3z M1659,312h6v3h-6z M1668,312h9v3h-9z M1683,312h9v3h-9z M1698,312h3v3h-3z M1731,312h9v3h-9z M2154,312h18v3h-18z M2175,312h12v3h-12z M2190,312h3v3h-3z M2214,312h3v3h-3z M2220,312h6v3h-6z M2373,312h9v3h-9z M2793,312h39v3h-39z M2850,312h3v3h-3z M2856,312h6v3h-6z M3060,312h3v3h-3z M3066,312h3v3h-3z M126,315h3v3h-3z M135,315h6v3h-6z M147,315h9v3h-9z M159,315h30v3h-30z M222,315h6v3h-6z M231,315h30v3h-30z M357,315h9v3h-9z M369,315h48v3h-48z M420,315h6v3h-6z M522,315h6v3h-6z M531,315h6v3h-6z M540,315h9v3h-9z M552,315h3v3h-3z M855,315h18v3h-18z M876,315h9v3h-9z M888,315h9v3h-9z M900,315h3v3h-3z M942,315h24v3h-24z M969,315h9v3h-9z M1347,315h18v3h-18z M1368,315h33v3h-33z M1458,315h51v3h-51z M1512,315h6v3h-6z M1524,315h6v3h-6z M1650,315h3v3h-3z M1656,315h9v3h-9z M1668,315h33v3h-33z M1740,315h36v3h-36z M2142,315h3v3h-3z M2151,315h6v3h-6z M2160,315h9v3h-9z M2172,315h21v3h-21z M2223,315h12v3h-12z M2238,315h6v3h-6z M2247,315h6v3h-6z M2259,315h3v3h-3z M2382,315h39v3h-39z M2787,315h9v3h-9z M2799,315h9v3h-9z M2811,315h12v3h-12z M2826,315h6v3h-6z M2862,315h18v3h-18z M2883,315h18v3h-18z M126,318h39v3h-39z M168,318h9v3h-9z M180,318h9v3h-9z M222,318h6v3h-6z M231,318h18v3h-18z M252,318h9v3h-9z M357,318h15v3h-15z M375,318h12v3h-12z M390,318h6v3h-6z M399,318h9v3h-9z M411,318h15v3h-15z M522,318h15v3h-15z M540,318h15v3h-15z M855,318h6v3h-6z M864,318h15v3h-15z M882,318h21v3h-21z M942,318h6v3h-6z M951,318h6v3h-6z M960,318h15v3h-15z M1350,318h15v3h-15z M1368,318h9v3h-9z M1380,318h9v3h-9z M1392,318h9v3h-9z M1455,318h21v3h-21z M1479,318h9v3h-9z M1494,318h36v3h-36z M1650,318h36v3h-36z M1689,318h12v3h-12z M1740,318h33v3h-33z M2142,318h36v3h-36z M2184,318h9v3h-9z M2223,318h39v3h-39z M2385,318h36v3h-36z M2781,318h51v3h-51z M2862,318h39v3h-39z M126,321h9v3h-9z M141,321h9v3h-9z M153,321h12v3h-12z M168,321h18v3h-18z M225,321h9v3h-9z M240,321h9v3h-9z M252,321h12v3h-12z M357,321h15v3h-15z M375,321h9v3h-9z M390,321h6v3h-6z M402,321h6v3h-6z M414,321h3v3h-3z M423,321h3v3h-3z M522,321h33v3h-33z M855,321h24v3h-24z M882,321h9v3h-9z M894,321h9v3h-9z M942,321h6v3h-6z M951,321h21v3h-21z M975,321h3v3h-3z M1350,321h51v3h-51z M1458,321h30v3h-30z M1494,321h6v3h-6z M1506,321h6v3h-6z M1518,321h6v3h-6z M1527,321h3v3h-3z M1650,321h9v3h-9z M1662,321h9v3h-9z M1674,321h12v3h-12z M1689,321h9v3h-9z M1740,321h24v3h-24z M1767,321h9v3h-9z M2142,321h6v3h-6z M2151,321h42v3h-42z M2226,321h12v3h-12z M2241,321h9v3h-9z M2253,321h9v3h-9z M2385,321h9v3h-9z M2400,321h6v3h-6z M2412,321h9v3h-9z M2781,321h9v3h-9z M2793,321h9v3h-9z M2805,321h9v3h-9z M2820,321h12v3h-12z M2865,321h9v3h-9z M2880,321h9v3h-9z M2892,321h6v3h-6z M123,324h12v3h-12z M138,324h51v3h-51z M225,324h30v3h-30z M258,324h18v3h-18z M360,324h18v3h-18z M381,324h9v3h-9z M393,324h9v3h-9z M405,324h27v3h-27z M522,324h9v3h-9z M537,324h9v3h-9z M549,324h6v3h-6z M858,324h21v3h-21z M882,324h9v3h-9z M894,324h9v3h-9z M942,324h21v3h-21z M966,324h12v3h-12z M1350,324h9v3h-9z M1362,324h9v3h-9z M1374,324h9v3h-9z M1386,324h9v3h-9z M1455,324h15v3h-15z M1473,324h9v3h-9z M1485,324h12v3h-12z M1500,324h36v3h-36z M1641,324h3v3h-3z M1647,324h54v3h-54z M1740,324h3v3h-3z M1746,324h9v3h-9z M1758,324h18v3h-18z M2142,324h6v3h-6z M2151,324h12v3h-12z M2166,324h6v3h-6z M2178,324h9v3h-9z M2190,324h3v3h-3z M2229,324h33v3h-33z M2385,324h36v3h-36z M2781,324h9v3h-9z M2793,324h39v3h-39z M2865,324h36v3h-36z M123,327h6v3h-6z M132,327h12v3h-12z M147,327h12v3h-12z M162,327h9v3h-9z M174,327h9v3h-9z M222,327h6v3h-6z M234,327h9v3h-9z M246,327h9v3h-9z M258,327h18v3h-18z M357,327h33v3h-33z M396,327h6v3h-6z M408,327h6v3h-6z M417,327h15v3h-15z M438,327h3v3h-3z M522,327h33v3h-33z M849,327h15v3h-15z M867,327h9v3h-9z M879,327h6v3h-6z M891,327h12v3h-12z M942,327h9v3h-9z M954,327h12v3h-12z M969,327h6v3h-6z M981,327h3v3h-3z M1347,327h54v3h-54z M1455,327h12v3h-12z M1470,327h12v3h-12z M1485,327h9v3h-9z M1500,327h6v3h-6z M1512,327h6v3h-6z M1521,327h15v3h-15z M1641,327h24v3h-24z M1668,327h9v3h-9z M1683,327h9v3h-9z M1695,327h6v3h-6z M1740,327h15v3h-15z M1758,327h9v3h-9z M1773,327h6v3h-6z M2130,327h24v3h-24z M2157,327h36v3h-36z M2223,327h9v3h-9z M2235,327h9v3h-9z M2247,327h9v3h-9z M2259,327h3v3h-3z M2385,327h3v3h-3z M2391,327h9v3h-9z M2406,327h9v3h-9z M2418,327h6v3h-6z M2772,327h12v3h-12z M2787,327h9v3h-9z M2802,327h6v3h-6z M2814,327h9v3h-9z M2826,327h6v3h-6z M2862,327h9v3h-9z M2874,327h9v3h-9z M2886,327h9v3h-9z M2898,327h6v3h-6z M123,330h6v3h-6z M132,330h12v3h-12z M147,330h12v3h-12z M162,330h24v3h-24z M222,330h39v3h-39z M264,330h12v3h-12z M357,330h6v3h-6z M366,330h9v3h-9z M378,330h6v3h-6z M435,330h6v3h-6z M522,330h3v3h-3z M528,330h9v3h-9z M543,330h6v3h-6z M843,330h6v3h-6z M852,330h51v3h-51z M942,330h24v3h-24z M969,330h21v3h-21z M1347,330h3v3h-3z M1356,330h9v3h-9z M1368,330h9v3h-9z M1380,330h12v3h-12z M1395,330h6v3h-6z M1458,330h18v3h-18z M1479,330h6v3h-6z M1536,330h6v3h-6z M1641,330h12v3h-12z M1656,330h9v3h-9z M1668,330h33v3h-33z M1740,330h48v3h-48z M2130,330h12v3h-12z M2148,330h21v3h-21z M2172,330h9v3h-9z M2184,330h9v3h-9z M2223,330h51v3h-51z M2382,330h51v3h-51z M2772,330h51v3h-51z M2826,330h6v3h-6z M2862,330h21v3h-21z M2886,330h9v3h-9z M2898,330h15v3h-15z M123,333h66v3h-66z M222,333h15v3h-15z M240,333h9v3h-9z M252,333h12v3h-12z M267,333h12v3h-12z M282,333h3v3h-3z M360,333h9v3h-9z M372,333h12v3h-12z M435,333h6v3h-6z M522,333h15v3h-15z M543,333h12v3h-12z M846,333h24v3h-24z M873,333h9v3h-9z M885,333h9v3h-9z M900,333h3v3h-3z M942,333h18v3h-18z M963,333h27v3h-27z M1347,333h30v3h-30z M1380,333h21v3h-21z M1458,333h15v3h-15z M1476,333h9v3h-9z M1539,333h3v3h-3z M1641,333h42v3h-42z M1689,333h6v3h-6z M1740,333h9v3h-9z M1752,333h9v3h-9z M1764,333h9v3h-9z M1776,333h9v3h-9z M2133,333h18v3h-18z M2154,333h36v3h-36z M2229,333h9v3h-9z M2241,333h9v3h-9z M2253,333h21v3h-21z M2385,333h9v3h-9z M2400,333h9v3h-9z M2412,333h9v3h-9z M2424,333h9v3h-9z M2772,333h9v3h-9z M2784,333h6v3h-6z M2796,333h6v3h-6z M2808,333h9v3h-9z M2820,333h9v3h-9z M2865,333h48v3h-48z M126,336h9v3h-9z M141,336h9v3h-9z M153,336h12v3h-12z M168,336h21v3h-21z M228,336h9v3h-9z M240,336h42v3h-42z M357,336h27v3h-27z M522,336h33v3h-33z M846,336h9v3h-9z M858,336h30v3h-30z M894,336h9v3h-9z M942,336h6v3h-6z M951,336h9v3h-9z M963,336h9v3h-9z M975,336h6v3h-6z M984,336h6v3h-6z M1350,336h9v3h-9z M1362,336h9v3h-9z M1374,336h24v3h-24z M1458,336h24v3h-24z M1638,336h6v3h-6z M1650,336h9v3h-9z M1662,336h9v3h-9z M1674,336h12v3h-12z M1689,336h12v3h-12z M1740,336h15v3h-15z M1758,336h9v3h-9z M1770,336h18v3h-18z M2130,336h6v3h-6z M2142,336h9v3h-9z M2154,336h9v3h-9z M2166,336h9v3h-9z M2178,336h15v3h-15z M2226,336h36v3h-36z M2265,336h9v3h-9z M2385,336h24v3h-24z M2412,336h9v3h-9z M2427,336h6v3h-6z M2772,336h33v3h-33z M2808,336h9v3h-9z M2820,336h12v3h-12z M2868,336h9v3h-9z M2880,336h9v3h-9z M2892,336h9v3h-9z M2907,336h6v3h-6z M123,339h54v3h-54z M222,339h36v3h-36z M261,339h9v3h-9z M276,339h12v3h-12z M357,339h6v3h-6z M366,339h9v3h-9z M381,339h6v3h-6z M519,339h9v3h-9z M531,339h12v3h-12z M843,339h33v3h-33z M879,339h24v3h-24z M942,339h51v3h-51z M1347,339h24v3h-24z M1374,339h9v3h-9z M1389,339h9v3h-9z M1458,339h9v3h-9z M1470,339h9v3h-9z M1638,339h6v3h-6z M1647,339h42v3h-42z M1698,339h3v3h-3z M1740,339h15v3h-15z M1758,339h9v3h-9z M1770,339h9v3h-9z M1782,339h6v3h-6z M2130,339h3v3h-3z M2136,339h39v3h-39z M2178,339h6v3h-6z M2187,339h6v3h-6z M2223,339h9v3h-9z M2235,339h9v3h-9z M2247,339h27v3h-27z M2382,339h6v3h-6z M2391,339h42v3h-42z M2772,339h60v3h-60z M2862,339h51v3h-51z M123,342h6v3h-6z M135,342h6v3h-6z M147,342h9v3h-9z M162,342h9v3h-9z M222,342h9v3h-9z M234,342h9v3h-9z M246,342h42v3h-42z M369,342h12v3h-12z M522,342h15v3h-15z M540,342h3v3h-3z M843,342h6v3h-6z M852,342h9v3h-9z M864,342h12v3h-12z M879,342h6v3h-6z M888,342h3v3h-3z M942,342h12v3h-12z M957,342h9v3h-9z M972,342h6v3h-6z M981,342h24v3h-24z M1347,342h3v3h-3z M1356,342h9v3h-9z M1368,342h33v3h-33z M1464,342h15v3h-15z M1641,342h9v3h-9z M1653,342h12v3h-12z M1668,342h9v3h-9z M1683,342h6v3h-6z M1740,342h3v3h-3z M1746,342h9v3h-9z M1758,342h15v3h-15z M1776,342h24v3h-24z M2130,342h3v3h-3z M2136,342h6v3h-6z M2148,342h6v3h-6z M2160,342h9v3h-9z M2172,342h9v3h-9z M2226,342h6v3h-6z M2235,342h9v3h-9z M2247,342h9v3h-9z M2259,342h9v3h-9z M2271,342h9v3h-9z M2286,342h3v3h-3z M2382,342h6v3h-6z M2394,342h6v3h-6z M2406,342h9v3h-9z M2421,342h6v3h-6z M2433,342h6v3h-6z M2772,342h9v3h-9z M2787,342h9v3h-9z M2802,342h6v3h-6z M2814,342h6v3h-6z M2862,342h9v3h-9z M2874,342h9v3h-9z M2886,342h9v3h-9z M2898,342h21v3h-21z M2922,342h6v3h-6z M123,345h6v3h-6z M132,345h12v3h-12z M147,345h27v3h-27z M225,345h39v3h-39z M267,345h12v3h-12z M282,345h3v3h-3z M369,345h12v3h-12z M528,345h6v3h-6z M540,345h3v3h-3z M846,345h24v3h-24z M873,345h9v3h-9z M885,345h6v3h-6z M942,345h60v3h-60z M1347,345h3v3h-3z M1353,345h12v3h-12z M1368,345h9v3h-9z M1380,345h12v3h-12z M1395,345h6v3h-6z M1461,345h9v3h-9z M1473,345h6v3h-6z M1641,345h9v3h-9z M1653,345h12v3h-12z M1668,345h21v3h-21z M1740,345h21v3h-21z M1764,345h9v3h-9z M1776,345h9v3h-9z M1788,345h12v3h-12z M2130,345h39v3h-39z M2172,345h9v3h-9z M2226,345h24v3h-24z M2253,345h36v3h-36z M2388,345h57v3h-57z M2772,345h48v3h-48z M2865,345h30v3h-30z M2898,345h6v3h-6z M2910,345h18v3h-18z M126,348h39v3h-39z M171,348h3v3h-3z M222,348h15v3h-15z M240,348h9v3h-9z M252,348h33v3h-33z M369,348h3v3h-3z M375,348h3v3h-3z M519,348h24v3h-24z M846,348h9v3h-9z M858,348h24v3h-24z M885,348h6v3h-6z M942,348h3v3h-3z M951,348h9v3h-9z M963,348h9v3h-9z M978,348h6v3h-6z M990,348h12v3h-12z M1350,348h48v3h-48z M1461,348h9v3h-9z M1473,348h6v3h-6z M1641,348h48v3h-48z M1740,348h6v3h-6z M1752,348h9v3h-9z M1764,348h36v3h-36z M2130,348h6v3h-6z M2139,348h12v3h-12z M2154,348h9v3h-9z M2166,348h15v3h-15z M2226,348h48v3h-48z M2277,348h12v3h-12z M2388,348h6v3h-6z M2400,348h9v3h-9z M2412,348h12v3h-12z M2427,348h9v3h-9z M2439,348h6v3h-6z M2772,348h6v3h-6z M2781,348h9v3h-9z M2793,348h9v3h-9z M2808,348h12v3h-12z M2865,348h12v3h-12z M2880,348h45v3h-45z M123,351h12v3h-12z M138,351h12v3h-12z M153,351h12v3h-12z M222,351h27v3h-27z M252,351h6v3h-6z M264,351h6v3h-6z M276,351h12v3h-12z M369,351h6v3h-6z M378,351h3v3h-3z M519,351h9v3h-9z M531,351h9v3h-9z M843,351h12v3h-12z M858,351h6v3h-6z M867,351h9v3h-9z M879,351h12v3h-12z M942,351h18v3h-18z M963,351h9v3h-9z M975,351h9v3h-9z M990,351h6v3h-6z M1002,351h3v3h-3z M1347,351h9v3h-9z M1362,351h9v3h-9z M1374,351h9v3h-9z M1389,351h9v3h-9z M1461,351h18v3h-18z M1638,351h6v3h-6z M1647,351h9v3h-9z M1662,351h9v3h-9z M1674,351h15v3h-15z M1740,351h27v3h-27z M1770,351h6v3h-6z M1782,351h9v3h-9z M1794,351h6v3h-6z M2130,351h21v3h-21z M2154,351h27v3h-27z M2223,351h9v3h-9z M2235,351h9v3h-9z M2247,351h9v3h-9z M2262,351h9v3h-9z M2274,351h9v3h-9z M2286,351h3v3h-3z M2388,351h36v3h-36z M2427,351h9v3h-9z M2439,351h6v3h-6z M2772,351h48v3h-48z M2862,351h27v3h-27z M2892,351h6v3h-6z M2904,351h9v3h-9z M2916,351h12v3h-12z M123,354h27v3h-27z M234,354h6v3h-6z M246,354h39v3h-39z M369,354h12v3h-12z M519,354h6v3h-6z M531,354h3v3h-3z M843,354h3v3h-3z M852,354h27v3h-27z M945,354h60v3h-60z M1347,354h3v3h-3z M1353,354h33v3h-33z M1467,354h12v3h-12z M1641,354h36v3h-36z M1746,354h9v3h-9z M1758,354h42v3h-42z M2136,354h6v3h-6z M2148,354h18v3h-18z M2229,354h15v3h-15z M2247,354h36v3h-36z M2286,354h3v3h-3z M2394,354h6v3h-6z M2406,354h9v3h-9z M2418,354h27v3h-27z M2772,354h12v3h-12z M2787,354h9v3h-9z M2802,354h6v3h-6z M2862,354h6v3h-6z M2871,354h12v3h-12z M2886,354h12v3h-12z M2904,354h9v3h-9z M2916,354h12v3h-12z M126,357h15v3h-15z M144,357h6v3h-6z M234,357h6v3h-6z M246,357h6v3h-6z M258,357h9v3h-9z M270,357h9v3h-9z M282,357h6v3h-6z M369,357h9v3h-9z M519,357h15v3h-15z M843,357h27v3h-27z M873,357h6v3h-6z M945,357h9v3h-9z M957,357h9v3h-9z M972,357h6v3h-6z M984,357h9v3h-9z M996,357h9v3h-9z M1353,357h12v3h-12z M1368,357h9v3h-9z M1380,357h6v3h-6z M1464,357h15v3h-15z M1641,357h24v3h-24z M1668,357h6v3h-6z M1740,357h30v3h-30z M1773,357h12v3h-12z M1788,357h12v3h-12z M2130,357h36v3h-36z M2229,357h21v3h-21z M2253,357h12v3h-12z M2268,357h9v3h-9z M2280,357h9v3h-9z M2394,357h9v3h-9z M2406,357h9v3h-9z M2421,357h9v3h-9z M2436,357h9v3h-9z M2772,357h33v3h-33z M2871,357h54v3h-54z M126,360h24v3h-24z M234,360h45v3h-45z M282,360h6v3h-6z M369,360h6v3h-6z M525,360h6v3h-6z M843,360h6v3h-6z M855,360h6v3h-6z M864,360h15v3h-15z M954,360h6v3h-6z M963,360h42v3h-42z M1347,360h6v3h-6z M1356,360h30v3h-30z M1464,360h6v3h-6z M1473,360h6v3h-6z M1641,360h9v3h-9z M1656,360h18v3h-18z M1740,360h9v3h-9z M1752,360h9v3h-9z M1764,360h36v3h-36z M2130,360h6v3h-6z M2142,360h6v3h-6z M2151,360h12v3h-12z M2229,360h9v3h-9z M2241,360h9v3h-9z M2253,360h24v3h-24z M2280,360h9v3h-9z M2394,360h6v3h-6z M2403,360h6v3h-6z M2412,360h33v3h-33z M2772,360h18v3h-18z M2793,360h12v3h-12z M2871,360h6v3h-6z M2883,360h9v3h-9z M2895,360h9v3h-9z M2910,360h9v3h-9z M2922,360h6v3h-6z M126,363h12v3h-12z M141,363h9v3h-9z M234,363h12v3h-12z M252,363h9v3h-9z M264,363h9v3h-9z M276,363h9v3h-9z M369,363h12v3h-12z M528,363h3v3h-3z M843,363h36v3h-36z M951,363h9v3h-9z M963,363h9v3h-9z M975,363h12v3h-12z M990,363h9v3h-9z M1002,363h3v3h-3z M1347,363h39v3h-39z M1464,363h15v3h-15z M1641,363h33v3h-33z M1740,363h9v3h-9z M1752,363h9v3h-9z M1764,363h27v3h-27z M1794,363h6v3h-6z M2130,363h33v3h-33z M2235,363h9v3h-9z M2247,363h42v3h-42z M2403,363h6v3h-6z M2412,363h12v3h-12z M2427,363h9v3h-9z M2439,363h9v3h-9z M2772,363h6v3h-6z M2781,363h9v3h-9z M2793,363h12v3h-12z M2871,363h18v3h-18z M2892,363h36v3h-36z M135,366h3v3h-3z M243,366h18v3h-18z M264,366h9v3h-9z M276,366h12v3h-12z M375,366h6v3h-6z M843,366h12v3h-12z M861,366h3v3h-3z M957,366h9v3h-9z M969,366h18v3h-18z M990,366h15v3h-15z M1347,366h15v3h-15z M1464,366h15v3h-15z M1641,366h3v3h-3z M1647,366h9v3h-9z M1662,366h12v3h-12z M1746,366h12v3h-12z M1761,366h15v3h-15z M1782,366h9v3h-9z M1794,366h6v3h-6z M2127,366h6v3h-6z M2136,366h9v3h-9z M2148,366h6v3h-6z M2160,366h3v3h-3z M2235,366h9v3h-9z M2247,366h9v3h-9z M2262,366h9v3h-9z M2274,366h9v3h-9z M2397,366h6v3h-6z M2406,366h18v3h-18z M2427,366h9v3h-9z M2439,366h9v3h-9z M2772,366h12v3h-12z M2787,366h3v3h-3z M2793,366h6v3h-6z M2802,366h3v3h-3z M2871,366h15v3h-15z M2889,366h9v3h-9z M2901,366h12v3h-12z M2916,366h9v3h-9z M246,369h6v3h-6z M258,369h30v3h-30z M369,369h12v3h-12z M849,369h6v3h-6z M957,369h9v3h-9z M969,369h12v3h-12z M984,369h9v3h-9z M996,369h9v3h-9z M1353,369h9v3h-9z M1464,369h3v3h-3z M1470,369h12v3h-12z M1644,369h6v3h-6z M1653,369h9v3h-9z M1752,369h15v3h-15z M1773,369h27v3h-27z M2130,369h6v3h-6z M2235,369h6v3h-6z M2244,369h45v3h-45z M2397,369h6v3h-6z M2406,369h9v3h-9z M2421,369h9v3h-9z M2436,369h9v3h-9z M2775,369h6v3h-6z M2880,369h6v3h-6z M2889,369h9v3h-9z M2901,369h12v3h-12z M2916,369h9v3h-9z M246,372h9v3h-9z M258,372h9v3h-9z M270,372h9v3h-9z M282,372h6v3h-6z M369,372h6v3h-6z M378,372h6v3h-6z M849,372h6v3h-6z M960,372h21v3h-21z M984,372h9v3h-9z M996,372h9v3h-9z M1356,372h3v3h-3z M1464,372h9v3h-9z M1476,372h6v3h-6z M1659,372h3v3h-3z M1758,372h12v3h-12z M1773,372h9v3h-9z M1788,372h6v3h-6z M2133,372h3v3h-3z M2244,372h6v3h-6z M2256,372h6v3h-6z M2268,372h9v3h-9z M2280,372h9v3h-9z M2406,372h24v3h-24z M2433,372h12v3h-12z M2778,372h3v3h-3z M2883,372h6v3h-6z M2895,372h33v3h-33z M249,375h39v3h-39z M369,375h6v3h-6z M378,375h6v3h-6z M849,375h3v3h-3z M960,375h45v3h-45z M1464,375h15v3h-15z M1485,375h3v3h-3z M1755,375h45v3h-45z M2244,375h45v3h-45z M2406,375h3v3h-3z M2415,375h9v3h-9z M2427,375h21v3h-21z M2880,375h9v3h-9z M2895,375h9v3h-9z M2910,375h9v3h-9z M2922,375h6v3h-6z M246,378h3v3h-3z M252,378h9v3h-9z M264,378h24v3h-24z M369,378h18v3h-18z M969,378h6v3h-6z M978,378h6v3h-6z M990,378h9v3h-9z M1002,378h3v3h-3z M1464,378h3v3h-3z M1473,378h6v3h-6z M1485,378h3v3h-3z M1755,378h21v3h-21z M1779,378h9v3h-9z M1794,378h6v3h-6z M2250,378h6v3h-6z M2262,378h6v3h-6z M2274,378h9v3h-9z M2286,378h3v3h-3z M2406,378h18v3h-18z M2430,378h6v3h-6z M2442,378h6v3h-6z M2889,378h39v3h-39z M276,381h15v3h-15z M375,381h3v3h-3z M384,381h9v3h-9z M969,381h36v3h-36z M1473,381h18v3h-18z M1767,381h21v3h-21z M1791,381h9v3h-9z M2247,381h21v3h-21z M2274,381h9v3h-9z M2286,381h3v3h-3z M2406,381h12v3h-12z M2421,381h24v3h-24z M2886,381h12v3h-12z M2901,381h9v3h-9z M2916,381h9v3h-9z M279,384h6v3h-6z M384,384h9v3h-9z M972,384h9v3h-9z M984,384h9v3h-9z M996,384h9v3h-9z M1482,384h6v3h-6z M1773,384h6v3h-6z M1785,384h9v3h-9z M1797,384h3v3h-3z M2259,384h6v3h-6z M2268,384h9v3h-9z M2280,384h9v3h-9z M2415,384h3v3h-3z M2421,384h9v3h-9z M2436,384h6v3h-6z M2901,384h12v3h-12z M2916,384h9v3h-9z M279,387h9v3h-9z M381,387h6v3h-6z M393,387h3v3h-3z M972,387h9v3h-9z M984,387h21v3h-21z M1485,387h3v3h-3z M1491,387h6v3h-6z M1770,387h9v3h-9z M1785,387h9v3h-9z M1797,387h3v3h-3z M2268,387h9v3h-9z M2280,387h9v3h-9z M2421,387h9v3h-9z M2436,387h9v3h-9z M2898,387h6v3h-6z M2907,387h18v3h-18z M279,390h3v3h-3z M387,390h12v3h-12z M975,390h9v3h-9z M990,390h9v3h-9z M1002,390h3v3h-3z M1488,390h6v3h-6z M1782,390h18v3h-18z M2262,390h9v3h-9z M2274,390h9v3h-9z M2286,390h3v3h-3z M2418,390h6v3h-6z M2427,390h12v3h-12z M2442,390h3v3h-3z M2898,390h6v3h-6z M2910,390h6v3h-6z M2922,390h6v3h-6z M279,393h3v3h-3z M393,393h6v3h-6z M978,393h21v3h-21z M1002,393h3v3h-3z M1488,393h6v3h-6z M1779,393h9v3h-9z M1794,393h6v3h-6z M2262,393h9v3h-9z M2274,393h9v3h-9z M2286,393h3v3h-3z M2418,393h6v3h-6z M2430,393h9v3h-9z M2442,393h6v3h-6z M2898,393h30v3h-30z M396,396h3v3h-3z M402,396h3v3h-3z M984,396h3v3h-3z M993,396h12v3h-12z M1788,396h12v3h-12z M2274,396h3v3h-3z M2439,396h6v3h-6z M2916,396h9v3h-9z M996,399h6v3h-6z M1788,399h6v3h-6z M2439,399h6v3h-6z M2916,399h9v3h-9z M993,402h3v3h-3z M2439,402h3v3h-3z M2922,402h3v3h-3z M993,405h12v3h-12z M2439,405h3v3h-3z M2913,405h3v3h-3z" fill="white" />
</svg>
