<svg xmlns="http://www.w3.org/2000/svg" viewBox="0 0 3297 474">
  <path d="M132,42h9v3h-9z M144,42h15v3h-15z M222,42h27v3h-27z M513,42h3v3h-3z M519,42h6v3h-6z M528,42h6v3h-6z M540,42h6v3h-6z M549,42h9v3h-9z M612,42h9v3h-9z M624,42h3v3h-3z M630,42h3v3h-3z M639,42h3v3h-3z M873,42h3v3h-3z M879,42h9v3h-9z M891,42h3v3h-3z M921,42h3v3h-3z M927,42h9v3h-9z M939,42h3v3h-3z M945,42h6v3h-6z M954,42h3v3h-3z M1020,42h3v3h-3z M1026,42h3v3h-3z M1032,42h18v3h-18z M1053,42h6v3h-6z M1062,42h3v3h-3z M1116,42h6v3h-6z M1125,42h21v3h-21z M1149,42h6v3h-6z M1335,42h6v3h-6z M1344,42h3v3h-3z M1350,42h9v3h-9z M1362,42h6v3h-6z M1632,42h36v3h-36z M1722,42h9v3h-9z M1734,42h9v3h-9z M1746,42h6v3h-6z M1821,42h27v3h-27z M1851,42h3v3h-3z M1917,42h3v3h-3z M1923,42h15v3h-15z M1941,42h6v3h-6z M2325,42h3v3h-3z M2331,42h3v3h-3z M2337,42h3v3h-3z M2373,42h15v3h-15z M2391,42h3v3h-3z M2397,42h3v3h-3z M2466,42h3v3h-3z M2475,42h3v3h-3z M2481,42h3v3h-3z M2487,42h3v3h-3z M2493,42h3v3h-3z M2502,42h3v3h-3z M2511,42h3v3h-3z M2565,42h33v3h-33z M3042,42h9v3h-9z M3054,42h12v3h-12z M3069,42h9v3h-9z M126,45h6v3h-6z M135,45h6v3h-6z M144,45h18v3h-18z M219,45h27v3h-27z M516,45h9v3h-9z M528,45h33v3h-33z M609,45h3v3h-3z M615,45h6v3h-6z M624,45h12v3h-12z M639,45h6v3h-6z M870,45h21v3h-21z M921,45h3v3h-3z M927,45h27v3h-27z M1020,45h42v3h-42z M1113,45h39v3h-39z M1329,45h6v3h-6z M1338,45h24v3h-24z M1365,45h3v3h-3z M1629,45h12v3h-12z M1644,45h9v3h-9z M1656,45h15v3h-15z M1719,45h9v3h-9z M1731,45h9v3h-9z M1743,45h9v3h-9z M1815,45h12v3h-12z M1833,45h6v3h-6z M1842,45h18v3h-18z M1911,45h18v3h-18z M1932,45h18v3h-18z M2316,45h24v3h-24z M2370,45h36v3h-36z M2466,45h45v3h-45z M2562,45h18v3h-18z M2583,45h9v3h-9z M2595,45h6v3h-6z M3039,45h42v3h-42z M126,48h3v3h-3z M132,48h9v3h-9z M144,48h9v3h-9z M156,48h9v3h-9z M219,48h30v3h-30z M516,48h9v3h-9z M528,48h9v3h-9z M540,48h6v3h-6z M549,48h12v3h-12z M606,48h15v3h-15z M624,48h9v3h-9z M636,48h12v3h-12z M870,48h3v3h-3z M879,48h6v3h-6z M888,48h3v3h-3z M921,48h9v3h-9z M936,48h6v3h-6z M948,48h6v3h-6z M1017,48h12v3h-12z M1032,48h6v3h-6z M1044,48h6v3h-6z M1053,48h9v3h-9z M1116,48h9v3h-9z M1128,48h12v3h-12z M1143,48h9v3h-9z M1335,48h6v3h-6z M1344,48h9v3h-9z M1356,48h15v3h-15z M1629,48h12v3h-12z M1644,48h9v3h-9z M1656,48h6v3h-6z M1668,48h3v3h-3z M1674,48h3v3h-3z M1719,48h27v3h-27z M1749,48h6v3h-6z M1815,48h24v3h-24z M1842,48h9v3h-9z M1854,48h6v3h-6z M1911,48h9v3h-9z M1923,48h6v3h-6z M1932,48h6v3h-6z M1941,48h12v3h-12z M2316,48h9v3h-9z M2328,48h6v3h-6z M2337,48h3v3h-3z M2370,48h15v3h-15z M2388,48h6v3h-6z M2400,48h6v3h-6z M2466,48h12v3h-12z M2481,48h9v3h-9z M2493,48h9v3h-9z M2505,48h9v3h-9z M2559,48h42v3h-42z M3039,48h42v3h-42z M129,51h36v3h-36z M216,51h3v3h-3z M222,51h24v3h-24z M513,51h45v3h-45z M561,51h3v3h-3z M612,51h36v3h-36z M870,51h9v3h-9z M882,51h6v3h-6z M918,51h36v3h-36z M1017,51h3v3h-3z M1026,51h39v3h-39z M1119,51h6v3h-6z M1128,51h3v3h-3z M1137,51h3v3h-3z M1143,51h15v3h-15z M1251,51h3v3h-3z M1332,51h27v3h-27z M1362,51h9v3h-9z M1623,51h54v3h-54z M1716,51h15v3h-15z M1734,51h3v3h-3z M1743,51h6v3h-6z M1815,51h3v3h-3z M1821,51h3v3h-3z M1827,51h12v3h-12z M1842,51h21v3h-21z M1914,51h3v3h-3z M1920,51h21v3h-21z M1944,51h9v3h-9z M2187,51h3v3h-3z M2316,51h21v3h-21z M2370,51h21v3h-21z M2394,51h9v3h-9z M2469,51h21v3h-21z M2493,51h15v3h-15z M2511,51h3v3h-3z M2562,51h18v3h-18z M2583,51h18v3h-18z M3036,51h3v3h-3z M3042,51h9v3h-9z M3054,51h6v3h-6z M3063,51h3v3h-3z M3069,51h15v3h-15z M120,54h3v3h-3z M129,54h3v3h-3z M162,54h6v3h-6z M171,54h3v3h-3z M207,54h9v3h-9z M249,54h6v3h-6z M258,54h3v3h-3z M264,54h3v3h-3z M270,54h3v3h-3z M372,54h42v3h-42z M507,54h3v3h-3z M513,54h3v3h-3z M561,54h6v3h-6z M606,54h3v3h-3z M645,54h6v3h-6z M654,54h3v3h-3z M741,54h6v3h-6z M861,54h3v3h-3z M867,54h12v3h-12z M915,54h6v3h-6z M1005,54h3v3h-3z M1014,54h3v3h-3z M1062,54h3v3h-3z M1068,54h3v3h-3z M1089,54h3v3h-3z M1095,54h3v3h-3z M1152,54h3v3h-3z M1245,54h6v3h-6z M1314,54h3v3h-3z M1323,54h6v3h-6z M1371,54h6v3h-6z M1494,54h6v3h-6z M1503,54h6v3h-6z M1512,54h6v3h-6z M1521,54h9v3h-9z M1533,54h3v3h-3z M1620,54h6v3h-6z M1674,54h3v3h-3z M1680,54h3v3h-3z M1686,54h3v3h-3z M1707,54h3v3h-3z M1713,54h6v3h-6z M1755,54h3v3h-3z M1797,54h3v3h-3z M1806,54h6v3h-6z M1860,54h9v3h-9z M1893,54h6v3h-6z M1905,54h3v3h-3z M1950,54h3v3h-3z M1956,54h3v3h-3z M2043,54h3v3h-3z M2175,54h48v3h-48z M2310,54h9v3h-9z M2322,54h3v3h-3z M2358,54h12v3h-12z M2406,54h6v3h-6z M2457,54h6v3h-6z M2511,54h6v3h-6z M2520,54h3v3h-3z M2550,54h3v3h-3z M2601,54h3v3h-3z M2694,54h6v3h-6z M2703,54h3v3h-3z M2907,54h33v3h-33z M2943,54h3v3h-3z M2949,54h3v3h-3z M3036,54h3v3h-3z M3081,54h6v3h-6z M117,57h6v3h-6z M129,57h3v3h-3z M162,57h12v3h-12z M198,57h3v3h-3z M204,57h12v3h-12z M249,57h21v3h-21z M369,57h48v3h-48z M507,57h9v3h-9z M561,57h15v3h-15z M600,57h9v3h-9z M648,57h9v3h-9z M741,57h6v3h-6z M861,57h12v3h-12z M912,57h3v3h-3z M960,57h6v3h-6z M990,57h3v3h-3z M996,57h18v3h-18z M1065,57h9v3h-9z M1089,57h12v3h-12z M1107,57h3v3h-3z M1152,57h9v3h-9z M1245,57h9v3h-9z M1308,57h21v3h-21z M1368,57h9v3h-9z M1491,57h48v3h-48z M1623,57h6v3h-6z M1674,57h12v3h-12z M1710,57h9v3h-9z M1758,57h6v3h-6z M1794,57h18v3h-18z M1860,57h9v3h-9z M1887,57h21v3h-21z M1950,57h9v3h-9z M1962,57h3v3h-3z M2043,57h3v3h-3z M2175,57h48v3h-48z M2310,57h9v3h-9z M2358,57h15v3h-15z M2406,57h3v3h-3z M2412,57h3v3h-3z M2445,57h15v3h-15z M2511,57h15v3h-15z M2547,57h9v3h-9z M2601,57h3v3h-3z M2607,57h3v3h-3z M2691,57h12v3h-12z M2901,57h51v3h-51z M3027,57h12v3h-12z M3081,57h12v3h-12z M114,60h6v3h-6z M123,60h6v3h-6z M162,60h12v3h-12z M195,60h21v3h-21z M252,60h21v3h-21z M369,60h48v3h-48z M504,60h9v3h-9z M567,60h9v3h-9z M597,60h9v3h-9z M648,60h9v3h-9z M738,60h9v3h-9z M861,60h12v3h-12z M876,60h3v3h-3z M906,60h6v3h-6z M915,60h3v3h-3z M954,60h12v3h-12z M996,60h21v3h-21z M1065,60h6v3h-6z M1092,60h3v3h-3z M1098,60h3v3h-3z M1104,60h9v3h-9z M1155,60h9v3h-9z M1245,60h9v3h-9z M1269,60h3v3h-3z M1275,60h6v3h-6z M1308,60h9v3h-9z M1320,60h6v3h-6z M1371,60h12v3h-12z M1491,60h48v3h-48z M1611,60h15v3h-15z M1677,60h12v3h-12z M1707,60h12v3h-12z M1755,60h9v3h-9z M1788,60h9v3h-9z M1800,60h12v3h-12z M1857,60h3v3h-3z M1863,60h6v3h-6z M1884,60h24v3h-24z M1953,60h12v3h-12z M2043,60h3v3h-3z M2175,60h48v3h-48z M2310,60h12v3h-12z M2358,60h12v3h-12z M2409,60h9v3h-9z M2439,60h24v3h-24z M2514,60h9v3h-9z M2538,60h12v3h-12z M2553,60h6v3h-6z M2604,60h9v3h-9z M2691,60h12v3h-12z M2904,60h48v3h-48z M3027,60h3v3h-3z M3033,60h3v3h-3z M3081,60h3v3h-3z M3087,60h3v3h-3z M114,63h18v3h-18z M168,63h3v3h-3z M195,63h6v3h-6z M204,63h9v3h-9z M249,63h21v3h-21z M369,63h54v3h-54z M498,63h18v3h-18z M564,63h6v3h-6z M573,63h3v3h-3z M603,63h3v3h-3z M654,63h9v3h-9z M732,63h15v3h-15z M762,63h6v3h-6z M774,63h3v3h-3z M858,63h3v3h-3z M867,63h3v3h-3z M909,63h3v3h-3z M915,63h3v3h-3z M957,63h6v3h-6z M990,63h6v3h-6z M1002,63h6v3h-6z M1011,63h3v3h-3z M1071,63h6v3h-6z M1092,63h6v3h-6z M1101,63h3v3h-3z M1107,63h3v3h-3z M1158,63h12v3h-12z M1236,63h18v3h-18z M1263,63h9v3h-9z M1275,63h6v3h-6z M1311,63h3v3h-3z M1317,63h9v3h-9z M1374,63h9v3h-9z M1491,63h54v3h-54z M1611,63h6v3h-6z M1623,63h3v3h-3z M1686,63h3v3h-3z M1704,63h3v3h-3z M1710,63h6v3h-6z M1758,63h9v3h-9z M1788,63h9v3h-9z M1800,63h9v3h-9z M1869,63h3v3h-3z M1890,63h6v3h-6z M1956,63h12v3h-12z M2040,63h9v3h-9z M2175,63h51v3h-51z M2301,63h9v3h-9z M2313,63h6v3h-6z M2358,63h3v3h-3z M2364,63h6v3h-6z M2439,63h6v3h-6z M2448,63h12v3h-12z M2511,63h6v3h-6z M2520,63h6v3h-6z M2541,63h3v3h-3z M2547,63h3v3h-3z M2553,63h3v3h-3z M2604,63h9v3h-9z M2616,63h3v3h-3z M2691,63h12v3h-12z M2721,63h3v3h-3z M2730,63h3v3h-3z M2904,63h39v3h-39z M2946,63h12v3h-12z M3021,63h9v3h-9z M3033,63h3v3h-3z M3084,63h6v3h-6z M111,66h12v3h-12z M141,66h3v3h-3z M150,66h6v3h-6z M159,66h6v3h-6z M195,66h12v3h-12z M252,66h3v3h-3z M261,66h3v3h-3z M270,66h3v3h-3z M321,66h21v3h-21z M357,66h6v3h-6z M366,66h60v3h-60z M498,66h9v3h-9z M582,66h3v3h-3z M597,66h3v3h-3z M615,66h3v3h-3z M624,66h3v3h-3z M633,66h3v3h-3z M654,66h12v3h-12z M732,66h15v3h-15z M762,66h12v3h-12z M855,66h12v3h-12z M903,66h9v3h-9z M942,66h3v3h-3z M957,66h9v3h-9z M990,66h6v3h-6z M999,66h6v3h-6z M1041,66h3v3h-3z M1071,66h3v3h-3z M1077,66h6v3h-6z M1095,66h6v3h-6z M1131,66h3v3h-3z M1140,66h3v3h-3z M1158,66h9v3h-9z M1236,66h18v3h-18z M1266,66h24v3h-24z M1347,66h3v3h-3z M1374,66h12v3h-12z M1443,66h3v3h-3z M1449,66h6v3h-6z M1461,66h6v3h-6z M1482,66h66v3h-66z M1611,66h3v3h-3z M1617,66h3v3h-3z M1638,66h3v3h-3z M1647,66h3v3h-3z M1659,66h3v3h-3z M1689,66h6v3h-6z M1701,66h6v3h-6z M1731,66h3v3h-3z M1749,66h3v3h-3z M1785,66h6v3h-6z M1797,66h3v3h-3z M1869,66h12v3h-12z M1887,66h3v3h-3z M1956,66h12v3h-12z M2031,66h12v3h-12z M2046,66h3v3h-3z M2133,66h15v3h-15z M2166,66h3v3h-3z M2175,66h33v3h-33z M2211,66h9v3h-9z M2223,66h6v3h-6z M2298,66h3v3h-3z M2304,66h6v3h-6z M2355,66h9v3h-9z M2382,66h3v3h-3z M2415,66h3v3h-3z M2442,66h3v3h-3z M2448,66h6v3h-6z M2520,66h15v3h-15z M2544,66h3v3h-3z M2607,66h12v3h-12z M2679,66h15v3h-15z M2697,66h3v3h-3z M2715,66h15v3h-15z M2733,66h3v3h-3z M2859,66h6v3h-6z M2868,66h9v3h-9z M2898,66h60v3h-60z M3015,66h3v3h-3z M3021,66h3v3h-3z M3048,66h3v3h-3z M3054,66h6v3h-6z M3063,66h3v3h-3z M3093,66h3v3h-3z M3099,66h6v3h-6z M111,69h3v3h-3z M117,69h6v3h-6z M141,69h21v3h-21z M195,69h9v3h-9z M318,69h27v3h-27z M357,69h69v3h-69z M495,69h12v3h-12z M528,69h15v3h-15z M576,69h9v3h-9z M612,69h3v3h-3z M618,69h12v3h-12z M633,69h3v3h-3z M663,69h3v3h-3z M729,69h18v3h-18z M756,69h24v3h-24z M783,69h3v3h-3z M855,69h12v3h-12z M885,69h3v3h-3z M894,69h3v3h-3z M903,69h9v3h-9z M939,69h12v3h-12z M978,69h3v3h-3z M984,69h9v3h-9z M996,69h3v3h-3z M1002,69h3v3h-3z M1032,69h21v3h-21z M1071,69h12v3h-12z M1119,69h21v3h-21z M1158,69h3v3h-3z M1164,69h6v3h-6z M1233,69h21v3h-21z M1263,69h30v3h-30z M1296,69h3v3h-3z M1341,69h12v3h-12z M1359,69h3v3h-3z M1377,69h9v3h-9z M1440,69h30v3h-30z M1479,69h66v3h-66z M1611,69h9v3h-9z M1641,69h18v3h-18z M1692,69h9v3h-9z M1704,69h6v3h-6z M1728,69h3v3h-3z M1734,69h6v3h-6z M1743,69h6v3h-6z M1779,69h6v3h-6z M1788,69h12v3h-12z M1827,69h3v3h-3z M1833,69h6v3h-6z M1842,69h3v3h-3z M1848,69h3v3h-3z M1872,69h3v3h-3z M1878,69h3v3h-3z M1926,69h9v3h-9z M1956,69h9v3h-9z M2031,69h18v3h-18z M2064,69h15v3h-15z M2127,69h24v3h-24z M2166,69h69v3h-69z M2301,69h3v3h-3z M2307,69h3v3h-3z M2328,69h3v3h-3z M2334,69h3v3h-3z M2352,69h3v3h-3z M2361,69h3v3h-3z M2385,69h9v3h-9z M2400,69h3v3h-3z M2439,69h9v3h-9z M2484,69h6v3h-6z M2493,69h9v3h-9z M2523,69h3v3h-3z M2529,69h3v3h-3z M2574,69h15v3h-15z M2610,69h9v3h-9z M2679,69h21v3h-21z M2712,69h24v3h-24z M2853,69h27v3h-27z M2895,69h66v3h-66z M3018,69h9v3h-9z M3048,69h3v3h-3z M3054,69h15v3h-15z M3096,69h6v3h-6z M3105,69h3v3h-3z M111,72h12v3h-12z M141,72h12v3h-12z M156,72h6v3h-6z M192,72h3v3h-3z M201,72h6v3h-6z M315,72h33v3h-33z M357,72h78v3h-78z M492,72h15v3h-15z M522,72h21v3h-21z M576,72h6v3h-6z M588,72h3v3h-3z M615,72h21v3h-21z M654,72h6v3h-6z M663,72h3v3h-3z M726,72h21v3h-21z M756,72h33v3h-33z M855,72h6v3h-6z M888,72h6v3h-6z M900,72h12v3h-12z M933,72h9v3h-9z M945,72h9v3h-9z M981,72h21v3h-21z M1035,72h9v3h-9z M1047,72h9v3h-9z M1071,72h15v3h-15z M1122,72h21v3h-21z M1164,72h3v3h-3z M1227,72h27v3h-27z M1263,72h33v3h-33z M1338,72h21v3h-21z M1380,72h6v3h-6z M1437,72h114v3h-114z M1614,72h6v3h-6z M1638,72h21v3h-21z M1692,72h6v3h-6z M1701,72h9v3h-9z M1731,72h21v3h-21z M1776,72h3v3h-3z M1782,72h3v3h-3z M1791,72h6v3h-6z M1833,72h21v3h-21z M1869,72h6v3h-6z M1881,72h3v3h-3z M1923,72h15v3h-15z M1962,72h6v3h-6z M2028,72h21v3h-21z M2061,72h12v3h-12z M2076,72h6v3h-6z M2124,72h30v3h-30z M2163,72h51v3h-51z M2217,72h21v3h-21z M2301,72h6v3h-6z M2328,72h9v3h-9z M2352,72h3v3h-3z M2358,72h6v3h-6z M2382,72h24v3h-24z M2427,72h21v3h-21z M2481,72h24v3h-24z M2520,72h18v3h-18z M2574,72h18v3h-18z M2607,72h12v3h-12z M2679,72h21v3h-21z M2712,72h30v3h-30z M2853,72h111v3h-111z M3018,72h6v3h-6z M3045,72h18v3h-18z M3096,72h12v3h-12z M111,75h12v3h-12z M141,75h18v3h-18z M186,75h18v3h-18z M309,75h81v3h-81z M393,75h6v3h-6z M402,75h3v3h-3z M411,75h6v3h-6z M420,75h15v3h-15z M495,75h9v3h-9z M525,75h12v3h-12z M540,75h6v3h-6z M576,75h6v3h-6z M585,75h9v3h-9z M615,75h9v3h-9z M627,75h9v3h-9z M657,75h12v3h-12z M720,75h27v3h-27z M756,75h36v3h-36z M858,75h6v3h-6z M891,75h3v3h-3z M903,75h3v3h-3z M933,75h18v3h-18z M981,75h6v3h-6z M990,75h6v3h-6z M1032,75h21v3h-21z M1071,75h3v3h-3z M1077,75h3v3h-3z M1125,75h3v3h-3z M1131,75h9v3h-9z M1164,75h6v3h-6z M1227,75h27v3h-27z M1263,75h36v3h-36z M1338,75h6v3h-6z M1347,75h9v3h-9z M1377,75h9v3h-9z M1431,75h78v3h-78z M1515,75h6v3h-6z M1527,75h3v3h-3z M1533,75h3v3h-3z M1542,75h12v3h-12z M1611,75h9v3h-9z M1638,75h12v3h-12z M1653,75h9v3h-9z M1692,75h15v3h-15z M1731,75h18v3h-18z M1779,75h18v3h-18z M1830,75h9v3h-9z M1842,75h12v3h-12z M1869,75h12v3h-12z M1920,75h18v3h-18z M1956,75h12v3h-12z M2019,75h30v3h-30z M2061,75h24v3h-24z M2121,75h72v3h-72z M2229,75h12v3h-12z M2298,75h6v3h-6z M2307,75h3v3h-3z M2328,75h9v3h-9z M2352,75h9v3h-9z M2382,75h18v3h-18z M2403,75h3v3h-3z M2427,75h6v3h-6z M2436,75h9v3h-9z M2484,75h3v3h-3z M2493,75h9v3h-9z M2523,75h9v3h-9z M2571,75h21v3h-21z M2607,75h3v3h-3z M2613,75h6v3h-6z M2673,75h27v3h-27z M2712,75h36v3h-36z M2844,75h75v3h-75z M2955,75h15v3h-15z M2973,75h3v3h-3z M3018,75h9v3h-9z M3048,75h12v3h-12z M3063,75h6v3h-6z M3099,75h3v3h-3z M3105,75h3v3h-3z M111,78h3v3h-3z M117,78h6v3h-6z M138,78h6v3h-6z M147,78h18v3h-18z M186,78h15v3h-15z M306,78h78v3h-78z M423,78h21v3h-21z M495,78h12v3h-12z M522,78h24v3h-24z M582,78h12v3h-12z M612,78h3v3h-3z M618,78h21v3h-21z M654,78h12v3h-12z M714,78h33v3h-33z M756,78h36v3h-36z M858,78h9v3h-9z M885,78h6v3h-6z M906,78h6v3h-6z M930,78h6v3h-6z M939,78h15v3h-15z M981,78h15v3h-15z M1032,78h24v3h-24z M1074,78h12v3h-12z M1119,78h21v3h-21z M1158,78h9v3h-9z M1224,78h6v3h-6z M1233,78h12v3h-12z M1248,78h6v3h-6z M1263,78h12v3h-12z M1278,78h18v3h-18z M1335,78h24v3h-24z M1377,78h9v3h-9z M1431,78h51v3h-51z M1485,78h21v3h-21z M1545,78h12v3h-12z M1608,78h9v3h-9z M1635,78h27v3h-27z M1689,78h18v3h-18z M1728,78h21v3h-21z M1779,78h18v3h-18z M1830,78h21v3h-21z M1869,78h12v3h-12z M1920,78h18v3h-18z M1956,78h12v3h-12z M2013,78h3v3h-3z M2019,78h30v3h-30z M2061,78h6v3h-6z M2073,78h12v3h-12z M2118,78h72v3h-72z M2229,78h21v3h-21z M2298,78h3v3h-3z M2325,78h12v3h-12z M2352,78h3v3h-3z M2361,78h3v3h-3z M2385,78h3v3h-3z M2391,78h12v3h-12z M2427,78h6v3h-6z M2436,78h6v3h-6z M2484,78h21v3h-21z M2520,78h6v3h-6z M2529,78h6v3h-6z M2568,78h3v3h-3z M2574,78h15v3h-15z M2607,78h12v3h-12z M2670,78h33v3h-33z M2712,78h36v3h-36z M2844,78h75v3h-75z M2955,78h18v3h-18z M3018,78h3v3h-3z M3024,78h3v3h-3z M3045,78h21v3h-21z M3096,78h12v3h-12z M114,81h9v3h-9z M147,81h3v3h-3z M153,81h6v3h-6z M162,81h3v3h-3z M183,81h12v3h-12z M306,81h48v3h-48z M357,81h24v3h-24z M423,81h24v3h-24z M492,81h15v3h-15z M528,81h6v3h-6z M537,81h6v3h-6z M585,81h6v3h-6z M612,81h3v3h-3z M618,81h6v3h-6z M627,81h6v3h-6z M636,81h3v3h-3z M654,81h6v3h-6z M663,81h3v3h-3z M711,81h36v3h-36z M756,81h9v3h-9z M774,81h18v3h-18z M858,81h9v3h-9z M930,81h3v3h-3z M945,81h3v3h-3z M951,81h3v3h-3z M978,81h9v3h-9z M1029,81h15v3h-15z M1071,81h6v3h-6z M1080,81h3v3h-3z M1113,81h21v3h-21z M1137,81h3v3h-3z M1158,81h9v3h-9z M1221,81h33v3h-33z M1263,81h9v3h-9z M1281,81h15v3h-15z M1332,81h15v3h-15z M1350,81h3v3h-3z M1374,81h6v3h-6z M1383,81h3v3h-3z M1428,81h78v3h-78z M1545,81h6v3h-6z M1554,81h9v3h-9z M1611,81h9v3h-9z M1650,81h15v3h-15z M1689,81h3v3h-3z M1698,81h12v3h-12z M1728,81h3v3h-3z M1737,81h3v3h-3z M1743,81h6v3h-6z M1776,81h3v3h-3z M1788,81h3v3h-3z M1830,81h3v3h-3z M1842,81h3v3h-3z M1848,81h3v3h-3z M1869,81h9v3h-9z M1914,81h18v3h-18z M1935,81h3v3h-3z M1956,81h9v3h-9z M2016,81h6v3h-6z M2025,81h24v3h-24z M2061,81h6v3h-6z M2076,81h12v3h-12z M2118,81h69v3h-69z M2229,81h21v3h-21z M2301,81h9v3h-9z M2328,81h3v3h-3z M2352,81h3v3h-3z M2358,81h6v3h-6z M2385,81h9v3h-9z M2397,81h6v3h-6z M2427,81h15v3h-15z M2481,81h6v3h-6z M2493,81h9v3h-9z M2520,81h12v3h-12z M2568,81h9v3h-9z M2580,81h6v3h-6z M2607,81h12v3h-12z M2667,81h36v3h-36z M2715,81h6v3h-6z M2727,81h18v3h-18z M2844,81h75v3h-75z M2955,81h21v3h-21z M3018,81h9v3h-9z M3048,81h3v3h-3z M3054,81h3v3h-3z M3060,81h9v3h-9z M3096,81h12v3h-12z M111,84h12v3h-12z M180,84h12v3h-12z M294,84h60v3h-60z M357,84h27v3h-27z M426,84h21v3h-21z M495,84h12v3h-12z M546,84h6v3h-6z M588,84h3v3h-3z M594,84h3v3h-3z M654,84h6v3h-6z M663,84h3v3h-3z M711,84h36v3h-36z M756,84h9v3h-9z M774,84h18v3h-18z M855,84h12v3h-12z M906,84h6v3h-6z M966,84h3v3h-3z M975,84h6v3h-6z M1023,84h6v3h-6z M1071,84h9v3h-9z M1110,84h12v3h-12z M1158,84h12v3h-12z M1215,84h39v3h-39z M1263,84h9v3h-9z M1281,84h15v3h-15z M1335,84h3v3h-3z M1374,84h12v3h-12z M1419,84h15v3h-15z M1437,84h69v3h-69z M1548,84h21v3h-21z M1611,84h9v3h-9z M1659,84h12v3h-12z M1704,84h6v3h-6z M1716,84h3v3h-3z M1764,84h3v3h-3z M1770,84h6v3h-6z M1827,84h3v3h-3z M1872,84h9v3h-9z M1911,84h6v3h-6z M1956,84h12v3h-12z M2007,84h42v3h-42z M2061,84h6v3h-6z M2076,84h9v3h-9z M2106,84h3v3h-3z M2115,84h30v3h-30z M2148,84h36v3h-36z M2187,84h3v3h-3z M2232,84h24v3h-24z M2259,84h3v3h-3z M2307,84h3v3h-3z M2355,84h9v3h-9z M2424,84h9v3h-9z M2475,84h3v3h-3z M2520,84h15v3h-15z M2559,84h3v3h-3z M2565,84h6v3h-6z M2607,84h12v3h-12z M2661,84h15v3h-15z M2679,84h21v3h-21z M2712,84h9v3h-9z M2727,84h21v3h-21z M2838,84h81v3h-81z M2958,84h30v3h-30z M3021,84h6v3h-6z M3069,84h3v3h-3z M3075,84h6v3h-6z M3096,84h9v3h-9z M114,87h21v3h-21z M177,87h9v3h-9z M291,87h45v3h-45z M339,87h33v3h-33z M390,87h9v3h-9z M402,87h9v3h-9z M414,87h6v3h-6z M432,87h18v3h-18z M453,87h3v3h-3z M498,87h9v3h-9z M546,87h9v3h-9z M591,87h9v3h-9z M648,87h18v3h-18z M705,87h42v3h-42z M756,87h12v3h-12z M771,87h21v3h-21z M858,87h21v3h-21z M906,87h3v3h-3z M912,87h3v3h-3z M918,87h3v3h-3z M969,87h3v3h-3z M975,87h6v3h-6z M1020,87h9v3h-9z M1074,87h6v3h-6z M1110,87h12v3h-12z M1161,87h6v3h-6z M1215,87h39v3h-39z M1263,87h33v3h-33z M1329,87h12v3h-12z M1374,87h12v3h-12z M1416,87h78v3h-78z M1506,87h3v3h-3z M1512,87h9v3h-9z M1524,87h3v3h-3z M1530,87h9v3h-9z M1551,87h9v3h-9z M1563,87h9v3h-9z M1611,87h15v3h-15z M1659,87h9v3h-9z M1704,87h18v3h-18z M1767,87h3v3h-3z M1776,87h6v3h-6z M1818,87h6v3h-6z M1827,87h3v3h-3z M1863,87h15v3h-15z M1911,87h9v3h-9z M1956,87h9v3h-9z M2010,87h3v3h-3z M2016,87h33v3h-33z M2061,87h21v3h-21z M2103,87h78v3h-78z M2196,87h12v3h-12z M2211,87h6v3h-6z M2220,87h6v3h-6z M2241,87h18v3h-18z M2298,87h3v3h-3z M2304,87h6v3h-6z M2358,87h12v3h-12z M2421,87h3v3h-3z M2427,87h6v3h-6z M2478,87h3v3h-3z M2511,87h9v3h-9z M2559,87h12v3h-12z M2604,87h6v3h-6z M2613,87h3v3h-3z M2661,87h3v3h-3z M2667,87h33v3h-33z M2712,87h12v3h-12z M2727,87h18v3h-18z M2829,87h51v3h-51z M2883,87h24v3h-24z M2919,87h24v3h-24z M2946,87h6v3h-6z M2964,87h21v3h-21z M3018,87h9v3h-9z M3069,87h9v3h-9z M3096,87h12v3h-12z M111,90h24v3h-24z M174,90h15v3h-15z M291,90h48v3h-48z M351,90h21v3h-21z M387,90h33v3h-33z M432,90h24v3h-24z M498,90h3v3h-3z M504,90h6v3h-6z M546,90h9v3h-9z M588,90h9v3h-9z M600,90h3v3h-3z M648,90h3v3h-3z M654,90h6v3h-6z M705,90h21v3h-21z M729,90h15v3h-15z M762,90h3v3h-3z M774,90h6v3h-6z M783,90h6v3h-6z M858,90h15v3h-15z M876,90h3v3h-3z M909,90h12v3h-12z M966,90h9v3h-9z M978,90h3v3h-3z M1023,90h3v3h-3z M1062,90h18v3h-18z M1110,90h9v3h-9z M1152,90h6v3h-6z M1161,90h6v3h-6z M1212,90h39v3h-39z M1266,90h6v3h-6z M1278,90h9v3h-9z M1290,90h3v3h-3z M1329,90h3v3h-3z M1335,90h3v3h-3z M1368,90h3v3h-3z M1380,90h6v3h-6z M1416,90h24v3h-24z M1443,90h12v3h-12z M1458,90h6v3h-6z M1476,90h9v3h-9z M1488,90h6v3h-6z M1506,90h30v3h-30z M1557,90h15v3h-15z M1617,90h12v3h-12z M1659,90h12v3h-12z M1704,90h18v3h-18z M1767,90h9v3h-9z M1821,90h9v3h-9z M1872,90h6v3h-6z M1911,90h12v3h-12z M1950,90h6v3h-6z M1962,90h3v3h-3z M2004,90h45v3h-45z M2064,90h6v3h-6z M2073,90h9v3h-9z M2103,90h48v3h-48z M2160,90h12v3h-12z M2175,90h6v3h-6z M2193,90h33v3h-33z M2241,90h6v3h-6z M2250,90h18v3h-18z M2358,90h15v3h-15z M2415,90h12v3h-12z M2472,90h6v3h-6z M2514,90h12v3h-12z M2562,90h9v3h-9z M2604,90h3v3h-3z M2613,90h6v3h-6z M2661,90h39v3h-39z M2715,90h6v3h-6z M2727,90h15v3h-15z M2829,90h48v3h-48z M2889,90h9v3h-9z M2901,90h6v3h-6z M2919,90h33v3h-33z M2967,90h21v3h-21z M3018,90h15v3h-15z M3069,90h3v3h-3z M3075,90h3v3h-3z M3096,90h12v3h-12z M111,93h3v3h-3z M120,93h15v3h-15z M174,93h12v3h-12z M291,93h48v3h-48z M351,93h21v3h-21z M387,93h33v3h-33z M432,93h3v3h-3z M438,93h27v3h-27z M495,93h3v3h-3z M504,93h9v3h-9z M549,93h3v3h-3z M591,93h3v3h-3z M597,93h6v3h-6z M645,93h9v3h-9z M660,93h3v3h-3z M702,93h42v3h-42z M858,93h3v3h-3z M867,93h3v3h-3z M873,93h6v3h-6z M909,93h3v3h-3z M915,93h9v3h-9z M969,93h9v3h-9z M1023,93h3v3h-3z M1029,93h3v3h-3z M1071,93h3v3h-3z M1116,93h6v3h-6z M1155,93h9v3h-9z M1212,93h39v3h-39z M1332,93h9v3h-9z M1371,93h12v3h-12z M1416,93h48v3h-48z M1476,93h18v3h-18z M1506,93h15v3h-15z M1524,93h15v3h-15z M1554,93h24v3h-24z M1617,93h12v3h-12z M1659,93h6v3h-6z M1668,93h3v3h-3z M1707,93h9v3h-9z M1719,93h3v3h-3z M1764,93h15v3h-15z M1821,93h3v3h-3z M1863,93h12v3h-12z M1878,93h3v3h-3z M1914,93h9v3h-9z M1953,93h9v3h-9z M1965,93h3v3h-3z M2004,93h18v3h-18z M2025,93h24v3h-24z M2103,93h9v3h-9z M2115,93h21v3h-21z M2139,93h12v3h-12z M2160,93h21v3h-21z M2193,93h12v3h-12z M2208,93h18v3h-18z M2244,93h21v3h-21z M2310,93h3v3h-3z M2361,93h12v3h-12z M2418,93h12v3h-12z M2517,93h12v3h-12z M2559,93h9v3h-9z M2601,93h12v3h-12z M2655,93h6v3h-6z M2664,93h36v3h-36z M2829,93h48v3h-48z M2889,93h18v3h-18z M2919,93h33v3h-33z M2967,93h27v3h-27z M3021,93h3v3h-3z M3027,93h9v3h-9z M3072,93h3v3h-3z M3078,93h3v3h-3z M3096,93h12v3h-12z M123,96h6v3h-6z M135,96h12v3h-12z M153,96h6v3h-6z M162,96h6v3h-6z M171,96h9v3h-9z M291,96h51v3h-51z M351,96h69v3h-69z M444,96h24v3h-24z M504,96h12v3h-12z M528,96h3v3h-3z M537,96h3v3h-3z M546,96h9v3h-9z M591,96h15v3h-15z M609,96h6v3h-6z M618,96h3v3h-3z M627,96h3v3h-3z M633,96h6v3h-6z M642,96h6v3h-6z M702,96h42v3h-42z M867,96h12v3h-12z M915,96h6v3h-6z M927,96h3v3h-3z M936,96h3v3h-3z M948,96h3v3h-3z M957,96h3v3h-3z M966,96h6v3h-6z M1032,96h6v3h-6z M1041,96h3v3h-3z M1047,96h3v3h-3z M1056,96h9v3h-9z M1119,96h15v3h-15z M1137,96h6v3h-6z M1146,96h12v3h-12z M1209,96h42v3h-42z M1329,96h3v3h-3z M1335,96h15v3h-15z M1353,96h3v3h-3z M1362,96h3v3h-3z M1371,96h6v3h-6z M1416,96h48v3h-48z M1473,96h24v3h-24z M1506,96h33v3h-33z M1557,96h27v3h-27z M1587,96h3v3h-3z M1620,96h18v3h-18z M1641,96h6v3h-6z M1650,96h9v3h-9z M1716,96h6v3h-6z M1728,96h6v3h-6z M1740,96h6v3h-6z M1749,96h6v3h-6z M1758,96h6v3h-6z M1767,96h3v3h-3z M1824,96h9v3h-9z M1863,96h6v3h-6z M1911,96h12v3h-12z M1929,96h3v3h-3z M1941,96h9v3h-9z M1953,96h6v3h-6z M2004,96h42v3h-42z M2103,96h42v3h-42z M2148,96h3v3h-3z M2160,96h45v3h-45z M2208,96h18v3h-18z M2247,96h21v3h-21z M2307,96h3v3h-3z M2313,96h6v3h-6z M2370,96h6v3h-6z M2382,96h3v3h-3z M2391,96h3v3h-3z M2400,96h3v3h-3z M2409,96h3v3h-3z M2418,96h9v3h-9z M2514,96h6v3h-6z M2565,96h9v3h-9z M2589,96h3v3h-3z M2595,96h6v3h-6z M2604,96h6v3h-6z M2655,96h21v3h-21z M2679,96h18v3h-18z M2829,96h51v3h-51z M2886,96h24v3h-24z M2913,96h21v3h-21z M2937,96h15v3h-15z M2967,96h30v3h-30z M3027,96h12v3h-12z M3045,96h3v3h-3z M3057,96h3v3h-3z M3069,96h9v3h-9z M3093,96h12v3h-12z M129,99h48v3h-48z M294,99h27v3h-27z M324,99h3v3h-3z M339,99h21v3h-21z M372,99h18v3h-18z M411,99h15v3h-15z M441,99h27v3h-27z M510,99h36v3h-36z M603,99h42v3h-42z M699,99h39v3h-39z M741,99h3v3h-3z M867,99h9v3h-9z M879,99h9v3h-9z M921,99h45v3h-45z M1032,99h3v3h-3z M1038,99h15v3h-15z M1056,99h9v3h-9z M1122,99h3v3h-3z M1128,99h27v3h-27z M1206,99h45v3h-45z M1341,99h27v3h-27z M1419,99h33v3h-33z M1464,99h21v3h-21z M1494,99h18v3h-18z M1533,99h12v3h-12z M1563,99h9v3h-9z M1575,99h12v3h-12z M1626,99h33v3h-33z M1716,99h51v3h-51z M1827,99h42v3h-42z M1920,99h15v3h-15z M1938,99h15v3h-15z M2001,99h3v3h-3z M2007,99h36v3h-36z M2103,99h27v3h-27z M2133,99h3v3h-3z M2148,99h18v3h-18z M2181,99h15v3h-15z M2217,99h15v3h-15z M2250,99h21v3h-21z M2316,99h3v3h-3z M2322,99h6v3h-6z M2370,99h48v3h-48z M2490,99h15v3h-15z M2508,99h9v3h-9z M2571,99h15v3h-15z M2589,99h6v3h-6z M2598,99h6v3h-6z M2658,99h36v3h-36z M2829,99h36v3h-36z M2877,99h18v3h-18z M2907,99h15v3h-15z M2946,99h9v3h-9z M2979,99h21v3h-21z M3033,99h36v3h-36z M3096,99h9v3h-9z M129,102h3v3h-3z M135,102h6v3h-6z M144,102h9v3h-9z M156,102h9v3h-9z M168,102h9v3h-9z M291,102h36v3h-36z M339,102h21v3h-21z M372,102h18v3h-18z M411,102h15v3h-15z M441,102h27v3h-27z M513,102h33v3h-33z M603,102h6v3h-6z M612,102h6v3h-6z M621,102h9v3h-9z M633,102h9v3h-9z M696,102h3v3h-3z M702,102h33v3h-33z M873,102h18v3h-18z M921,102h15v3h-15z M939,102h12v3h-12z M954,102h12v3h-12z M1032,102h24v3h-24z M1059,102h3v3h-3z M1122,102h18v3h-18z M1143,102h12v3h-12z M1209,102h30v3h-30z M1254,102h3v3h-3z M1341,102h12v3h-12z M1356,102h6v3h-6z M1365,102h6v3h-6z M1416,102h27v3h-27z M1446,102h6v3h-6z M1464,102h18v3h-18z M1494,102h18v3h-18z M1533,102h18v3h-18z M1563,102h30v3h-30z M1626,102h15v3h-15z M1644,102h9v3h-9z M1656,102h3v3h-3z M1719,102h12v3h-12z M1734,102h6v3h-6z M1743,102h15v3h-15z M1761,102h3v3h-3z M1833,102h9v3h-9z M1845,102h6v3h-6z M1854,102h9v3h-9z M1923,102h6v3h-6z M1932,102h9v3h-9z M1944,102h9v3h-9z M2001,102h33v3h-33z M2103,102h33v3h-33z M2148,102h18v3h-18z M2178,102h18v3h-18z M2217,102h18v3h-18z M2253,102h30v3h-30z M2316,102h18v3h-18z M2370,102h12v3h-12z M2385,102h6v3h-6z M2394,102h9v3h-9z M2406,102h12v3h-12z M2481,102h9v3h-9z M2493,102h6v3h-6z M2505,102h9v3h-9z M2571,102h33v3h-33z M2652,102h36v3h-36z M2736,102h3v3h-3z M2829,102h27v3h-27z M2859,102h6v3h-6z M2877,102h18v3h-18z M2907,102h15v3h-15z M2946,102h15v3h-15z M2976,102h3v3h-3z M2982,102h21v3h-21z M3033,102h36v3h-36z M3096,102h12v3h-12z M132,105h42v3h-42z M291,105h36v3h-36z M339,105h21v3h-21z M372,105h15v3h-15z M411,105h21v3h-21z M435,105h3v3h-3z M453,105h21v3h-21z M516,105h15v3h-15z M534,105h9v3h-9z M609,105h33v3h-33z M702,105h33v3h-33z M744,105h3v3h-3z M750,105h39v3h-39z M873,105h9v3h-9z M921,105h45v3h-45z M1035,105h6v3h-6z M1044,105h18v3h-18z M1125,105h6v3h-6z M1134,105h18v3h-18z M1203,105h36v3h-36z M1251,105h45v3h-45z M1344,105h24v3h-24z M1416,105h36v3h-36z M1464,105h18v3h-18z M1494,105h18v3h-18z M1533,105h18v3h-18z M1569,105h30v3h-30z M1629,105h27v3h-27z M1722,105h42v3h-42z M1839,105h21v3h-21z M1920,105h33v3h-33z M2004,105h9v3h-9z M2016,105h15v3h-15z M2052,105h27v3h-27z M2103,105h33v3h-33z M2148,105h18v3h-18z M2178,105h18v3h-18z M2217,105h27v3h-27z M2256,105h27v3h-27z M2316,105h9v3h-9z M2328,105h6v3h-6z M2373,105h3v3h-3z M2379,105h36v3h-36z M2490,105h21v3h-21z M2574,105h6v3h-6z M2583,105h15v3h-15z M2652,105h18v3h-18z M2673,105h9v3h-9z M2697,105h45v3h-45z M2829,105h33v3h-33z M2874,105h21v3h-21z M2907,105h15v3h-15z M2946,105h21v3h-21z M2985,105h24v3h-24z M3036,105h30v3h-30z M3093,105h9v3h-9z M132,108h3v3h-3z M141,108h6v3h-6z M153,108h6v3h-6z M162,108h6v3h-6z M294,108h36v3h-36z M336,108h24v3h-24z M372,108h18v3h-18z M411,108h30v3h-30z M453,108h24v3h-24z M513,108h3v3h-3z M519,108h15v3h-15z M537,108h3v3h-3z M612,108h3v3h-3z M618,108h6v3h-6z M630,108h3v3h-3z M639,108h3v3h-3z M699,108h6v3h-6z M708,108h12v3h-12z M723,108h9v3h-9z M747,108h45v3h-45z M876,108h15v3h-15z M921,108h6v3h-6z M936,108h6v3h-6z M948,108h6v3h-6z M1206,108h30v3h-30z M1254,108h3v3h-3z M1260,108h9v3h-9z M1272,108h24v3h-24z M1350,108h3v3h-3z M1419,108h33v3h-33z M1458,108h24v3h-24z M1494,108h18v3h-18z M1533,108h30v3h-30z M1575,108h21v3h-21z M1641,108h3v3h-3z M1728,108h6v3h-6z M1740,108h3v3h-3z M1749,108h3v3h-3z M1758,108h3v3h-3z M1842,108h3v3h-3z M1929,108h6v3h-6z M1941,108h3v3h-3z M1947,108h3v3h-3z M2001,108h33v3h-33z M2046,108h36v3h-36z M2103,108h36v3h-36z M2145,108h21v3h-21z M2178,108h18v3h-18z M2205,108h3v3h-3z M2217,108h27v3h-27z M2259,108h24v3h-24z M2319,108h15v3h-15z M2379,108h3v3h-3z M2394,108h3v3h-3z M2400,108h3v3h-3z M2412,108h3v3h-3z M2493,108h3v3h-3z M2499,108h6v3h-6z M2511,108h3v3h-3z M2580,108h6v3h-6z M2589,108h6v3h-6z M2598,108h3v3h-3z M2649,108h33v3h-33z M2697,108h51v3h-51z M2832,108h63v3h-63z M2907,108h15v3h-15z M2946,108h24v3h-24z M2985,108h27v3h-27z M3045,108h6v3h-6z M3057,108h3v3h-3z M3096,108h3v3h-3z M3105,108h3v3h-3z M300,111h18v3h-18z M330,111h27v3h-27z M372,111h15v3h-15z M396,111h3v3h-3z M402,111h3v3h-3z M408,111h3v3h-3z M426,111h15v3h-15z M453,111h24v3h-24z M699,111h30v3h-30z M744,111h9v3h-9z M756,111h33v3h-33z M882,111h6v3h-6z M894,111h3v3h-3z M1203,111h36v3h-36z M1251,111h42v3h-42z M1425,111h15v3h-15z M1452,111h30v3h-30z M1497,111h15v3h-15z M1521,111h15v3h-15z M1548,111h15v3h-15z M1575,111h24v3h-24z M2001,111h33v3h-33z M2046,111h6v3h-6z M2055,111h24v3h-24z M2103,111h24v3h-24z M2136,111h30v3h-30z M2181,111h15v3h-15z M2202,111h9v3h-9z M2214,111h3v3h-3z M2229,111h15v3h-15z M2259,111h24v3h-24z M2328,111h6v3h-6z M2652,111h27v3h-27z M2697,111h6v3h-6z M2706,111h36v3h-36z M2832,111h24v3h-24z M2865,111h30v3h-30z M2907,111h15v3h-15z M2931,111h3v3h-3z M2937,111h3v3h-3z M2943,111h3v3h-3z M2958,111h15v3h-15z M2985,111h27v3h-27z M3117,111h3v3h-3z M300,114h18v3h-18z M327,114h12v3h-12z M342,114h15v3h-15z M372,114h15v3h-15z M399,114h12v3h-12z M426,114h12v3h-12z M453,114h27v3h-27z M696,114h3v3h-3z M702,114h12v3h-12z M717,114h6v3h-6z M738,114h33v3h-33z M774,114h6v3h-6z M885,114h3v3h-3z M891,114h15v3h-15z M1206,114h21v3h-21z M1239,114h48v3h-48z M1425,114h15v3h-15z M1452,114h30v3h-30z M1494,114h18v3h-18z M1521,114h12v3h-12z M1548,114h15v3h-15z M1578,114h24v3h-24z M2004,114h18v3h-18z M2034,114h48v3h-48z M2112,114h6v3h-6z M2121,114h6v3h-6z M2136,114h30v3h-30z M2178,114h18v3h-18z M2202,114h15v3h-15z M2229,114h15v3h-15z M2259,114h21v3h-21z M2328,114h9v3h-9z M2652,114h21v3h-21z M2685,114h51v3h-51z M2838,114h6v3h-6z M2847,114h9v3h-9z M2865,114h30v3h-30z M2907,114h15v3h-15z M2931,114h3v3h-3z M2937,114h9v3h-9z M2958,114h15v3h-15z M2985,114h27v3h-27z M300,117h18v3h-18z M327,117h33v3h-33z M372,117h18v3h-18z M399,117h12v3h-12z M426,117h15v3h-15z M453,117h24v3h-24z M699,117h24v3h-24z M735,117h9v3h-9z M747,117h33v3h-33z M888,117h15v3h-15z M1203,117h27v3h-27z M1239,117h42v3h-42z M1425,117h15v3h-15z M1452,117h30v3h-30z M1494,117h18v3h-18z M1521,117h12v3h-12z M1548,117h15v3h-15z M1578,117h21v3h-21z M2001,117h21v3h-21z M2034,117h12v3h-12z M2049,117h21v3h-21z M2112,117h15v3h-15z M2136,117h30v3h-30z M2178,117h18v3h-18z M2202,117h18v3h-18z M2232,117h12v3h-12z M2259,117h24v3h-24z M2328,117h6v3h-6z M2337,117h3v3h-3z M2649,117h21v3h-21z M2682,117h48v3h-48z M2733,117h3v3h-3z M2838,117h18v3h-18z M2865,117h30v3h-30z M2907,117h18v3h-18z M2931,117h15v3h-15z M2958,117h15v3h-15z M2988,117h24v3h-24z M3117,117h3v3h-3z M300,120h60v3h-60z M372,120h15v3h-15z M402,120h9v3h-9z M426,120h15v3h-15z M453,120h24v3h-24z M705,120h18v3h-18z M735,120h39v3h-39z M894,120h9v3h-9z M1206,120h24v3h-24z M1239,120h39v3h-39z M1428,120h54v3h-54z M1494,120h18v3h-18z M1524,120h9v3h-9z M1548,120h15v3h-15z M1578,120h21v3h-21z M2001,120h3v3h-3z M2007,120h15v3h-15z M2034,120h27v3h-27z M2064,120h6v3h-6z M2112,120h54v3h-54z M2178,120h18v3h-18z M2202,120h18v3h-18z M2229,120h6v3h-6z M2238,120h6v3h-6z M2259,120h24v3h-24z M2334,120h12v3h-12z M2652,120h15v3h-15z M2682,120h42v3h-42z M2838,120h21v3h-21z M2862,120h33v3h-33z M2907,120h33v3h-33z M2943,120h3v3h-3z M2958,120h15v3h-15z M2988,120h24v3h-24z M3114,120h3v3h-3z M279,123h9v3h-9z M291,123h12v3h-12z M318,123h39v3h-39z M372,123h15v3h-15z M399,123h39v3h-39z M453,123h27v3h-27z M699,123h12v3h-12z M723,123h12v3h-12z M738,123h36v3h-36z M1203,123h12v3h-12z M1230,123h45v3h-45z M1398,123h3v3h-3z M1404,123h3v3h-3z M1410,123h3v3h-3z M1416,123h12v3h-12z M1440,123h42v3h-42z M1494,123h18v3h-18z M1521,123h9v3h-9z M1533,123h9v3h-9z M1545,123h18v3h-18z M1578,123h24v3h-24z M2001,123h3v3h-3z M2007,123h6v3h-6z M2022,123h45v3h-45z M2088,123h3v3h-3z M2094,123h18v3h-18z M2124,123h42v3h-42z M2178,123h18v3h-18z M2202,123h42v3h-42z M2259,123h24v3h-24z M2334,123h12v3h-12z M2655,123h6v3h-6z M2670,123h54v3h-54z M2817,123h3v3h-3z M2829,123h15v3h-15z M2853,123h39v3h-39z M2907,123h15v3h-15z M2946,123h6v3h-6z M2958,123h15v3h-15z M2988,123h24v3h-24z M276,126h27v3h-27z M315,126h45v3h-45z M372,126h18v3h-18z M411,126h30v3h-30z M453,126h24v3h-24z M699,126h3v3h-3z M720,126h51v3h-51z M1206,126h9v3h-9z M1227,126h48v3h-48z M1398,126h3v3h-3z M1404,126h24v3h-24z M1440,126h6v3h-6z M1449,126h33v3h-33z M1494,126h27v3h-27z M1536,126h27v3h-27z M1575,126h27v3h-27z M2001,126h9v3h-9z M2022,126h48v3h-48z M2085,126h3v3h-3z M2091,126h21v3h-21z M2124,126h42v3h-42z M2178,126h24v3h-24z M2217,126h12v3h-12z M2232,126h12v3h-12z M2259,126h24v3h-24z M2340,126h9v3h-9z M2649,126h12v3h-12z M2670,126h54v3h-54z M2817,126h24v3h-24z M2853,126h42v3h-42z M2907,126h18v3h-18z M2949,126h24v3h-24z M2985,126h27v3h-27z M276,129h27v3h-27z M315,129h45v3h-45z M372,129h24v3h-24z M411,129h30v3h-30z M453,129h24v3h-24z M702,129h3v3h-3z M720,129h48v3h-48z M1206,129h3v3h-3z M1212,129h3v3h-3z M1227,129h6v3h-6z M1236,129h33v3h-33z M1275,129h3v3h-3z M1401,129h27v3h-27z M1440,129h42v3h-42z M1494,129h27v3h-27z M1536,129h27v3h-27z M1575,129h24v3h-24z M2001,129h6v3h-6z M2022,129h42v3h-42z M2085,129h27v3h-27z M2124,129h42v3h-42z M2178,129h24v3h-24z M2217,129h27v3h-27z M2259,129h24v3h-24z M2343,129h6v3h-6z M2649,129h12v3h-12z M2670,129h51v3h-51z M2814,129h27v3h-27z M2853,129h42v3h-42z M2907,129h18v3h-18z M2946,129h27v3h-27z M2985,129h27v3h-27z M276,132h30v3h-30z M312,132h48v3h-48z M372,132h24v3h-24z M411,132h6v3h-6z M420,132h21v3h-21z M453,132h24v3h-24z M699,132h12v3h-12z M717,132h51v3h-51z M1206,132h63v3h-63z M1401,132h30v3h-30z M1434,132h48v3h-48z M1494,132h27v3h-27z M1530,132h33v3h-33z M1578,132h24v3h-24z M2001,132h3v3h-3z M2010,132h18v3h-18z M2031,132h36v3h-36z M2085,132h30v3h-30z M2118,132h48v3h-48z M2178,132h30v3h-30z M2214,132h6v3h-6z M2223,132h21v3h-21z M2259,132h24v3h-24z M2343,132h3v3h-3z M2349,132h3v3h-3z M2649,132h3v3h-3z M2655,132h6v3h-6z M2670,132h42v3h-42z M2814,132h12v3h-12z M2829,132h15v3h-15z M2850,132h42v3h-42z M2910,132h24v3h-24z M2937,132h36v3h-36z M2988,132h21v3h-21z M276,135h39v3h-39z M327,135h33v3h-33z M372,135h69v3h-69z M453,135h21v3h-21z M477,135h3v3h-3z M705,135h6v3h-6z M714,135h51v3h-51z M1212,135h48v3h-48z M1398,135h42v3h-42z M1449,135h33v3h-33z M1497,135h45v3h-45z M1545,135h18v3h-18z M1575,135h27v3h-27z M2004,135h57v3h-57z M2064,135h3v3h-3z M2085,135h39v3h-39z M2136,135h30v3h-30z M2178,135h69v3h-69z M2259,135h21v3h-21z M2343,135h6v3h-6z M2658,135h51v3h-51z M2814,135h42v3h-42z M2859,135h36v3h-36z M2907,135h66v3h-66z M2985,135h27v3h-27z M279,138h36v3h-36z M330,138h30v3h-30z M372,138h51v3h-51z M438,138h33v3h-33z M708,138h48v3h-48z M1215,138h42v3h-42z M1260,138h3v3h-3z M1398,138h9v3h-9z M1410,138h30v3h-30z M1452,138h30v3h-30z M1494,138h54v3h-54z M1560,138h33v3h-33z M2010,138h51v3h-51z M2085,138h39v3h-39z M2139,138h27v3h-27z M2178,138h51v3h-51z M2244,138h15v3h-15z M2262,138h12v3h-12z M2346,138h3v3h-3z M2661,138h45v3h-45z M2712,138h3v3h-3z M2814,138h6v3h-6z M2823,138h30v3h-30z M2865,138h30v3h-30z M2910,138h48v3h-48z M2970,138h33v3h-33z M276,141h42v3h-42z M330,141h30v3h-30z M372,141h51v3h-51z M438,141h15v3h-15z M456,141h15v3h-15z M711,141h42v3h-42z M1215,141h3v3h-3z M1221,141h30v3h-30z M1254,141h3v3h-3z M1401,141h39v3h-39z M1452,141h30v3h-30z M1494,141h54v3h-54z M1560,141h33v3h-33z M2013,141h45v3h-45z M2085,141h39v3h-39z M2139,141h27v3h-27z M2178,141h51v3h-51z M2244,141h30v3h-30z M2658,141h24v3h-24z M2685,141h6v3h-6z M2694,141h6v3h-6z M2814,141h39v3h-39z M2865,141h30v3h-30z M2907,141h51v3h-51z M2973,141h12v3h-12z M2988,141h15v3h-15z M276,144h42v3h-42z M330,144h30v3h-30z M372,144h45v3h-45z M420,144h3v3h-3z M438,144h33v3h-33z M717,144h24v3h-24z M744,144h9v3h-9z M1401,144h39v3h-39z M1452,144h30v3h-30z M1494,144h48v3h-48z M1545,144h3v3h-3z M1560,144h33v3h-33z M2013,144h15v3h-15z M2031,144h3v3h-3z M2037,144h6v3h-6z M2046,144h3v3h-3z M2085,144h39v3h-39z M2139,144h30v3h-30z M2172,144h3v3h-3z M2178,144h48v3h-48z M2244,144h9v3h-9z M2256,144h18v3h-18z M2817,144h36v3h-36z M2865,144h30v3h-30z M2910,144h21v3h-21z M2934,144h18v3h-18z M2955,144h3v3h-3z M2970,144h36v3h-36z M276,147h39v3h-39z M330,147h36v3h-36z M369,147h12v3h-12z M387,147h3v3h-3z M396,147h6v3h-6z M405,147h3v3h-3z M414,147h3v3h-3z M435,147h21v3h-21z M459,147h12v3h-12z M732,147h3v3h-3z M1398,147h42v3h-42z M1452,147h42v3h-42z M1500,147h6v3h-6z M1509,147h6v3h-6z M1518,147h6v3h-6z M1527,147h6v3h-6z M1536,147h9v3h-9z M1560,147h24v3h-24z M1587,147h12v3h-12z M2028,147h3v3h-3z M2085,147h39v3h-39z M2139,147h42v3h-42z M2235,147h3v3h-3z M2241,147h33v3h-33z M2814,147h39v3h-39z M2865,147h42v3h-42z M2967,147h12v3h-12z M2982,147h6v3h-6z M2997,147h12v3h-12z M276,150h39v3h-39z M330,150h42v3h-42z M429,150h24v3h-24z M465,150h15v3h-15z M483,150h6v3h-6z M1401,150h39v3h-39z M1452,150h42v3h-42z M1548,150h3v3h-3z M1554,150h24v3h-24z M1590,150h18v3h-18z M2085,150h39v3h-39z M2139,150h24v3h-24z M2166,150h15v3h-15z M2229,150h30v3h-30z M2271,150h15v3h-15z M2289,150h3v3h-3z M2814,150h6v3h-6z M2823,150h30v3h-30z M2865,150h30v3h-30z M2898,150h9v3h-9z M2961,150h27v3h-27z M2997,150h24v3h-24z M3024,150h3v3h-3z M276,153h42v3h-42z M330,153h42v3h-42z M426,153h15v3h-15z M444,153h9v3h-9z M465,153h27v3h-27z M1401,153h39v3h-39z M1452,153h42v3h-42z M1548,153h30v3h-30z M1590,153h21v3h-21z M2085,153h39v3h-39z M2139,153h42v3h-42z M2229,153h30v3h-30z M2271,153h27v3h-27z M2814,153h39v3h-39z M2865,153h42v3h-42z M2958,153h30v3h-30z M2997,153h27v3h-27z M279,156h36v3h-36z M330,156h42v3h-42z M423,156h30v3h-30z M465,156h27v3h-27z M1401,156h39v3h-39z M1452,156h42v3h-42z M1548,156h30v3h-30z M1587,156h27v3h-27z M2088,156h39v3h-39z M2139,156h42v3h-42z M2229,156h30v3h-30z M2268,156h9v3h-9z M2280,156h18v3h-18z M2814,156h39v3h-39z M2865,156h42v3h-42z M2940,156h3v3h-3z M2949,156h33v3h-33z M2985,156h39v3h-39z M276,159h39v3h-39z M330,159h66v3h-66z M399,159h54v3h-54z M459,159h33v3h-33z M1401,159h3v3h-3z M1407,159h33v3h-33z M1452,159h39v3h-39z M1494,159h75v3h-75z M1575,159h36v3h-36z M2085,159h39v3h-39z M2139,159h111v3h-111z M2259,159h39v3h-39z M2814,159h42v3h-42z M2865,159h57v3h-57z M2925,159h54v3h-54z M2988,159h36v3h-36z M279,162h39v3h-39z M330,162h6v3h-6z M339,162h24v3h-24z M366,162h78v3h-78z M459,162h33v3h-33z M1404,162h36v3h-36z M1458,162h108v3h-108z M1578,162h36v3h-36z M2088,162h39v3h-39z M2145,162h15v3h-15z M2166,162h3v3h-3z M2175,162h75v3h-75z M2259,162h39v3h-39z M2817,162h39v3h-39z M2871,162h3v3h-3z M2877,162h15v3h-15z M2898,162h81v3h-81z M2988,162h39v3h-39z M285,165h45v3h-45z M342,165h21v3h-21z M369,165h12v3h-12z M384,165h60v3h-60z M453,165h39v3h-39z M1410,165h39v3h-39z M1467,165h99v3h-99z M1575,165h39v3h-39z M2097,165h39v3h-39z M2151,165h18v3h-18z M2178,165h72v3h-72z M2259,165h39v3h-39z M2826,165h6v3h-6z M2835,165h27v3h-27z M2877,165h30v3h-30z M2910,165h69v3h-69z M2988,165h36v3h-36z M288,168h42v3h-42z M342,168h102v3h-102z M453,168h24v3h-24z M480,168h12v3h-12z M1413,168h24v3h-24z M1440,168h12v3h-12z M1467,168h99v3h-99z M1575,168h6v3h-6z M1584,168h30v3h-30z M2097,168h42v3h-42z M2151,168h102v3h-102z M2256,168h42v3h-42z M2826,168h39v3h-39z M2880,168h93v3h-93z M2976,168h48v3h-48z M288,171h42v3h-42z M345,171h12v3h-12z M360,171h72v3h-72z M444,171h48v3h-48z M1413,171h39v3h-39z M1467,171h87v3h-87z M1566,171h48v3h-48z M2097,171h42v3h-42z M2151,171h87v3h-87z M2250,171h48v3h-48z M2826,171h39v3h-39z M2877,171h87v3h-87z M2979,171h48v3h-48z M294,174h36v3h-36z M345,174h87v3h-87z M444,174h9v3h-9z M456,174h12v3h-12z M471,174h21v3h-21z M1416,174h36v3h-36z M1467,174h87v3h-87z M1566,174h48v3h-48z M2100,174h39v3h-39z M2151,174h87v3h-87z M2250,174h9v3h-9z M2262,174h9v3h-9z M2274,174h24v3h-24z M2829,174h36v3h-36z M2880,174h84v3h-84z M2979,174h45v3h-45z M294,177h36v3h-36z M348,177h81v3h-81z M444,177h48v3h-48z M1425,177h30v3h-30z M1467,177h87v3h-87z M1566,177h48v3h-48z M2103,177h3v3h-3z M2109,177h30v3h-30z M2151,177h87v3h-87z M2247,177h51v3h-51z M2838,177h30v3h-30z M2886,177h75v3h-75z M2976,177h24v3h-24z M3003,177h21v3h-21z M300,180h42v3h-42z M354,180h69v3h-69z M429,180h3v3h-3z M435,180h57v3h-57z M1428,180h6v3h-6z M1440,180h27v3h-27z M1479,180h75v3h-75z M1563,180h51v3h-51z M2112,180h36v3h-36z M2157,180h3v3h-3z M2166,180h66v3h-66z M2238,180h60v3h-60z M2841,180h33v3h-33z M2892,180h135v3h-135z M303,183h42v3h-42z M357,183h63v3h-63z M435,183h57v3h-57z M1428,183h39v3h-39z M1479,183h9v3h-9z M1491,183h45v3h-45z M1539,183h3v3h-3z M1554,183h60v3h-60z M2109,183h42v3h-42z M2163,183h63v3h-63z M2238,183h12v3h-12z M2253,183h36v3h-36z M2292,183h6v3h-6z M2841,183h27v3h-27z M2871,183h6v3h-6z M2892,183h63v3h-63z M2964,183h60v3h-60z M303,186h42v3h-42z M357,186h63v3h-63z M435,186h57v3h-57z M1428,186h39v3h-39z M1482,186h60v3h-60z M1554,186h42v3h-42z M1599,186h15v3h-15z M2109,186h3v3h-3z M2115,186h36v3h-36z M2163,186h63v3h-63z M2238,186h33v3h-33z M2274,186h24v3h-24z M2838,186h42v3h-42z M2892,186h63v3h-63z M2964,186h39v3h-39z M3006,186h18v3h-18z M306,189h39v3h-39z M357,189h66v3h-66z M429,189h6v3h-6z M438,189h51v3h-51z M1428,189h39v3h-39z M1488,189h54v3h-54z M1554,189h6v3h-6z M1563,189h48v3h-48z M2109,189h45v3h-45z M2163,189h63v3h-63z M2238,189h57v3h-57z M2841,189h45v3h-45z M2898,189h57v3h-57z M2964,189h57v3h-57z M3024,189h3v3h-3z M315,192h36v3h-36z M378,192h30v3h-30z M420,192h63v3h-63z M1440,192h39v3h-39z M1497,192h36v3h-36z M1542,192h60v3h-60z M2127,192h33v3h-33z M2181,192h33v3h-33z M2226,192h63v3h-63z M2853,192h36v3h-36z M2910,192h33v3h-33z M2952,192h63v3h-63z M318,195h36v3h-36z M381,195h27v3h-27z M420,195h60v3h-60z M1440,195h39v3h-39z M1497,195h24v3h-24z M1524,195h9v3h-9z M1542,195h60v3h-60z M2127,195h33v3h-33z M2184,195h30v3h-30z M2226,195h54v3h-54z M2283,195h3v3h-3z M2853,195h39v3h-39z M2910,195h33v3h-33z M2952,195h60v3h-60z M321,198h33v3h-33z M381,198h27v3h-27z M420,198h60v3h-60z M1443,198h24v3h-24z M1470,198h12v3h-12z M1497,198h36v3h-36z M1542,198h60v3h-60z M2127,198h33v3h-33z M2184,198h6v3h-6z M2193,198h21v3h-21z M2226,198h42v3h-42z M2271,198h15v3h-15z M2853,198h39v3h-39z M2910,198h30v3h-30z M2952,198h39v3h-39z M2994,198h21v3h-21z M318,201h36v3h-36z M384,201h21v3h-21z M411,201h66v3h-66z M1440,201h42v3h-42z M1497,201h36v3h-36z M1542,201h57v3h-57z M2127,201h33v3h-33z M2187,201h27v3h-27z M2223,201h60v3h-60z M2853,201h24v3h-24z M2880,201h9v3h-9z M2910,201h3v3h-3z M2922,201h3v3h-3z M2952,201h63v3h-63z M321,204h54v3h-54z M411,204h45v3h-45z M459,204h21v3h-21z M1443,204h54v3h-54z M1533,204h27v3h-27z M1563,204h9v3h-9z M1575,204h18v3h-18z M2127,204h45v3h-45z M2214,204h15v3h-15z M2232,204h48v3h-48z M2856,204h54v3h-54z M2943,204h57v3h-57z M330,207h42v3h-42z M375,207h3v3h-3z M402,207h63v3h-63z M1455,207h42v3h-42z M1530,207h60v3h-60z M2127,207h9v3h-9z M2139,207h45v3h-45z M2214,207h60v3h-60z M2865,207h45v3h-45z M2940,207h60v3h-60z M330,210h48v3h-48z M402,210h9v3h-9z M414,210h51v3h-51z M1455,210h45v3h-45z M1527,210h9v3h-9z M1539,210h12v3h-12z M1554,210h9v3h-9z M1566,210h24v3h-24z M2139,210h45v3h-45z M2211,210h9v3h-9z M2223,210h51v3h-51z M2868,210h42v3h-42z M2940,210h6v3h-6z M2949,210h51v3h-51z M330,213h48v3h-48z M405,213h60v3h-60z M1455,213h24v3h-24z M1482,213h18v3h-18z M1527,213h63v3h-63z M2139,213h45v3h-45z M2211,213h63v3h-63z M2868,213h45v3h-45z M2928,213h3v3h-3z M2940,213h57v3h-57z M330,216h75v3h-75z M411,216h54v3h-54z M1455,216h75v3h-75z M1533,216h48v3h-48z M1584,216h3v3h-3z M2139,216h18v3h-18z M2160,216h105v3h-105z M2868,216h69v3h-69z M2940,216h48v3h-48z M333,219h69v3h-69z M411,219h45v3h-45z M1455,219h72v3h-72z M1533,219h45v3h-45z M2142,219h66v3h-66z M2223,219h6v3h-6z M2232,219h33v3h-33z M2868,219h60v3h-60z M2931,219h3v3h-3z M2949,219h39v3h-39z M330,222h69v3h-69z M411,222h45v3h-45z M1458,222h57v3h-57z M1518,222h9v3h-9z M1539,222h39v3h-39z M2142,222h21v3h-21z M2166,222h9v3h-9z M2178,222h21v3h-21z M2202,222h6v3h-6z M2223,222h42v3h-42z M2868,222h15v3h-15z M2886,222h48v3h-48z M2949,222h39v3h-39z M333,225h66v3h-66z M414,225h42v3h-42z M1455,225h72v3h-72z M1539,225h39v3h-39z M2142,225h66v3h-66z M2223,225h36v3h-36z M2868,225h66v3h-66z M2949,225h39v3h-39z M333,228h69v3h-69z M414,228h39v3h-39z M1458,228h66v3h-66z M1539,228h36v3h-36z M2142,228h69v3h-69z M2223,228h33v3h-33z M2871,228h60v3h-60z M2952,228h30v3h-30z M342,231h48v3h-48z M396,231h3v3h-3z M420,231h27v3h-27z M450,231h6v3h-6z M1464,231h51v3h-51z M1539,231h21v3h-21z M1563,231h12v3h-12z M2145,231h51v3h-51z M2205,231h3v3h-3z M2223,231h33v3h-33z M2868,231h60v3h-60z M2931,231h3v3h-3z M2961,231h3v3h-3z M345,234h42v3h-42z M666,234h39v3h-39z M1158,234h51v3h-51z M1467,234h36v3h-36z M1506,234h6v3h-6z M1950,234h6v3h-6z M1959,234h36v3h-36z M2151,234h45v3h-45z M2595,234h9v3h-9z M2607,234h27v3h-27z M2880,234h45v3h-45z M345,237h42v3h-42z M660,237h27v3h-27z M690,237h18v3h-18z M1161,237h48v3h-48z M1467,237h15v3h-15z M1485,237h27v3h-27z M1947,237h51v3h-51z M2151,237h42v3h-42z M2589,237h51v3h-51z M2880,237h45v3h-45z M348,240h36v3h-36z M660,240h48v3h-48z M1158,240h51v3h-51z M1470,240h39v3h-39z M1947,240h51v3h-51z M2154,240h18v3h-18z M2175,240h18v3h-18z M2589,240h51v3h-51z M2883,240h21v3h-21z M2907,240h18v3h-18z M657,243h51v3h-51z M1158,243h12v3h-12z M1173,243h39v3h-39z M1947,243h51v3h-51z M2151,243h6v3h-6z M2160,243h6v3h-6z M2169,243h12v3h-12z M2184,243h9v3h-9z M2589,243h51v3h-51z M648,246h69v3h-69z M735,246h3v3h-3z M741,246h3v3h-3z M747,246h15v3h-15z M765,246h3v3h-3z M1149,246h72v3h-72z M1239,246h3v3h-3z M1245,246h27v3h-27z M1935,246h69v3h-69z M2007,246h3v3h-3z M2025,246h6v3h-6z M2034,246h6v3h-6z M2043,246h15v3h-15z M2577,246h3v3h-3z M2586,246h60v3h-60z M2649,246h3v3h-3z M2667,246h3v3h-3z M2673,246h30v3h-30z M648,249h72v3h-72z M735,249h33v3h-33z M1146,249h78v3h-78z M1236,249h39v3h-39z M1935,249h75v3h-75z M2025,249h39v3h-39z M2580,249h69v3h-69z M2664,249h39v3h-39z M648,252h72v3h-72z M735,252h36v3h-36z M1146,252h78v3h-78z M1236,252h39v3h-39z M1935,252h75v3h-75z M2025,252h12v3h-12z M2040,252h9v3h-9z M2052,252h12v3h-12z M2577,252h12v3h-12z M2592,252h60v3h-60z M2664,252h36v3h-36z M648,255h72v3h-72z M735,255h36v3h-36z M1146,255h66v3h-66z M1215,255h9v3h-9z M1236,255h39v3h-39z M1935,255h75v3h-75z M2025,255h39v3h-39z M2577,255h75v3h-75z M2664,255h39v3h-39z M648,258h81v3h-81z M732,258h42v3h-42z M1146,258h6v3h-6z M1158,258h129v3h-129z M1935,258h78v3h-78z M2022,258h42v3h-42z M2577,258h6v3h-6z M2586,258h9v3h-9z M2598,258h54v3h-54z M2661,258h45v3h-45z M645,261h45v3h-45z M699,261h3v3h-3z M723,261h9v3h-9z M735,261h45v3h-45z M1143,261h48v3h-48z M1224,261h60v3h-60z M1932,261h48v3h-48z M2010,261h60v3h-60z M2574,261h60v3h-60z M2637,261h75v3h-75z M642,264h48v3h-48z M723,264h60v3h-60z M1143,264h48v3h-48z M1224,264h69v3h-69z M1932,264h45v3h-45z M2010,264h63v3h-63z M2574,264h45v3h-45z M2652,264h63v3h-63z M648,267h39v3h-39z M723,267h63v3h-63z M1143,267h48v3h-48z M1224,267h69v3h-69z M1932,267h45v3h-45z M2010,267h63v3h-63z M2574,267h42v3h-42z M2652,267h63v3h-63z M645,270h42v3h-42z M723,270h63v3h-63z M1143,270h45v3h-45z M1227,270h75v3h-75z M1932,270h42v3h-42z M2016,270h57v3h-57z M2574,270h42v3h-42z M2652,270h45v3h-45z M2700,270h18v3h-18z M642,273h36v3h-36z M693,273h9v3h-9z M708,273h3v3h-3z M717,273h9v3h-9z M732,273h60v3h-60z M795,273h3v3h-3z M1143,273h36v3h-36z M1191,273h39v3h-39z M1236,273h66v3h-66z M1926,273h9v3h-9z M1938,273h33v3h-33z M1980,273h12v3h-12z M1995,273h9v3h-9z M2007,273h6v3h-6z M2016,273h66v3h-66z M2568,273h15v3h-15z M2586,273h21v3h-21z M2628,273h6v3h-6z M2649,273h3v3h-3z M2655,273h72v3h-72z M636,276h33v3h-33z M672,276h6v3h-6z M693,276h9v3h-9z M705,276h18v3h-18z M738,276h60v3h-60z M1137,276h24v3h-24z M1164,276h12v3h-12z M1191,276h36v3h-36z M1239,276h45v3h-45z M1287,276h15v3h-15z M1926,276h39v3h-39z M1980,276h36v3h-36z M2028,276h21v3h-21z M2052,276h33v3h-33z M2568,276h36v3h-36z M2619,276h36v3h-36z M2667,276h24v3h-24z M2694,276h9v3h-9z M2706,276h21v3h-21z M633,279h6v3h-6z M642,279h36v3h-36z M693,279h33v3h-33z M738,279h60v3h-60z M1131,279h45v3h-45z M1191,279h9v3h-9z M1203,279h12v3h-12z M1218,279h12v3h-12z M1239,279h66v3h-66z M1923,279h42v3h-42z M1977,279h39v3h-39z M2028,279h57v3h-57z M2565,279h39v3h-39z M2619,279h9v3h-9z M2631,279h24v3h-24z M2667,279h60v3h-60z M633,282h39v3h-39z M693,282h36v3h-36z M738,282h63v3h-63z M1131,282h45v3h-45z M1191,282h42v3h-42z M1236,282h69v3h-69z M1923,282h42v3h-42z M1977,282h39v3h-39z M2028,282h60v3h-60z M2562,282h42v3h-42z M2619,282h36v3h-36z M2667,282h69v3h-69z M633,285h36v3h-36z M675,285h54v3h-54z M741,285h24v3h-24z M768,285h9v3h-9z M780,285h12v3h-12z M795,285h12v3h-12z M1128,285h36v3h-36z M1176,285h30v3h-30z M1209,285h30v3h-30z M1251,285h27v3h-27z M1281,285h30v3h-30z M1923,285h36v3h-36z M1965,285h63v3h-63z M2040,285h54v3h-54z M2562,285h39v3h-39z M2604,285h3v3h-3z M2613,285h48v3h-48z M2667,285h18v3h-18z M2688,285h9v3h-9z M2700,285h39v3h-39z M615,288h45v3h-45z M675,288h60v3h-60z M750,288h57v3h-57z M1116,288h3v3h-3z M1122,288h27v3h-27z M1152,288h9v3h-9z M1176,288h63v3h-63z M1251,288h9v3h-9z M1263,288h51v3h-51z M1908,288h39v3h-39z M1965,288h63v3h-63z M2040,288h57v3h-57z M2550,288h39v3h-39z M2607,288h57v3h-57z M2679,288h60v3h-60z M615,291h45v3h-45z M675,291h63v3h-63z M750,291h57v3h-57z M1116,291h33v3h-33z M1152,291h9v3h-9z M1176,291h66v3h-66z M1251,291h63v3h-63z M1908,291h39v3h-39z M1965,291h63v3h-63z M2043,291h45v3h-45z M2091,291h6v3h-6z M2547,291h42v3h-42z M2601,291h66v3h-66z M2679,291h51v3h-51z M2733,291h6v3h-6z M615,294h36v3h-36z M654,294h6v3h-6z M675,294h66v3h-66z M750,294h3v3h-3z M756,294h54v3h-54z M1116,294h27v3h-27z M1146,294h15v3h-15z M1176,294h78v3h-78z M1260,294h54v3h-54z M1905,294h42v3h-42z M1962,294h66v3h-66z M2040,294h27v3h-27z M2070,294h27v3h-27z M2547,294h30v3h-30z M2580,294h9v3h-9z M2601,294h69v3h-69z M2679,294h60v3h-60z M615,297h45v3h-45z M675,297h72v3h-72z M759,297h6v3h-6z M768,297h39v3h-39z M1113,297h6v3h-6z M1122,297h39v3h-39z M1176,297h78v3h-78z M1263,297h51v3h-51z M1905,297h42v3h-42z M1962,297h78v3h-78z M2049,297h48v3h-48z M2547,297h42v3h-42z M2601,297h78v3h-78z M2688,297h24v3h-24z M2715,297h24v3h-24z M615,300h132v3h-132z M759,300h48v3h-48z M1110,300h39v3h-39z M1161,300h12v3h-12z M1179,300h75v3h-75z M1263,300h51v3h-51z M1905,300h45v3h-45z M1953,300h12v3h-12z M1968,300h72v3h-72z M2049,300h12v3h-12z M2064,300h33v3h-33z M2547,300h42v3h-42z M2598,300h3v3h-3z M2607,300h72v3h-72z M2688,300h51v3h-51z M606,303h42v3h-42z M660,303h15v3h-15z M681,303h57v3h-57z M741,303h9v3h-9z M759,303h48v3h-48z M1104,303h6v3h-6z M1113,303h36v3h-36z M1161,303h21v3h-21z M1191,303h63v3h-63z M1269,303h3v3h-3z M1275,303h39v3h-39z M1902,303h33v3h-33z M1947,303h93v3h-93z M2049,303h48v3h-48z M2535,303h42v3h-42z M2589,303h12v3h-12z M2607,303h72v3h-72z M2688,303h51v3h-51z M606,306h33v3h-33z M642,306h6v3h-6z M660,306h18v3h-18z M690,306h69v3h-69z M771,306h36v3h-36z M1104,306h45v3h-45z M1161,306h6v3h-6z M1170,306h12v3h-12z M1191,306h33v3h-33z M1227,306h33v3h-33z M1278,306h36v3h-36z M1896,306h39v3h-39z M1947,306h21v3h-21z M1977,306h72v3h-72z M2061,306h6v3h-6z M2070,306h9v3h-9z M2082,306h15v3h-15z M2535,306h12v3h-12z M2550,306h27v3h-27z M2589,306h21v3h-21z M2619,306h69v3h-69z M2700,306h39v3h-39z M603,309h45v3h-45z M660,309h21v3h-21z M690,309h69v3h-69z M771,309h36v3h-36z M1101,309h48v3h-48z M1161,309h21v3h-21z M1191,309h72v3h-72z M1275,309h39v3h-39z M1893,309h42v3h-42z M1947,309h21v3h-21z M1977,309h72v3h-72z M2061,309h36v3h-36z M2535,309h42v3h-42z M2589,309h21v3h-21z M2619,309h69v3h-69z M2700,309h39v3h-39z M594,312h3v3h-3z M600,312h48v3h-48z M660,312h21v3h-21z M690,312h69v3h-69z M774,312h33v3h-33z M1095,312h3v3h-3z M1101,312h48v3h-48z M1158,312h27v3h-27z M1191,312h75v3h-75z M1275,312h6v3h-6z M1284,312h30v3h-30z M1893,312h42v3h-42z M1947,312h24v3h-24z M1977,312h72v3h-72z M2061,312h36v3h-36z M2532,312h42v3h-42z M2589,312h21v3h-21z M2619,312h69v3h-69z M2703,312h36v3h-36z M594,315h42v3h-42z M648,315h27v3h-27z M678,315h84v3h-84z M771,315h3v3h-3z M777,315h33v3h-33z M1095,315h42v3h-42z M1149,315h45v3h-45z M1197,315h9v3h-9z M1209,315h6v3h-6z M1218,315h9v3h-9z M1230,315h9v3h-9z M1245,315h30v3h-30z M1287,315h27v3h-27z M1881,315h42v3h-42z M1938,315h114v3h-114z M2058,315h3v3h-3z M2067,315h30v3h-30z M2526,315h39v3h-39z M2577,315h12v3h-12z M2595,315h9v3h-9z M2607,315h33v3h-33z M2643,315h9v3h-9z M2655,315h36v3h-36z M2703,315h3v3h-3z M2709,315h30v3h-30z M591,318h45v3h-45z M648,318h42v3h-42z M741,318h12v3h-12z M756,318h9v3h-9z M780,318h27v3h-27z M1095,318h42v3h-42z M1149,318h45v3h-45z M1248,318h27v3h-27z M1287,318h9v3h-9z M1299,318h9v3h-9z M1884,318h39v3h-39z M1938,318h42v3h-42z M2031,318h30v3h-30z M2070,318h27v3h-27z M2523,318h12v3h-12z M2538,318h27v3h-27z M2577,318h42v3h-42z M2670,318h24v3h-24z M2712,318h27v3h-27z M591,321h45v3h-45z M648,321h42v3h-42z M741,321h27v3h-27z M780,321h27v3h-27z M1095,321h42v3h-42z M1149,321h18v3h-18z M1170,321h24v3h-24z M1245,321h21v3h-21z M1269,321h6v3h-6z M1287,321h24v3h-24z M1881,321h42v3h-42z M1935,321h45v3h-45z M2031,321h30v3h-30z M2070,321h27v3h-27z M2523,321h42v3h-42z M2577,321h21v3h-21z M2601,321h9v3h-9z M2613,321h6v3h-6z M2670,321h30v3h-30z M2712,321h27v3h-27z M594,324h42v3h-42z M648,324h45v3h-45z M741,324h30v3h-30z M780,324h24v3h-24z M807,324h3v3h-3z M1095,324h9v3h-9z M1107,324h24v3h-24z M1134,324h3v3h-3z M1158,324h36v3h-36z M1248,324h33v3h-33z M1284,324h6v3h-6z M1296,324h6v3h-6z M1305,324h6v3h-6z M1881,324h42v3h-42z M1935,324h45v3h-45z M2031,324h30v3h-30z M2070,324h27v3h-27z M2523,324h42v3h-42z M2577,324h42v3h-42z M2670,324h30v3h-30z M2709,324h30v3h-30z M402,327h3v3h-3z M591,327h45v3h-45z M648,327h45v3h-45z M741,327h66v3h-66z M1098,327h39v3h-39z M1149,327h48v3h-48z M1200,327h6v3h-6z M1212,327h3v3h-3z M1221,327h24v3h-24z M1260,327h30v3h-30z M1293,327h12v3h-12z M1884,327h39v3h-39z M1938,327h42v3h-42z M2031,327h39v3h-39z M2076,327h21v3h-21z M2523,327h42v3h-42z M2577,327h42v3h-42z M2676,327h39v3h-39z M2718,327h18v3h-18z M396,330h12v3h-12z M414,330h3v3h-3z M423,330h6v3h-6z M432,330h3v3h-3z M594,330h42v3h-42z M648,330h84v3h-84z M756,330h36v3h-36z M1098,330h39v3h-39z M1149,330h33v3h-33z M1194,330h51v3h-51z M1260,330h36v3h-36z M1302,330h3v3h-3z M1488,330h12v3h-12z M1503,330h9v3h-9z M1518,330h6v3h-6z M1530,330h6v3h-6z M1881,330h42v3h-42z M1935,330h33v3h-33z M1980,330h3v3h-3z M1986,330h36v3h-36z M2046,330h42v3h-42z M2523,330h42v3h-42z M2577,330h33v3h-33z M2628,330h36v3h-36z M2685,330h33v3h-33z M393,333h3v3h-3z M402,333h33v3h-33z M594,333h42v3h-42z M648,333h33v3h-33z M693,333h45v3h-45z M756,333h36v3h-36z M1095,333h42v3h-42z M1149,333h33v3h-33z M1194,333h51v3h-51z M1260,333h33v3h-33z M1485,333h3v3h-3z M1491,333h12v3h-12z M1506,333h24v3h-24z M1533,333h3v3h-3z M1881,333h42v3h-42z M1935,333h33v3h-33z M1983,333h45v3h-45z M2046,333h30v3h-30z M2523,333h42v3h-42z M2577,333h30v3h-30z M2622,333h45v3h-45z M2685,333h33v3h-33z M387,336h54v3h-54z M594,336h42v3h-42z M648,336h30v3h-30z M693,336h42v3h-42z M756,336h36v3h-36z M1095,336h9v3h-9z M1107,336h12v3h-12z M1122,336h15v3h-15z M1149,336h33v3h-33z M1194,336h51v3h-51z M1263,336h39v3h-39z M1485,336h6v3h-6z M1494,336h42v3h-42z M1881,336h42v3h-42z M1935,336h33v3h-33z M1980,336h45v3h-45z M2046,336h30v3h-30z M2523,336h42v3h-42z M2577,336h30v3h-30z M2622,336h45v3h-45z M2685,336h33v3h-33z M387,339h3v3h-3z M393,339h48v3h-48z M594,339h42v3h-42z M648,339h33v3h-33z M693,339h42v3h-42z M756,339h6v3h-6z M768,339h27v3h-27z M1095,339h42v3h-42z M1149,339h21v3h-21z M1173,339h9v3h-9z M1194,339h33v3h-33z M1236,339h12v3h-12z M1251,339h12v3h-12z M1275,339h15v3h-15z M1293,339h6v3h-6z M1485,339h6v3h-6z M1497,339h39v3h-39z M1539,339h6v3h-6z M1881,339h42v3h-42z M1935,339h33v3h-33z M1980,339h48v3h-48z M2049,339h30v3h-30z M2082,339h3v3h-3z M2523,339h42v3h-42z M2577,339h30v3h-30z M2622,339h42v3h-42z M2688,339h6v3h-6z M2697,339h27v3h-27z M387,342h6v3h-6z M402,342h48v3h-48z M594,342h42v3h-42z M648,342h33v3h-33z M693,342h36v3h-36z M735,342h24v3h-24z M771,342h27v3h-27z M1095,342h15v3h-15z M1113,342h24v3h-24z M1149,342h33v3h-33z M1194,342h21v3h-21z M1218,342h6v3h-6z M1239,342h24v3h-24z M1278,342h24v3h-24z M1482,342h12v3h-12z M1500,342h36v3h-36z M1539,342h9v3h-9z M1881,342h45v3h-45z M1935,342h33v3h-33z M1980,342h33v3h-33z M2022,342h18v3h-18z M2043,342h6v3h-6z M2061,342h21v3h-21z M2085,342h3v3h-3z M2523,342h42v3h-42z M2577,342h30v3h-30z M2619,342h30v3h-30z M2664,342h21v3h-21z M2700,342h21v3h-21z M384,345h9v3h-9z M402,345h9v3h-9z M414,345h30v3h-30z M447,345h6v3h-6z M594,345h27v3h-27z M624,345h12v3h-12z M648,345h30v3h-30z M693,345h27v3h-27z M735,345h24v3h-24z M771,345h27v3h-27z M1098,345h39v3h-39z M1149,345h15v3h-15z M1167,345h15v3h-15z M1194,345h30v3h-30z M1239,345h18v3h-18z M1260,345h3v3h-3z M1278,345h24v3h-24z M1482,345h12v3h-12z M1497,345h3v3h-3z M1509,345h21v3h-21z M1533,345h9v3h-9z M1545,345h6v3h-6z M1884,345h39v3h-39z M1935,345h33v3h-33z M1980,345h30v3h-30z M2025,345h24v3h-24z M2061,345h27v3h-27z M2523,345h42v3h-42z M2577,345h30v3h-30z M2622,345h27v3h-27z M2664,345h21v3h-21z M2700,345h24v3h-24z M381,348h12v3h-12z M402,348h51v3h-51z M594,348h42v3h-42z M648,348h33v3h-33z M693,348h27v3h-27z M735,348h24v3h-24z M771,348h6v3h-6z M780,348h18v3h-18z M1095,348h39v3h-39z M1149,348h33v3h-33z M1200,348h6v3h-6z M1209,348h15v3h-15z M1239,348h24v3h-24z M1278,348h24v3h-24z M1482,348h18v3h-18z M1512,348h18v3h-18z M1533,348h21v3h-21z M1881,348h45v3h-45z M1938,348h30v3h-30z M1980,348h30v3h-30z M2022,348h27v3h-27z M2061,348h3v3h-3z M2067,348h6v3h-6z M2076,348h9v3h-9z M2523,348h42v3h-42z M2577,348h30v3h-30z M2622,348h27v3h-27z M2664,348h24v3h-24z M2700,348h24v3h-24z M384,351h15v3h-15z M402,351h3v3h-3z M411,351h51v3h-51z M594,351h33v3h-33z M633,351h3v3h-3z M648,351h33v3h-33z M693,351h27v3h-27z M738,351h15v3h-15z M756,351h3v3h-3z M771,351h27v3h-27z M1095,351h9v3h-9z M1107,351h12v3h-12z M1122,351h9v3h-9z M1140,351h42v3h-42z M1194,351h33v3h-33z M1251,351h9v3h-9z M1278,351h24v3h-24z M1479,351h21v3h-21z M1512,351h45v3h-45z M1881,351h3v3h-3z M1887,351h36v3h-36z M1935,351h33v3h-33z M1980,351h30v3h-30z M2022,351h3v3h-3z M2028,351h21v3h-21z M2061,351h27v3h-27z M2523,351h27v3h-27z M2556,351h9v3h-9z M2577,351h24v3h-24z M2604,351h3v3h-3z M2619,351h30v3h-30z M2667,351h21v3h-21z M2700,351h24v3h-24z M381,354h21v3h-21z M408,354h6v3h-6z M417,354h45v3h-45z M597,354h27v3h-27z M636,354h3v3h-3z M642,354h36v3h-36z M693,354h27v3h-27z M747,354h12v3h-12z M774,354h9v3h-9z M786,354h12v3h-12z M1116,354h12v3h-12z M1140,354h42v3h-42z M1197,354h12v3h-12z M1224,354h12v3h-12z M1251,354h12v3h-12z M1278,354h24v3h-24z M1482,354h24v3h-24z M1509,354h27v3h-27z M1539,354h21v3h-21z M1884,354h3v3h-3z M1893,354h3v3h-3z M1899,354h3v3h-3z M1905,354h12v3h-12z M1932,354h36v3h-36z M1980,354h15v3h-15z M2007,354h15v3h-15z M2037,354h9v3h-9z M2061,354h27v3h-27z M2526,354h3v3h-3z M2532,354h24v3h-24z M2568,354h39v3h-39z M2619,354h18v3h-18z M2646,354h15v3h-15z M2676,354h9v3h-9z M2706,354h18v3h-18z M381,357h24v3h-24z M417,357h45v3h-45z M615,357h9v3h-9z M636,357h12v3h-12z M654,357h27v3h-27z M693,357h15v3h-15z M720,357h12v3h-12z M747,357h12v3h-12z M771,357h27v3h-27z M1119,357h9v3h-9z M1140,357h3v3h-3z M1146,357h36v3h-36z M1194,357h18v3h-18z M1224,357h15v3h-15z M1251,357h12v3h-12z M1278,357h24v3h-24z M1482,357h30v3h-30z M1524,357h39v3h-39z M1905,357h15v3h-15z M1932,357h9v3h-9z M1947,357h21v3h-21z M1983,357h12v3h-12z M2007,357h15v3h-15z M2037,357h12v3h-12z M2061,357h24v3h-24z M2550,357h6v3h-6z M2568,357h12v3h-12z M2586,357h21v3h-21z M2619,357h18v3h-18z M2646,357h15v3h-15z M2676,357h12v3h-12z M2700,357h24v3h-24z M381,360h27v3h-27z M417,360h3v3h-3z M423,360h54v3h-54z M618,360h18v3h-18z M639,360h9v3h-9z M654,360h27v3h-27z M693,360h15v3h-15z M720,360h15v3h-15z M747,360h12v3h-12z M771,360h3v3h-3z M777,360h21v3h-21z M1125,360h18v3h-18z M1152,360h30v3h-30z M1194,360h18v3h-18z M1224,360h15v3h-15z M1251,360h12v3h-12z M1278,360h24v3h-24z M1482,360h30v3h-30z M1524,360h51v3h-51z M1911,360h9v3h-9z M1929,360h39v3h-39z M1980,360h15v3h-15z M2007,360h15v3h-15z M2037,360h12v3h-12z M2061,360h24v3h-24z M2547,360h9v3h-9z M2571,360h36v3h-36z M2619,360h18v3h-18z M2646,360h15v3h-15z M2676,360h9v3h-9z M2700,360h24v3h-24z M150,363h3v3h-3z M384,363h27v3h-27z M423,363h57v3h-57z M522,363h3v3h-3z M531,363h3v3h-3z M618,363h21v3h-21z M651,363h30v3h-30z M693,363h15v3h-15z M717,363h18v3h-18z M747,363h12v3h-12z M771,363h3v3h-3z M777,363h21v3h-21z M1125,363h18v3h-18z M1155,363h27v3h-27z M1194,363h18v3h-18z M1227,363h12v3h-12z M1251,363h12v3h-12z M1278,363h24v3h-24z M1479,363h24v3h-24z M1506,363h6v3h-6z M1524,363h51v3h-51z M1911,363h3v3h-3z M1917,363h12v3h-12z M1941,363h27v3h-27z M1980,363h15v3h-15z M2007,363h12v3h-12z M2037,363h12v3h-12z M2061,363h24v3h-24z M2550,363h21v3h-21z M2580,363h21v3h-21z M2604,363h3v3h-3z M2619,363h18v3h-18z M2649,363h9v3h-9z M2676,363h12v3h-12z M2700,363h24v3h-24z M150,366h30v3h-30z M321,366h27v3h-27z M381,366h18v3h-18z M402,366h15v3h-15z M426,366h54v3h-54z M519,366h6v3h-6z M528,366h6v3h-6z M618,366h21v3h-21z M651,366h30v3h-30z M693,366h12v3h-12z M717,366h15v3h-15z M747,366h12v3h-12z M771,366h27v3h-27z M831,366h3v3h-3z M1125,366h18v3h-18z M1152,366h3v3h-3z M1158,366h24v3h-24z M1194,366h18v3h-18z M1239,366h21v3h-21z M1278,366h24v3h-24z M1329,366h3v3h-3z M1335,366h6v3h-6z M1422,366h3v3h-3z M1428,366h18v3h-18z M1479,366h36v3h-36z M1533,366h45v3h-45z M1626,366h3v3h-3z M1716,366h3v3h-3z M1722,366h6v3h-6z M1731,366h3v3h-3z M1737,366h6v3h-6z M1854,366h3v3h-3z M1908,366h21v3h-21z M1941,366h27v3h-27z M1983,366h12v3h-12z M2013,366h3v3h-3z M2037,366h12v3h-12z M2061,366h27v3h-27z M2550,366h21v3h-21z M2580,366h27v3h-27z M2619,366h15v3h-15z M2658,366h3v3h-3z M2676,366h12v3h-12z M2700,366h24v3h-24z M138,369h3v3h-3z M147,369h3v3h-3z M153,369h27v3h-27z M312,369h36v3h-36z M387,369h30v3h-30z M426,369h3v3h-3z M432,369h3v3h-3z M438,369h36v3h-36z M522,369h6v3h-6z M531,369h18v3h-18z M615,369h27v3h-27z M651,369h30v3h-30z M693,369h24v3h-24z M735,369h24v3h-24z M771,369h27v3h-27z M822,369h18v3h-18z M912,369h24v3h-24z M1059,369h21v3h-21z M1119,369h33v3h-33z M1161,369h21v3h-21z M1194,369h24v3h-24z M1239,369h12v3h-12z M1254,369h6v3h-6z M1278,369h24v3h-24z M1320,369h24v3h-24z M1416,369h33v3h-33z M1482,369h42v3h-42z M1536,369h27v3h-27z M1566,369h6v3h-6z M1629,369h15v3h-15z M1713,369h30v3h-30z M1839,369h6v3h-6z M1848,369h30v3h-30z M1902,369h3v3h-3z M1908,369h24v3h-24z M1941,369h27v3h-27z M1980,369h24v3h-24z M2025,369h3v3h-3z M2031,369h3v3h-3z M2037,369h12v3h-12z M2061,369h24v3h-24z M2097,369h3v3h-3z M2103,369h6v3h-6z M2112,369h9v3h-9z M2193,369h27v3h-27z M2319,369h33v3h-33z M2484,369h9v3h-9z M2496,369h9v3h-9z M2511,369h3v3h-3z M2544,369h27v3h-27z M2580,369h27v3h-27z M2619,369h21v3h-21z M2667,369h15v3h-15z M2685,369h3v3h-3z M2700,369h24v3h-24z M2745,369h27v3h-27z M2835,369h21v3h-21z M2859,369h3v3h-3z M2964,369h18v3h-18z M2985,369h6v3h-6z M3042,369h27v3h-27z M3105,369h3v3h-3z M138,372h3v3h-3z M144,372h36v3h-36z M312,372h12v3h-12z M327,372h27v3h-27z M390,372h30v3h-30z M519,372h24v3h-24z M546,372h6v3h-6z M612,372h36v3h-36z M657,372h24v3h-24z M693,372h21v3h-21z M735,372h24v3h-24z M771,372h9v3h-9z M783,372h15v3h-15z M819,372h18v3h-18z M909,372h12v3h-12z M927,372h6v3h-6z M936,372h3v3h-3z M1059,372h27v3h-27z M1116,372h3v3h-3z M1122,372h27v3h-27z M1164,372h18v3h-18z M1194,372h27v3h-27z M1239,372h12v3h-12z M1275,372h27v3h-27z M1323,372h12v3h-12z M1341,372h3v3h-3z M1350,372h3v3h-3z M1416,372h21v3h-21z M1440,372h9v3h-9z M1482,372h3v3h-3z M1488,372h36v3h-36z M1629,372h15v3h-15z M1653,372h3v3h-3z M1713,372h12v3h-12z M1731,372h9v3h-9z M1839,372h18v3h-18z M1860,372h6v3h-6z M1869,372h6v3h-6z M1902,372h39v3h-39z M1953,372h15v3h-15z M1980,372h24v3h-24z M2025,372h9v3h-9z M2037,372h9v3h-9z M2061,372h21v3h-21z M2100,372h12v3h-12z M2115,372h6v3h-6z M2127,372h3v3h-3z M2193,372h3v3h-3z M2199,372h6v3h-6z M2211,372h6v3h-6z M2322,372h33v3h-33z M2481,372h3v3h-3z M2487,372h6v3h-6z M2496,372h21v3h-21z M2547,372h30v3h-30z M2586,372h21v3h-21z M2619,372h21v3h-21z M2664,372h12v3h-12z M2679,372h3v3h-3z M2700,372h24v3h-24z M2742,372h15v3h-15z M2760,372h9v3h-9z M2772,372h3v3h-3z M2832,372h30v3h-30z M2961,372h3v3h-3z M2967,372h6v3h-6z M2976,372h18v3h-18z M3039,372h33v3h-33z M3096,372h3v3h-3z M3105,372h3v3h-3z M126,375h3v3h-3z M138,375h3v3h-3z M144,375h30v3h-30z M177,375h3v3h-3z M312,375h39v3h-39z M387,375h3v3h-3z M393,375h33v3h-33z M516,375h12v3h-12z M531,375h18v3h-18z M612,375h36v3h-36z M663,375h18v3h-18z M693,375h12v3h-12z M711,375h6v3h-6z M735,375h6v3h-6z M744,375h3v3h-3z M762,375h30v3h-30z M795,375h3v3h-3z M819,375h9v3h-9z M831,375h12v3h-12z M855,375h3v3h-3z M909,375h21v3h-21z M933,375h3v3h-3z M1059,375h6v3h-6z M1068,375h18v3h-18z M1119,375h24v3h-24z M1146,375h6v3h-6z M1164,375h18v3h-18z M1194,375h18v3h-18z M1215,375h6v3h-6z M1239,375h6v3h-6z M1248,375h3v3h-3z M1269,375h30v3h-30z M1323,375h9v3h-9z M1335,375h15v3h-15z M1359,375h3v3h-3z M1413,375h39v3h-39z M1458,375h3v3h-3z M1491,375h33v3h-33z M1623,375h15v3h-15z M1641,375h3v3h-3z M1650,375h3v3h-3z M1713,375h3v3h-3z M1719,375h3v3h-3z M1725,375h6v3h-6z M1734,375h6v3h-6z M1842,375h3v3h-3z M1848,375h18v3h-18z M1869,375h3v3h-3z M1875,375h3v3h-3z M1905,375h36v3h-36z M1953,375h15v3h-15z M1980,375h24v3h-24z M2025,375h12v3h-12z M2058,375h24v3h-24z M2097,375h30v3h-30z M2130,375h3v3h-3z M2196,375h24v3h-24z M2328,375h18v3h-18z M2349,375h3v3h-3z M2484,375h9v3h-9z M2496,375h6v3h-6z M2505,375h12v3h-12z M2544,375h6v3h-6z M2553,375h24v3h-24z M2595,375h12v3h-12z M2619,375h24v3h-24z M2664,375h12v3h-12z M2688,375h33v3h-33z M2745,375h3v3h-3z M2751,375h3v3h-3z M2757,375h12v3h-12z M2778,375h3v3h-3z M2832,375h6v3h-6z M2841,375h3v3h-3z M2847,375h6v3h-6z M2856,375h3v3h-3z M2964,375h18v3h-18z M2985,375h12v3h-12z M3039,375h15v3h-15z M3057,375h6v3h-6z M3066,375h3v3h-3z M3096,375h9v3h-9z M129,378h3v3h-3z M135,378h3v3h-3z M180,378h6v3h-6z M309,378h3v3h-3z M354,378h3v3h-3z M396,378h30v3h-30z M516,378h9v3h-9z M531,378h6v3h-6z M540,378h6v3h-6z M549,378h6v3h-6z M612,378h42v3h-42z M663,378h18v3h-18z M693,378h54v3h-54z M759,378h24v3h-24z M819,378h9v3h-9z M834,378h3v3h-3z M855,378h3v3h-3z M903,378h3v3h-3z M909,378h9v3h-9z M924,378h6v3h-6z M1056,378h6v3h-6z M1080,378h9v3h-9z M1116,378h39v3h-39z M1167,378h24v3h-24z M1197,378h57v3h-57z M1266,378h24v3h-24z M1314,378h9v3h-9z M1401,378h3v3h-3z M1407,378h9v3h-9z M1425,378h3v3h-3z M1455,378h9v3h-9z M1494,378h36v3h-36z M1620,378h9v3h-9z M1704,378h3v3h-3z M1839,378h3v3h-3z M1857,378h3v3h-3z M1866,378h3v3h-3z M1872,378h6v3h-6z M1902,378h39v3h-39z M1953,378h15v3h-15z M1980,378h54v3h-54z M2052,378h9v3h-9z M2064,378h9v3h-9z M2103,378h21v3h-21z M2133,378h3v3h-3z M2193,378h3v3h-3z M2199,378h3v3h-3z M2208,378h3v3h-3z M2340,378h18v3h-18z M2484,378h3v3h-3z M2493,378h9v3h-9z M2505,378h3v3h-3z M2514,378h6v3h-6z M2544,378h39v3h-39z M2595,378h12v3h-12z M2619,378h18v3h-18z M2640,378h33v3h-33z M2688,378h24v3h-24z M2757,378h3v3h-3z M2775,378h6v3h-6z M2832,378h9v3h-9z M2844,378h9v3h-9z M2856,378h3v3h-3z M2961,378h9v3h-9z M2973,378h9v3h-9z M2985,378h9v3h-9z M2997,378h6v3h-6z M3039,378h18v3h-18z M3060,378h12v3h-12z M3093,378h3v3h-3z M3099,378h6v3h-6z M126,381h9v3h-9z M180,381h15v3h-15z M297,381h9v3h-9z M309,381h3v3h-3z M357,381h3v3h-3z M363,381h3v3h-3z M393,381h27v3h-27z M423,381h12v3h-12z M447,381h3v3h-3z M456,381h3v3h-3z M465,381h6v3h-6z M504,381h9v3h-9z M519,381h6v3h-6z M552,381h3v3h-3z M612,381h42v3h-42z M663,381h33v3h-33z M705,381h42v3h-42z M759,381h21v3h-21z M804,381h3v3h-3z M810,381h12v3h-12z M855,381h6v3h-6z M900,381h9v3h-9z M1044,381h12v3h-12z M1086,381h3v3h-3z M1116,381h18v3h-18z M1137,381h24v3h-24z M1176,381h21v3h-21z M1209,381h45v3h-45z M1266,381h6v3h-6z M1275,381h15v3h-15z M1308,381h9v3h-9z M1320,381h3v3h-3z M1359,381h6v3h-6z M1404,381h6v3h-6z M1413,381h3v3h-3z M1461,381h3v3h-3z M1494,381h39v3h-39z M1548,381h6v3h-6z M1557,381h15v3h-15z M1614,381h6v3h-6z M1623,381h3v3h-3z M1659,381h9v3h-9z M1704,381h6v3h-6z M1827,381h12v3h-12z M1881,381h3v3h-3z M1887,381h3v3h-3z M1902,381h54v3h-54z M1962,381h3v3h-3z M1968,381h15v3h-15z M1995,381h39v3h-39z M2049,381h24v3h-24z M2085,381h3v3h-3z M2091,381h12v3h-12z M2136,381h6v3h-6z M2178,381h12v3h-12z M2313,381h3v3h-3z M2358,381h12v3h-12z M2475,381h3v3h-3z M2514,381h3v3h-3z M2520,381h3v3h-3z M2526,381h3v3h-3z M2544,381h42v3h-42z M2595,381h33v3h-33z M2634,381h39v3h-39z M2688,381h24v3h-24z M2730,381h3v3h-3z M2736,381h9v3h-9z M2778,381h6v3h-6z M2823,381h9v3h-9z M2952,381h6v3h-6z M2994,381h12v3h-12z M3033,381h6v3h-6z M3078,381h3v3h-3z M3093,381h12v3h-12z M117,384h9v3h-9z M132,384h6v3h-6z M180,384h12v3h-12z M297,384h3v3h-3z M303,384h6v3h-6z M357,384h3v3h-3z M363,384h3v3h-3z M393,384h3v3h-3z M399,384h9v3h-9z M411,384h24v3h-24z M450,384h30v3h-30z M510,384h3v3h-3z M522,384h3v3h-3z M552,384h9v3h-9z M612,384h51v3h-51z M675,384h18v3h-18z M705,384h39v3h-39z M759,384h21v3h-21z M807,384h15v3h-15z M855,384h6v3h-6z M894,384h6v3h-6z M903,384h6v3h-6z M1047,384h9v3h-9z M1086,384h3v3h-3z M1116,384h51v3h-51z M1179,384h9v3h-9z M1191,384h6v3h-6z M1209,384h30v3h-30z M1242,384h6v3h-6z M1266,384h18v3h-18z M1287,384h3v3h-3z M1305,384h9v3h-9z M1317,384h3v3h-3z M1404,384h12v3h-12z M1455,384h12v3h-12z M1491,384h42v3h-42z M1545,384h9v3h-9z M1560,384h18v3h-18z M1608,384h9v3h-9z M1623,384h6v3h-6z M1662,384h3v3h-3z M1701,384h3v3h-3z M1707,384h6v3h-6z M1830,384h9v3h-9z M1881,384h6v3h-6z M1905,384h48v3h-48z M1965,384h18v3h-18z M1995,384h30v3h-30z M2028,384h9v3h-9z M2049,384h24v3h-24z M2085,384h9v3h-9z M2097,384h3v3h-3z M2139,384h3v3h-3z M2178,384h3v3h-3z M2184,384h6v3h-6z M2310,384h9v3h-9z M2361,384h3v3h-3z M2469,384h3v3h-3z M2475,384h6v3h-6z M2514,384h12v3h-12z M2529,384h3v3h-3z M2544,384h51v3h-51z M2604,384h18v3h-18z M2634,384h36v3h-36z M2685,384h9v3h-9z M2697,384h15v3h-15z M2727,384h9v3h-9z M2739,384h3v3h-3z M2781,384h3v3h-3z M2820,384h12v3h-12z M2955,384h6v3h-6z M2997,384h3v3h-3z M3003,384h3v3h-3z M3027,384h6v3h-6z M3036,384h6v3h-6z M3072,384h3v3h-3z M3078,384h6v3h-6z M3093,384h6v3h-6z M114,387h12v3h-12z M183,387h12v3h-12z M288,387h6v3h-6z M297,387h3v3h-3z M303,387h6v3h-6z M312,387h3v3h-3z M357,387h9v3h-9z M399,387h36v3h-36z M447,387h18v3h-18z M468,387h12v3h-12z M507,387h9v3h-9z M552,387h9v3h-9z M615,387h48v3h-48z M675,387h18v3h-18z M708,387h6v3h-6z M717,387h6v3h-6z M726,387h9v3h-9z M738,387h3v3h-3z M759,387h21v3h-21z M804,387h18v3h-18z M855,387h6v3h-6z M894,387h12v3h-12z M954,387h3v3h-3z M1044,387h9v3h-9z M1089,387h9v3h-9z M1116,387h51v3h-51z M1179,387h18v3h-18z M1212,387h33v3h-33z M1260,387h18v3h-18z M1311,387h6v3h-6z M1359,387h6v3h-6z M1401,387h9v3h-9z M1461,387h9v3h-9z M1497,387h36v3h-36z M1545,387h9v3h-9z M1560,387h18v3h-18z M1611,387h3v3h-3z M1617,387h3v3h-3z M1623,387h6v3h-6z M1659,387h6v3h-6z M1698,387h12v3h-12z M1830,387h9v3h-9z M1878,387h12v3h-12z M1905,387h48v3h-48z M1965,387h18v3h-18z M1998,387h33v3h-33z M2049,387h15v3h-15z M2088,387h9v3h-9z M2136,387h6v3h-6z M2175,387h6v3h-6z M2184,387h3v3h-3z M2310,387h3v3h-3z M2358,387h12v3h-12z M2472,387h6v3h-6z M2520,387h9v3h-9z M2544,387h51v3h-51z M2604,387h18v3h-18z M2640,387h30v3h-30z M2688,387h12v3h-12z M2703,387h3v3h-3z M2730,387h15v3h-15z M2778,387h6v3h-6z M2820,387h9v3h-9z M2832,387h3v3h-3z M2952,387h3v3h-3z M3000,387h3v3h-3z M3006,387h3v3h-3z M3027,387h3v3h-3z M3036,387h6v3h-6z M3075,387h9v3h-9z M3099,387h6v3h-6z M114,390h12v3h-12z M147,390h3v3h-3z M156,390h3v3h-3z M189,390h6v3h-6z M282,390h18v3h-18z M357,390h6v3h-6z M366,390h3v3h-3z M405,390h30v3h-30z M447,390h6v3h-6z M462,390h18v3h-18z M507,390h6v3h-6z M552,390h6v3h-6z M618,390h48v3h-48z M672,390h30v3h-30z M735,390h3v3h-3z M750,390h12v3h-12z M765,390h6v3h-6z M804,390h12v3h-12z M855,390h3v3h-3z M861,390h3v3h-3z M894,390h12v3h-12z M1047,390h9v3h-9z M1086,390h3v3h-3z M1119,390h51v3h-51z M1176,390h24v3h-24z M1257,390h21v3h-21z M1305,390h9v3h-9z M1392,390h3v3h-3z M1401,390h6v3h-6z M1461,390h9v3h-9z M1497,390h39v3h-39z M1548,390h6v3h-6z M1560,390h18v3h-18z M1611,390h9v3h-9z M1647,390h6v3h-6z M1659,390h3v3h-3z M1665,390h3v3h-3z M1701,390h12v3h-12z M1764,390h3v3h-3z M1827,390h12v3h-12z M1878,390h9v3h-9z M1905,390h51v3h-51z M1962,390h30v3h-30z M2043,390h18v3h-18z M2085,390h9v3h-9z M2136,390h3v3h-3z M2175,390h9v3h-9z M2241,390h9v3h-9z M2313,390h6v3h-6z M2364,390h6v3h-6z M2472,390h3v3h-3z M2520,390h9v3h-9z M2547,390h48v3h-48z M2604,390h21v3h-21z M2679,390h21v3h-21z M2733,390h6v3h-6z M2778,390h9v3h-9z M2811,390h18v3h-18z M2880,390h6v3h-6z M2952,390h6v3h-6z M3000,390h9v3h-9z M3027,390h12v3h-12z M3075,390h3v3h-3z M3093,390h12v3h-12z M114,393h6v3h-6z M150,393h15v3h-15z M189,393h3v3h-3z M195,393h9v3h-9z M288,393h12v3h-12z M321,393h18v3h-18z M357,393h9v3h-9z M405,393h30v3h-30z M447,393h9v3h-9z M462,393h18v3h-18z M504,393h12v3h-12z M537,393h6v3h-6z M546,393h9v3h-9z M558,393h3v3h-3z M588,393h9v3h-9z M618,393h84v3h-84z M750,393h21v3h-21z M804,393h12v3h-12z M837,393h18v3h-18z M891,393h6v3h-6z M921,393h3v3h-3z M930,393h6v3h-6z M954,393h6v3h-6z M1053,393h15v3h-15z M1086,393h3v3h-3z M1122,393h42v3h-42z M1167,393h39v3h-39z M1257,393h18v3h-18z M1308,393h3v3h-3z M1314,393h3v3h-3z M1338,393h21v3h-21z M1389,393h9v3h-9z M1401,393h3v3h-3z M1428,393h6v3h-6z M1437,393h3v3h-3z M1464,393h9v3h-9z M1500,393h33v3h-33z M1545,393h9v3h-9z M1560,393h18v3h-18z M1611,393h9v3h-9z M1641,393h18v3h-18z M1692,393h6v3h-6z M1701,393h3v3h-3z M1725,393h6v3h-6z M1734,393h6v3h-6z M1761,393h3v3h-3z M1767,393h3v3h-3z M1839,393h9v3h-9z M1851,393h3v3h-3z M1860,393h3v3h-3z M1878,393h9v3h-9z M1911,393h36v3h-36z M1950,393h42v3h-42z M2043,393h18v3h-18z M2088,393h9v3h-9z M2118,393h6v3h-6z M2127,393h15v3h-15z M2166,393h3v3h-3z M2172,393h3v3h-3z M2208,393h6v3h-6z M2241,393h3v3h-3z M2247,393h6v3h-6z M2319,393h9v3h-9z M2331,393h3v3h-3z M2358,393h12v3h-12z M2484,393h6v3h-6z M2493,393h6v3h-6z M2523,393h6v3h-6z M2550,393h81v3h-81z M2679,393h18v3h-18z M2727,393h12v3h-12z M2766,393h3v3h-3z M2775,393h3v3h-3z M2781,393h3v3h-3z M2814,393h9v3h-9z M2844,393h9v3h-9z M2856,393h3v3h-3z M2880,393h3v3h-3z M2958,393h3v3h-3z M2964,393h6v3h-6z M2973,393h6v3h-6z M2997,393h12v3h-12z M3030,393h9v3h-9z M3057,393h3v3h-3z M3063,393h12v3h-12z M3093,393h9v3h-9z M111,396h18v3h-18z M147,396h21v3h-21z M189,396h15v3h-15z M279,396h21v3h-21z M318,396h24v3h-24z M357,396h9v3h-9z M408,396h27v3h-27z M447,396h33v3h-33z M504,396h12v3h-12z M531,396h21v3h-21z M582,396h12v3h-12z M597,396h3v3h-3z M618,396h3v3h-3z M627,396h75v3h-75z M750,396h3v3h-3z M756,396h12v3h-12z M804,396h6v3h-6z M813,396h3v3h-3z M834,396h9v3h-9z M846,396h6v3h-6z M879,396h18v3h-18z M921,396h18v3h-18z M957,396h3v3h-3z M963,396h3v3h-3z M1014,396h6v3h-6z M1023,396h3v3h-3z M1053,396h21v3h-21z M1089,396h9v3h-9z M1125,396h84v3h-84z M1257,396h3v3h-3z M1263,396h6v3h-6z M1305,396h12v3h-12z M1335,396h12v3h-12z M1353,396h6v3h-6z M1383,396h6v3h-6z M1392,396h12v3h-12z M1422,396h24v3h-24z M1461,396h3v3h-3z M1500,396h3v3h-3z M1506,396h30v3h-30z M1545,396h33v3h-33z M1611,396h3v3h-3z M1617,396h3v3h-3z M1638,396h12v3h-12z M1653,396h6v3h-6z M1689,396h15v3h-15z M1725,396h6v3h-6z M1734,396h6v3h-6z M1764,396h3v3h-3z M1842,396h21v3h-21z M1878,396h12v3h-12z M1920,396h72v3h-72z M2040,396h21v3h-21z M2085,396h12v3h-12z M2115,396h21v3h-21z M2166,396h15v3h-15z M2199,396h9v3h-9z M2211,396h9v3h-9z M2238,396h12v3h-12z M2319,396h24v3h-24z M2358,396h3v3h-3z M2364,396h6v3h-6z M2484,396h21v3h-21z M2523,396h9v3h-9z M2553,396h78v3h-78z M2679,396h15v3h-15z M2727,396h6v3h-6z M2736,396h3v3h-3z M2757,396h21v3h-21z M2814,396h9v3h-9z M2844,396h3v3h-3z M2850,396h12v3h-12z M2880,396h9v3h-9z M2964,396h21v3h-21z M3000,396h9v3h-9z M3027,396h3v3h-3z M3033,396h6v3h-6z M3054,396h21v3h-21z M3093,396h12v3h-12z M114,399h12v3h-12z M150,399h9v3h-9z M165,399h3v3h-3z M192,399h15v3h-15z M282,399h9v3h-9z M321,399h9v3h-9z M333,399h9v3h-9z M363,399h6v3h-6z M408,399h30v3h-30z M447,399h3v3h-3z M453,399h27v3h-27z M504,399h12v3h-12z M534,399h9v3h-9z M546,399h6v3h-6z M582,399h9v3h-9z M627,399h78v3h-78z M708,399h3v3h-3z M714,399h6v3h-6z M726,399h45v3h-45z M804,399h6v3h-6z M837,399h18v3h-18z M879,399h3v3h-3z M885,399h12v3h-12z M921,399h6v3h-6z M933,399h3v3h-3z M957,399h6v3h-6z M966,399h3v3h-3z M1014,399h9v3h-9z M1053,399h6v3h-6z M1062,399h12v3h-12z M1086,399h6v3h-6z M1137,399h93v3h-93z M1233,399h33v3h-33z M1305,399h6v3h-6z M1338,399h18v3h-18z M1383,399h15v3h-15z M1401,399h3v3h-3z M1428,399h3v3h-3z M1434,399h9v3h-9z M1464,399h6v3h-6z M1512,399h24v3h-24z M1545,399h33v3h-33z M1608,399h3v3h-3z M1614,399h6v3h-6z M1641,399h15v3h-15z M1686,399h6v3h-6z M1695,399h6v3h-6z M1725,399h6v3h-6z M1734,399h6v3h-6z M1761,399h12v3h-12z M1794,399h3v3h-3z M1800,399h3v3h-3z M1839,399h9v3h-9z M1851,399h9v3h-9z M1878,399h9v3h-9z M1923,399h30v3h-30z M1956,399h39v3h-39z M2001,399h3v3h-3z M2007,399h9v3h-9z M2019,399h9v3h-9z M2031,399h18v3h-18z M2085,399h9v3h-9z M2115,399h9v3h-9z M2127,399h3v3h-3z M2163,399h6v3h-6z M2172,399h6v3h-6z M2205,399h3v3h-3z M2211,399h6v3h-6z M2238,399h9v3h-9z M2277,399h3v3h-3z M2283,399h6v3h-6z M2319,399h9v3h-9z M2331,399h9v3h-9z M2358,399h12v3h-12z M2481,399h9v3h-9z M2493,399h6v3h-6z M2526,399h3v3h-3z M2553,399h78v3h-78z M2637,399h6v3h-6z M2649,399h3v3h-3z M2658,399h6v3h-6z M2667,399h18v3h-18z M2730,399h6v3h-6z M2760,399h9v3h-9z M2775,399h3v3h-3z M2808,399h12v3h-12z M2844,399h3v3h-3z M2853,399h6v3h-6z M2880,399h3v3h-3z M2886,399h3v3h-3z M2961,399h9v3h-9z M2973,399h6v3h-6z M3003,399h3v3h-3z M3027,399h6v3h-6z M3057,399h18v3h-18z M3099,399h3v3h-3z M114,402h6v3h-6z M123,402h3v3h-3z M147,402h12v3h-12z M162,402h6v3h-6z M189,402h3v3h-3z M198,402h9v3h-9z M279,402h21v3h-21z M318,402h6v3h-6z M327,402h12v3h-12z M360,402h9v3h-9z M414,402h21v3h-21z M447,402h30v3h-30z M504,402h3v3h-3z M510,402h6v3h-6z M531,402h24v3h-24z M582,402h6v3h-6z M633,402h123v3h-123z M804,402h6v3h-6z M813,402h3v3h-3z M834,402h3v3h-3z M843,402h6v3h-6z M852,402h3v3h-3z M879,402h9v3h-9z M891,402h6v3h-6z M918,402h9v3h-9z M930,402h9v3h-9z M954,402h6v3h-6z M1014,402h3v3h-3z M1023,402h3v3h-3z M1056,402h9v3h-9z M1068,402h12v3h-12z M1083,402h15v3h-15z M1137,402h33v3h-33z M1173,402h87v3h-87z M1305,402h6v3h-6z M1314,402h3v3h-3z M1335,402h6v3h-6z M1344,402h12v3h-12z M1383,402h3v3h-3z M1392,402h3v3h-3z M1401,402h3v3h-3z M1425,402h3v3h-3z M1431,402h6v3h-6z M1440,402h3v3h-3z M1461,402h12v3h-12z M1512,402h24v3h-24z M1548,402h30v3h-30z M1611,402h9v3h-9z M1641,402h3v3h-3z M1647,402h12v3h-12z M1686,402h9v3h-9z M1722,402h21v3h-21z M1770,402h3v3h-3z M1791,402h6v3h-6z M1800,402h6v3h-6z M1839,402h3v3h-3z M1845,402h18v3h-18z M1878,402h3v3h-3z M1884,402h3v3h-3z M1923,402h36v3h-36z M1965,402h84v3h-84z M2091,402h3v3h-3z M2115,402h21v3h-21z M2163,402h18v3h-18z M2199,402h15v3h-15z M2217,402h3v3h-3z M2238,402h15v3h-15z M2274,402h6v3h-6z M2283,402h3v3h-3z M2325,402h18v3h-18z M2358,402h3v3h-3z M2364,402h3v3h-3z M2448,402h3v3h-3z M2487,402h18v3h-18z M2520,402h9v3h-9z M2565,402h78v3h-78z M2646,402h39v3h-39z M2730,402h9v3h-9z M2757,402h12v3h-12z M2772,402h3v3h-3z M2802,402h3v3h-3z M2808,402h3v3h-3z M2814,402h6v3h-6z M2847,402h15v3h-15z M2880,402h6v3h-6z M2919,402h3v3h-3z M2967,402h6v3h-6z M2976,402h9v3h-9z M3000,402h6v3h-6z M3027,402h6v3h-6z M3036,402h3v3h-3z M3054,402h6v3h-6z M3063,402h6v3h-6z M3072,402h3v3h-3z M3093,402h12v3h-12z M117,405h9v3h-9z M150,405h15v3h-15z M192,405h3v3h-3z M198,405h9v3h-9z M279,405h6v3h-6z M288,405h12v3h-12z M321,405h3v3h-3z M327,405h12v3h-12z M357,405h12v3h-12z M414,405h21v3h-21z M447,405h24v3h-24z M504,405h12v3h-12z M531,405h6v3h-6z M540,405h12v3h-12z M573,405h3v3h-3z M579,405h12v3h-12z M633,405h33v3h-33z M675,405h81v3h-81z M804,405h3v3h-3z M810,405h3v3h-3z M837,405h3v3h-3z M843,405h9v3h-9z M855,405h3v3h-3z M879,405h9v3h-9z M891,405h3v3h-3z M921,405h3v3h-3z M927,405h9v3h-9z M954,405h6v3h-6z M963,405h3v3h-3z M1017,405h9v3h-9z M1062,405h3v3h-3z M1068,405h9v3h-9z M1083,405h3v3h-3z M1092,405h3v3h-3z M1140,405h30v3h-30z M1179,405h84v3h-84z M1305,405h3v3h-3z M1338,405h3v3h-3z M1344,405h3v3h-3z M1353,405h3v3h-3z M1383,405h18v3h-18z M1428,405h6v3h-6z M1437,405h6v3h-6z M1461,405h9v3h-9z M1515,405h21v3h-21z M1545,405h24v3h-24z M1572,405h6v3h-6z M1611,405h6v3h-6z M1641,405h3v3h-3z M1647,405h9v3h-9z M1680,405h3v3h-3z M1686,405h12v3h-12z M1701,405h3v3h-3z M1725,405h3v3h-3z M1734,405h6v3h-6z M1761,405h9v3h-9z M1791,405h3v3h-3z M1800,405h3v3h-3z M1842,405h6v3h-6z M1851,405h6v3h-6z M1881,405h9v3h-9z M1926,405h33v3h-33z M1965,405h84v3h-84z M2085,405h9v3h-9z M2118,405h3v3h-3z M2127,405h3v3h-3z M2160,405h3v3h-3z M2166,405h6v3h-6z M2175,405h6v3h-6z M2208,405h9v3h-9z M2220,405h3v3h-3z M2238,405h3v3h-3z M2247,405h3v3h-3z M2277,405h6v3h-6z M2286,405h3v3h-3z M2325,405h3v3h-3z M2331,405h3v3h-3z M2337,405h3v3h-3z M2358,405h12v3h-12z M2445,405h9v3h-9z M2478,405h3v3h-3z M2484,405h6v3h-6z M2493,405h6v3h-6z M2520,405h9v3h-9z M2562,405h36v3h-36z M2604,405h81v3h-81z M2730,405h9v3h-9z M2760,405h15v3h-15z M2802,405h15v3h-15z M2847,405h6v3h-6z M2856,405h3v3h-3z M2880,405h12v3h-12z M2919,405h3v3h-3z M2964,405h6v3h-6z M2976,405h3v3h-3z M2997,405h12v3h-12z M3033,405h6v3h-6z M3057,405h6v3h-6z M3066,405h3v3h-3z M3093,405h12v3h-12z M123,408h6v3h-6z M132,408h3v3h-3z M204,408h6v3h-6z M213,408h3v3h-3z M282,408h18v3h-18z M357,408h6v3h-6z M366,408h3v3h-3z M417,408h12v3h-12z M432,408h6v3h-6z M447,408h24v3h-24z M504,408h12v3h-12z M573,408h18v3h-18z M633,408h12v3h-12z M648,408h15v3h-15z M678,408h78v3h-78z M804,408h12v3h-12z M879,408h6v3h-6z M891,408h6v3h-6z M927,408h3v3h-3z M954,408h15v3h-15z M1017,408h6v3h-6z M1068,408h3v3h-3z M1086,408h3v3h-3z M1137,408h12v3h-12z M1155,408h15v3h-15z M1182,408h72v3h-72z M1305,408h12v3h-12z M1380,408h3v3h-3z M1386,408h6v3h-6z M1398,408h6v3h-6z M1461,408h6v3h-6z M1512,408h6v3h-6z M1524,408h9v3h-9z M1545,408h18v3h-18z M1608,408h12v3h-12z M1683,408h6v3h-6z M1692,408h6v3h-6z M1701,408h3v3h-3z M1758,408h12v3h-12z M1800,408h3v3h-3z M1851,408h3v3h-3z M1878,408h9v3h-9z M1929,408h15v3h-15z M1947,408h6v3h-6z M1956,408h3v3h-3z M1965,408h3v3h-3z M1971,408h78v3h-78z M2085,408h6v3h-6z M2094,408h3v3h-3z M2157,408h24v3h-24z M2211,408h3v3h-3z M2235,408h15v3h-15z M2274,408h3v3h-3z M2286,408h15v3h-15z M2331,408h3v3h-3z M2358,408h12v3h-12z M2445,408h6v3h-6z M2520,408h6v3h-6z M2568,408h3v3h-3z M2574,408h18v3h-18z M2595,408h3v3h-3z M2607,408h78v3h-78z M2727,408h12v3h-12z M2793,408h3v3h-3z M2799,408h12v3h-12z M2814,408h6v3h-6z M2880,408h9v3h-9z M2919,408h3v3h-3z M2925,408h9v3h-9z M2997,408h12v3h-12z M3027,408h12v3h-12z M3093,408h3v3h-3z M3099,408h6v3h-6z M126,411h12v3h-12z M171,411h12v3h-12z M207,411h9v3h-9z M264,411h3v3h-3z M270,411h9v3h-9z M300,411h9v3h-9z M345,411h9v3h-9z M357,411h12v3h-12z M423,411h12v3h-12z M450,411h12v3h-12z M507,411h15v3h-15z M570,411h3v3h-3z M576,411h6v3h-6z M693,411h51v3h-51z M747,411h3v3h-3z M807,411h12v3h-12z M822,411h3v3h-3z M867,411h15v3h-15z M897,411h3v3h-3z M903,411h3v3h-3z M945,411h15v3h-15z M1020,411h21v3h-21z M1194,411h51v3h-51z M1305,411h21v3h-21z M1374,411h9v3h-9z M1404,411h3v3h-3z M1410,411h3v3h-3z M1449,411h6v3h-6z M1461,411h9v3h-9z M1527,411h9v3h-9z M1545,411h15v3h-15z M1563,411h3v3h-3z M1608,411h18v3h-18z M1674,411h12v3h-12z M1704,411h6v3h-6z M1755,411h3v3h-3z M1761,411h3v3h-3z M1803,411h15v3h-15z M1875,411h6v3h-6z M1884,411h3v3h-3z M1980,411h54v3h-54z M2085,411h9v3h-9z M2100,411h3v3h-3z M2151,411h12v3h-12z M2184,411h3v3h-3z M2226,411h3v3h-3z M2232,411h3v3h-3z M2238,411h3v3h-3z M2292,411h9v3h-9z M2304,411h3v3h-3z M2358,411h3v3h-3z M2364,411h6v3h-6z M2451,411h6v3h-6z M2460,411h3v3h-3z M2466,411h3v3h-3z M2517,411h12v3h-12z M2619,411h54v3h-54z M2730,411h18v3h-18z M2793,411h12v3h-12z M2820,411h12v3h-12z M2874,411h6v3h-6z M2928,411h9v3h-9z M2988,411h6v3h-6z M3000,411h9v3h-9z M3033,411h3v3h-3z M3039,411h6v3h-6z M3081,411h12v3h-12z M3099,411h3v3h-3z M126,414h12v3h-12z M171,414h12v3h-12z M207,414h6v3h-6z M216,414h6v3h-6z M264,414h15v3h-15z M300,414h12v3h-12z M345,414h24v3h-24z M426,414h9v3h-9z M510,414h12v3h-12z M567,414h12v3h-12z M693,414h18v3h-18z M714,414h27v3h-27z M810,414h12v3h-12z M867,414h15v3h-15z M897,414h12v3h-12z M945,414h9v3h-9z M957,414h3v3h-3z M1020,414h6v3h-6z M1029,414h6v3h-6z M1041,414h3v3h-3z M1197,414h48v3h-48z M1314,414h15v3h-15z M1371,414h15v3h-15z M1404,414h3v3h-3z M1410,414h6v3h-6z M1452,414h6v3h-6z M1461,414h9v3h-9z M1524,414h12v3h-12z M1623,414h6v3h-6z M1671,414h15v3h-15z M1704,414h12v3h-12z M1752,414h12v3h-12z M1803,414h21v3h-21z M1872,414h6v3h-6z M1983,414h51v3h-51z M2094,414h12v3h-12z M2151,414h9v3h-9z M2181,414h6v3h-6z M2190,414h3v3h-3z M2226,414h9v3h-9z M2238,414h6v3h-6z M2289,414h12v3h-12z M2352,414h18v3h-18z M2451,414h15v3h-15z M2514,414h18v3h-18z M2622,414h51v3h-51z M2739,414h6v3h-6z M2793,414h12v3h-12z M2823,414h9v3h-9z M2874,414h9v3h-9z M2931,414h6v3h-6z M2940,414h6v3h-6z M2991,414h6v3h-6z M3000,414h9v3h-9z M3033,414h12v3h-12z M3081,414h12v3h-12z M129,417h3v3h-3z M171,417h9v3h-9z M210,417h9v3h-9z M264,417h12v3h-12z M297,417h15v3h-15z M348,417h21v3h-21z M426,417h12v3h-12z M510,417h15v3h-15z M567,417h12v3h-12z M693,417h48v3h-48z M810,417h15v3h-15z M873,417h6v3h-6z M897,417h9v3h-9z M909,417h3v3h-3z M948,417h12v3h-12z M1020,417h21v3h-21z M1194,417h51v3h-51z M1317,417h12v3h-12z M1371,417h12v3h-12z M1407,417h6v3h-6z M1452,417h9v3h-9z M1524,417h9v3h-9z M1620,417h9v3h-9z M1674,417h9v3h-9z M1707,417h3v3h-3z M1752,417h9v3h-9z M1803,417h9v3h-9z M1815,417h3v3h-3z M1821,417h3v3h-3z M1866,417h6v3h-6z M1875,417h6v3h-6z M1983,417h48v3h-48z M2094,417h12v3h-12z M2148,417h12v3h-12z M2181,417h6v3h-6z M2232,417h12v3h-12z M2289,417h15v3h-15z M2349,417h6v3h-6z M2358,417h3v3h-3z M2367,417h3v3h-3z M2454,417h15v3h-15z M2511,417h9v3h-9z M2523,417h3v3h-3z M2622,417h48v3h-48z M2742,417h6v3h-6z M2796,417h6v3h-6z M2820,417h9v3h-9z M2871,417h9v3h-9z M2928,417h6v3h-6z M2937,417h9v3h-9z M2991,417h15v3h-15z M3039,417h9v3h-9z M3084,417h9v3h-9z M132,420h9v3h-9z M219,420h3v3h-3z M264,420h3v3h-3z M276,420h3v3h-3z M309,420h3v3h-3z M318,420h3v3h-3z M351,420h6v3h-6z M429,420h6v3h-6z M519,420h6v3h-6z M567,420h6v3h-6z M576,420h3v3h-3z M696,420h45v3h-45z M819,420h6v3h-6z M858,420h3v3h-3z M867,420h6v3h-6z M906,420h6v3h-6z M948,420h9v3h-9z M1029,420h3v3h-3z M1035,420h9v3h-9z M1200,420h45v3h-45z M1320,420h9v3h-9z M1371,420h6v3h-6z M1383,420h3v3h-3z M1455,420h3v3h-3z M1527,420h3v3h-3z M1533,420h3v3h-3z M1617,420h9v3h-9z M1674,420h6v3h-6z M1713,420h3v3h-3z M1752,420h6v3h-6z M1803,420h9v3h-9z M1815,420h9v3h-9z M1869,420h9v3h-9z M1983,420h45v3h-45z M2094,420h3v3h-3z M2100,420h3v3h-3z M2148,420h9v3h-9z M2232,420h3v3h-3z M2295,420h3v3h-3z M2301,420h3v3h-3z M2349,420h12v3h-12z M2460,420h9v3h-9z M2514,420h6v3h-6z M2622,420h48v3h-48z M2736,420h3v3h-3z M2742,420h6v3h-6z M2787,420h3v3h-3z M2799,420h6v3h-6z M2871,420h9v3h-9z M2937,420h9v3h-9z M2994,420h6v3h-6z M3042,420h6v3h-6z M3054,420h3v3h-3z M3066,420h3v3h-3z M3081,420h12v3h-12z M138,423h33v3h-33z M219,423h15v3h-15z M237,423h27v3h-27z M312,423h42v3h-42z M522,423h18v3h-18z M543,423h9v3h-9z M555,423h12v3h-12z M699,423h9v3h-9z M711,423h30v3h-30z M822,423h24v3h-24z M849,423h15v3h-15z M867,423h3v3h-3z M909,423h30v3h-30z M942,423h6v3h-6z M1044,423h21v3h-21z M1068,423h12v3h-12z M1083,423h6v3h-6z M1092,423h3v3h-3z M1200,423h12v3h-12z M1215,423h9v3h-9z M1227,423h12v3h-12z M1326,423h45v3h-45z M1416,423h39v3h-39z M1629,423h18v3h-18z M1650,423h18v3h-18z M1671,423h3v3h-3z M1719,423h36v3h-36z M1824,423h3v3h-3z M1830,423h15v3h-15z M1848,423h6v3h-6z M1857,423h21v3h-21z M1986,423h3v3h-3z M1992,423h6v3h-6z M2001,423h24v3h-24z M2103,423h42v3h-42z M2148,423h3v3h-3z M2196,423h9v3h-9z M2208,423h6v3h-6z M2217,423h15v3h-15z M2304,423h3v3h-3z M2310,423h15v3h-15z M2328,423h6v3h-6z M2337,423h21v3h-21z M2472,423h45v3h-45z M2622,423h30v3h-30z M2655,423h6v3h-6z M2664,423h3v3h-3z M2745,423h42v3h-42z M2790,423h3v3h-3z M2838,423h36v3h-36z M2946,423h3v3h-3z M2952,423h42v3h-42z M3045,423h39v3h-39z M138,426h6v3h-6z M147,426h9v3h-9z M162,426h9v3h-9z M222,426h12v3h-12z M237,426h6v3h-6z M246,426h9v3h-9z M258,426h6v3h-6z M312,426h6v3h-6z M321,426h6v3h-6z M333,426h6v3h-6z M342,426h9v3h-9z M522,426h45v3h-45z M822,426h9v3h-9z M834,426h21v3h-21z M861,426h6v3h-6z M909,426h9v3h-9z M921,426h6v3h-6z M930,426h15v3h-15z M1047,426h3v3h-3z M1053,426h6v3h-6z M1062,426h9v3h-9z M1074,426h15v3h-15z M1095,426h3v3h-3z M1329,426h9v3h-9z M1341,426h30v3h-30z M1416,426h6v3h-6z M1425,426h6v3h-6z M1434,426h21v3h-21z M1632,426h6v3h-6z M1644,426h30v3h-30z M1716,426h6v3h-6z M1725,426h27v3h-27z M1824,426h45v3h-45z M2103,426h12v3h-12z M2118,426h9v3h-9z M2130,426h9v3h-9z M2142,426h6v3h-6z M2193,426h39v3h-39z M2310,426h30v3h-30z M2343,426h12v3h-12z M2469,426h9v3h-9z M2481,426h9v3h-9z M2493,426h21v3h-21z M2748,426h9v3h-9z M2760,426h18v3h-18z M2781,426h12v3h-12z M2835,426h12v3h-12z M2850,426h9v3h-9z M2862,426h12v3h-12z M2949,426h6v3h-6z M2958,426h9v3h-9z M2970,426h9v3h-9z M2982,426h12v3h-12z M3045,426h9v3h-9z M3057,426h27v3h-27z M138,429h15v3h-15z M156,429h18v3h-18z M222,429h12v3h-12z M237,429h18v3h-18z M258,429h3v3h-3z M312,429h39v3h-39z M525,429h12v3h-12z M540,429h9v3h-9z M552,429h15v3h-15z M825,429h24v3h-24z M852,429h15v3h-15z M909,429h12v3h-12z M924,429h21v3h-21z M1044,429h42v3h-42z M1095,429h3v3h-3z M1329,429h33v3h-33z M1365,429h3v3h-3z M1416,429h39v3h-39z M1629,429h12v3h-12z M1644,429h6v3h-6z M1656,429h18v3h-18z M1719,429h30v3h-30z M1824,429h42v3h-42z M2103,429h6v3h-6z M2112,429h36v3h-36z M2193,429h3v3h-3z M2199,429h6v3h-6z M2208,429h6v3h-6z M2217,429h6v3h-6z M2226,429h6v3h-6z M2307,429h39v3h-39z M2349,429h6v3h-6z M2472,429h42v3h-42z M2748,429h45v3h-45z M2835,429h36v3h-36z M2946,429h48v3h-48z M3045,429h30v3h-30z M150,432h3v3h-3z M156,432h3v3h-3z M162,432h3v3h-3z M219,432h3v3h-3z M225,432h3v3h-3z M231,432h3v3h-3z M237,432h6v3h-6z M246,432h9v3h-9z M258,432h3v3h-3z M321,432h3v3h-3z M327,432h6v3h-6z M336,432h3v3h-3z M342,432h3v3h-3z M348,432h3v3h-3z M525,432h3v3h-3z M531,432h12v3h-12z M552,432h3v3h-3z M558,432h9v3h-9z M825,432h6v3h-6z M834,432h6v3h-6z M843,432h3v3h-3z M852,432h3v3h-3z M858,432h6v3h-6z M915,432h3v3h-3z M924,432h3v3h-3z M933,432h3v3h-3z M939,432h6v3h-6z M1044,432h6v3h-6z M1056,432h3v3h-3z M1062,432h9v3h-9z M1074,432h6v3h-6z M1083,432h3v3h-3z M1326,432h3v3h-3z M1335,432h3v3h-3z M1341,432h6v3h-6z M1350,432h3v3h-3z M1356,432h3v3h-3z M1362,432h6v3h-6z M1422,432h6v3h-6z M1431,432h6v3h-6z M1440,432h3v3h-3z M1446,432h6v3h-6z M1632,432h6v3h-6z M1641,432h9v3h-9z M1653,432h9v3h-9z M1668,432h6v3h-6z M1722,432h12v3h-12z M1737,432h3v3h-3z M1833,432h9v3h-9z M1848,432h3v3h-3z M1854,432h3v3h-3z M1863,432h3v3h-3z M2112,432h3v3h-3z M2118,432h3v3h-3z M2124,432h3v3h-3z M2130,432h6v3h-6z M2139,432h6v3h-6z M2196,432h6v3h-6z M2205,432h3v3h-3z M2211,432h3v3h-3z M2217,432h15v3h-15z M2313,432h6v3h-6z M2322,432h9v3h-9z M2334,432h3v3h-3z M2343,432h3v3h-3z M2472,432h6v3h-6z M2481,432h3v3h-3z M2487,432h3v3h-3z M2502,432h9v3h-9z M2751,432h6v3h-6z M2760,432h3v3h-3z M2766,432h6v3h-6z M2775,432h12v3h-12z M2838,432h6v3h-6z M2847,432h9v3h-9z M2862,432h3v3h-3z M2868,432h6v3h-6z M2949,432h3v3h-3z M2955,432h3v3h-3z M2964,432h9v3h-9z M2976,432h3v3h-3z M2982,432h3v3h-3z M2988,432h3v3h-3z M3048,432h3v3h-3z M3057,432h12v3h-12z M3072,432h9v3h-9z" fill="white" />
</svg>
