<svg xmlns="http://www.w3.org/2000/svg" viewBox="0 0 40 40" fill="none" role="img" aria-label="Maladaja Hramada">
  <rect width="40" height="40" rx="10" fill="currentColor" fill-opacity="0.08"/>
  <g transform="translate(20 20) scale(0.095) translate(-628.827 -293.661)"><path d="M628.82713,293.66128c-.50478-10.11208-9.78237-13.16039-15.32631-14.98168-5.16084-1.69568-11.58403-3.80587-19.00461-9.40555-3.26262-2.46227-5.37202-4.58659-7.81467-7.04651-3.78781-3.8145-8.08119-8.1385-16.44067-13.38648-5.48153-3.44122-8.59264-4.691-10.65101-5.51804-.39095-.15701-.92713-.3725-1.05195-.44198-.00157-.00118-.18841-.11736-.6508-.5299-3.28931-2.93447-3.82353-5.81282-4.71887-12.04328-.91614-6.37216-2.17024-15.09943-9.3243-22.9561-7.46847-8.20208-16.3394-8.96436-22.20992-9.46874-5.5671-.47848-6.58804-.73872-8.33554-3.25752-1.9202-2.76765-3.3741-6.33291-5.05722-10.46103-2.37553-5.82773-5.06899-12.43227-9.97823-18.86566-3.85572-5.05251-8.60834-8.30335-12.42677-10.91518-6.64457-4.54537-6.85025-5.16163-6.46322-8.61815,.42157-3.75994,.87924-7.69495,1.34948-11.74339,5.27389-45.3772,8.40776-78.72682,.64648-94.63092-1.84916-3.78938-4.22626-6.17119-4.91081-6.811l-.54953-.48123c-5.48507-4.4967-11.63506-4.81032-23.88716-5.43482-1.62189-.08243-3.39137-.17271-5.32374-.27947-6.66616-.3674-9.34863-1.32358-13.40885-2.7704-4.52261-1.61129-10.15055-3.61667-21.0202-4.86881-6.37294-.7344-11.20957-.83528-15.47625-.92478-6.10564-.12718-10.92813-.22845-18.85663-2.24914-4.2871-1.09277-8.45251-2.48504-12.73333-4.25569-10.25653-4.24235-25.77164-7.95951-41.50343-9.94448-18.18856-2.29506-30.93798-1.70707-37.89382,1.74632-3.35761,1.66664-5.79751,3.65593-6.25283,4.03824l-.36073,.31598c-2.87599,2.63027-4.5595,5.47604-6.0448,7.9862-1.71099,2.89248-3.48047,5.88308-7.90848,10.26831-3.25202,3.22141-13.07953,12.95432-27.07598,18.32163-9.6493,2.69661-17.40078,7.44688-23.0452,14.12402-9.95586,11.77754-9.16062,24.26201-8.57969,33.37788,.60448,9.4817,.10245,10.67731-2.72644,12.56376-2.15258,1.43466-2.50074,1.37578-5.83637,.81016-4.16031-.70496-10.4469-1.77026-18.23606,2.08506-17.2104,8.51924-21.79346,34.14133-26.64578,61.26795-2.03992,11.40308-4.14893,23.19161-7.06221,31.65276-.51263,1.10808-2.58435,4.44057-3.27636,5.55297-2.907,4.67569-11.0977,4.05394-12.16692,3.94953-1.1124-.20136-2.1777-.40704-3.20217-.60448-8.12437-1.56694-16.52585-3.18765-25.69275,1.89391-6.03852,3.34701-8.46193,7.99719-10.23141,11.39248-.58407,1.12025-1.13556,2.17848-1.82757,3.23593-2.04581,3.12406-3.45731,3.8879-12.34159,7.77385-4.57756,2.00185-10.84688,4.74399-18.93749,8.90234-8.82384,4.53595-12.67052,7.07163-16.06425,9.30938-3.18412,2.0988-5.69899,3.7568-12.67838,7.1152-14.26808,6.86595-22.93098,11.9322-22.93098,24.37192,0,11.57186,4.11125,18.83975,8.87251,27.25537,2.50113,4.42173,5.33669,9.43381,8.24997,16.23892,7.44845,17.39921,2.55216,33.47601-1.77968,44.05519-3.88751,9.49504-8.82148,17.13386-12.78671,23.27169-6.44674,9.97902-13.1125,20.29796-6.51347,30.78176,4.62466,7.34718,12.32432,8.29668,16.92426,8.86426,3.7568,.46357,5.29312,.76149,6.53819,2.05994,1.8315,1.91235,3.68183,6.48991,2.0937,17.44356-1.081,7.45316-4.08456,12.51273-6.49855,16.57845-2.49603,4.20427-7.14228,12.03072-1.24546,19.3355,2.33588,2.89287,7.74087,7.15563,17.69791,3.20139,3.00709-1.19404,6.35528-3.00395,10.59449-5.29509,8.48156-4.58384,20.09699-10.8618,33.82418-14.48161,24.45945-6.44988,46.40639-2.05837,71.82084,3.02672,17.47025,3.49538,24.56779,6.39924,30.82926,8.96161,6.41691,2.62595,12.47819,5.10589,25.62602,6.64261,19.34139,2.26052,32.95121-.48869,43.8868-2.69857,11.98676-2.42224,17.61156-3.33013,25.34262,.535l.10363,.05181c4.14186,2.07564,15.29687,7.50065,29.38871,13.03046,4.2451,1.66585,9.33804,3.5578,16.0717,4.91827,8.85327,1.7891,16.49955,3.33406,24.93518,1.00563,9.82829-2.7127,14.75755-9.13393,18.01939-13.38334,2.70681-3.52639,3.53032-4.39622,5.40538-4.83819,2.60986-.61626,6.08248,.01884,8.25664,1.50963,1.07197,.7348,1.35655,1.249,2.47483,3.80587,1.43073,3.27204,3.59234,8.21622,9.20615,12.14298,7.79897,5.45602,15.23682,4.25609,21.21371,3.29245,2.91877-.47102,5.94039-.95618,9.54293-.85373,8.44427,.24336,13.6581,3.45594,18.7008,6.56273,3.75445,2.31331,8.86191,5.46073,14.74263,5.46053,2.45599-.0002,5.0478-.54933,7.73106-1.93787,11.19073-5.79045,10.64355-18.64192,10.20315-28.96793-.40744-9.56295-.82861-19.4513,4.84447-25.84347,.51499-.58014,.73244-.74343,.73087-.74343,.26063-.1574,1.32986-.55934,2.18947-.88238,3.6049-1.35458,9.6391-3.62256,20.71089-10.24593,9.08251-5.43325,14.47376-9.54764,18.41073-12.55238,4.72279-3.60451,6.48991-4.9532,11.14519-6.31603,5.87994-1.7208,10.63845-1.65329,14.83802-1.5952,5.86816,.08164,14.7391,.20647,19.33707-8.43524,4.4708-8.40384-.18448-15.71726-3.92559-21.59327-2.59181-4.0716-5.81753-9.13864-9.00479-16.83594-3.61589-8.7312-5.75433-14.53695-4.96223-21.51713,.72577-6.39493,3.74346-10.94344,6.40592-14.95656,5.72293-8.62758,18.09396-18.32123,34.83295-27.29462,7.53716-4.04099,13.69343-6.7423,18.64035-8.91254,4.27571-1.87585,7.65256-3.358,10.33268-5.03956,7.08851-4.44646,8.343-10.05321,8.14752-13.97369Zm-148.57093-93.27477c-.53383-3.35879-.86276-7.5454,.60291-8.41404,1.1281-.67003,2.19104,.6716,4.11871,3.10601,1.93434,2.44186,4.85743,6.13272,9.47267,9.82162,4.9583,3.96366,8.62561,5.90035,11.86115,7.60938,4.05944,2.14394,7.56542,3.99585,12.52843,8.97731,4.08652,4.10143,7.03866,7.06496,8.31434,12.0892,2.47562,9.74861-3.73207,19.0105-8.26489,25.77282-3.80273,5.67387-6.38315,7.97364-9.11587,10.40883-2.14473,1.91157-4.36246,3.8883-7.32127,7.67689-2.85519,3.65553-4.77814,6.853-17.18214,39.30296l-1.30866,3.42905c-5.37202,14.08673-6.64849,17.43335-10.67731,21.74204-2.99924,3.20728-8.57694,8.02702-22.32729,12.83028-12.50017,4.36639-19.87011,4.51633-26.99827,4.66117-6.37687,.12953-12.39969,.25239-21.86568,3.1429-9.43538,2.88188-14.3874,6.15706-18.75732,9.04679-5.13141,3.39333-9.56334,6.32427-19.47642,7.797-3.64336,.54089-7.19723,.75835-10.55092,.75835-11.01174,0-19.88739-2.33981-22.87367-3.23436-6.64143-1.98929-10.45358-4.12734-14.14012-6.19553-4.51083-2.53018-8.40619-4.71533-16.59886-6.1076-2.15807-.36701-4.145-.59545-6.24812-.83724-3.85218-.44315-8.21857-.94479-15.11592-2.4505-15.73296-3.43415-15.57635-4.73928-15.50137-5.36652,.13738-1.1438,2.96588-1.54339,11.21035-1.58303l.47495-.00236c14.73675-.08361,29.65405-1.9257,44.07992-3.70695,2.19104-.27045,4.38091-.54089,6.56999-.80545l3.01455-.36387c30.40533-3.66613,47.15413-5.68604,71.30585-16.43479,12.17281-5.41716,53.52276-26.57356,74.5563-71.36002,7.13168-15.18461,9.62889-39.82344,6.21397-61.31035Zm-80.69766,4.31261c-10.06537-21.73105-24.93989-36.2315-41.88417-40.83065-15.19874-4.12616-29.60145,.04946-38.20626,2.54431-4.84408,1.40365-7.27456,2.10783-7.76757,.76384-1.11986-3.05694,10.84923-9.18338,18.09828-12.32158,17.4153-7.53912,32.87703-9.36237,42.78147-9.56452,19.24679-.39409,35.47197,10.59135,49.57833,33.57846,16.73074,27.26439,12.88406,59.70847,1.65015,79.76857-9.0358,16.1349-23.50288,26.77375-28.40349,27.71815-.25749,.04946-.49379,.07419-.70928,.07419-.44001,0-.79014-.10363-1.04606-.31009-1.13674-.91889,.08596-3.09973,2.30527-7.05868,2.98197-5.31981,7.48888-13.359,9.8699-24.26319,4.72122-21.62546-1.89979-40.67129-6.26657-50.09882Zm-61.92503-23.92994c-2.23579-1.81187-2.94547-2.40928-2.99571-2.9172-.01413-.1468,.02748-.28811,.11854-.39762,.65237-.78622,4.84408,.56366,6.61631,1.18031,16.03873,5.58202,34.93854,19.58083,35.41781,40.66383,.50478,22.21032-19.66561,39.6633-38.64275,43.09548-2.51566,.45532-5.03681,.65237-7.47082,.65237-8.27745,.00039-15.55515-2.28132-18.24862-4.46844-.84392-.68573-1.28118-1.37264-1.29924-2.04149-.04789-1.74318,2.53096-2.39437,6.80315-3.4734,6.22222-1.57165,15.62463-3.946,24.26084-11.34695,2.64794-2.26955,15.83973-14.37249,15.4582-29.78751-.37682-15.2431-14.14012-26.39653-20.0177-31.15936Zm48.11698,62.91889c.39527,3.61667,1.58617,5.97336,2.54313,7.86766,.44041,.87257,.85726,1.69647,1.13281,2.51526,1.30395,3.87377,.11893,9.34706-3.25085,15.01622-4.31771,7.26475-12.98454,15.73767-24.35857,17.73167-1.64426,.28811-3.2638,.41764-4.84094,.41764-10.64434,0-19.41087-5.88112-21.69925-8.42386-.66336-.73754-.92635-1.30591-.80309-1.73651,.21275-.74186,1.15087-.62921,2.85322-.42431,2.32725,.27947,6.22261,.74775,10.8457-.58956l.63745-.18213c3.89536-1.10494,12.00049-3.40432,19.41087-11.68687,9.77059-10.91989,13.66988-21.51556,15.54377-26.60732,.89965-2.4454,1.20739-3.22926,1.68666-3.44789,.14562-.06673,.30656-.07301,.45218-.01806,.54207,.2049,.42981,.86119,.20607,2.16828-.26691,1.55791-.71282,4.16542-.35916,7.39977Zm-58.80607-29.49312c-.35209,.49771-1.25724,.29517-3.44318-.19312-3.8883-.86904-11.12557-2.48622-16.99609,.33168-4.94025,2.37121-7.02217,6.5276-6.75055,13.47597,.33757,8.64642,3.90518,12.87032,5.07763,14.25866,.39213,.46435,.52441,.62057,.49104,.86551l-.02394,.17703-.16054,.12286h.00039c-.07733,.05299-.16133,.08086-.26534,.08086-.21353,0-.51145-.11776-1.01034-.38035-3.80508-2.00381-19.17732-12.92762-19.17732-25.98674,0-8.14988,4.40956-17.2528,16.78609-18.3597,12.26505-1.10023,22.13338,8.80264,24.99092,13.76801,.70261,1.22113,.64648,1.6054,.48123,1.83935Zm-39.09414,60.28469c1.74004,.58446,7.03552,2.36297,12.84951,4.10104,5.94196,1.77654,9.31959,2.58199,11.33753,3.06322,2.655,.63313,3.3686,.80309,4.9273,1.92099,2.43912,1.74946,3.89026,3.63002,5.17066,5.28881,1.72787,2.24011,3.09305,4.00919,6.18532,4.77304,1.21288,.29988,2.86853,.19626,6.16766-.0106,5.02464-.3148,7.63097-.91889,9.35531-1.31847,1.62542-.37682,2.60672-.60369,4.15717-.31794,3.39019,.62568,4.74242,2.82221,6.4538,5.60321,1.58578,2.5761,3.55937,5.7826,7.92614,8.68763,2.01088,1.3381,7.4563,4.49003,14.57581,4.85939,3.8722,.19979,7.21176-.48751,9.42203-.94283,2.12588-.43805,3.19314-.65786,3.51501,.09106,.15936,.37015,.64373,1.49707-7.00804,5.97846-7.0677,4.14069-14.32656,8.39246-21.09006,8.39246-1.79185,0-3.54916-.29831-5.25897-.97659-1.92217-.76227-2.60123-1.54653-3.54131-2.63145-.89965-1.03861-2.01951-2.33156-4.75184-4.25491-5.75355-4.0508-11.50592-6.74584-17.09775-8.00975-5.36613-1.21367-8.85288-1.59049-11.65468-1.89351-3.78192-.40901-6.2807-.67906-10.32561-2.65265-4.31261-2.10469-6.51072-4.85468-11.32615-10.88064l-1.8154-2.26758c-6.10917-7.62508-7.21019-8.99929-13.21102-13.99685-2.73115-2.27426-5.32884-3.81529-7.04768-4.83505-1.75849-1.04332-2.3508-1.39501-2.0882-1.94179v-.00039c.30145-.62803,1.02212-.40312,6.56646,1.54613,2.01716,.70928,4.52771,1.59167,7.60703,2.62556Zm34.68694-91.0692c.69868,.69005,.97659,1.25174,.84941,1.71845-.23708,.86904-1.35341,.79603-4.33498,.60173-2.26719-.14759-5.69153-.37093-10.51716-.30577l-2.06858,.0263c-16.80297,.20764-31.31519,.38702-39.77085,11.38738-7.43824,9.67717-6.60061,19.5298-4.80012,27.89164,2.24089,10.40726,15.0751,22.49371,19.90662,27.04419q2.00891,1.89155,1.71099,2.24089c-.05221,.06123-.16054,.08949-.31598,.08949-1.28197,0-5.7406-1.91235-7.76403-2.81044-10.7409-4.76754-45.50359-22.48115-41.88339-50.23698,2.48583-19.05721,23.62888-26.0625,27.84179-27.27303,27.82609-7.9964,56.00034,4.54891,61.14627,9.62614Zm-71.98883,90.93103c6.37608,8.25272,23.53271,28.10596,45.08242,34.20335,.98091,.27712,2.14002,.49771,3.36703,.73166,3.66535,.69711,7.45551,1.41856,7.4614,3.89615,.0051,2.35041-3.09148,3.50049-6.3702,4.71808-4.47276,1.66114-9.52095,2.00656-12.94764,2.00656-2.10901,0-3.60333-.13071-3.97347-.16643-19.5667-1.89822-37.01654-12.67681-51.86515-32.03743-4.50337-5.8713-15.07274-22.12632-15.95552-46.20463-.17663-4.81818,.93027-20.51738,4.7958-21.74714,.336-.10716,.66925-.07654,.99072,.08989,1.27726,.66336,2.19732,3.58527,3.36193,7.28437,.79642,2.52861,1.69843,5.39479,2.83909,7.89749,4.07592,8.94002,17.23709,31.59153,23.21359,39.32808Zm-1.71531-202.93172c6.40435-4.60975,18.12811-6.48442,26.31842-6.27246,10.44258,.26534,17.2473-2.63695,25.12281-6.00084,5.20324-2.22244,11.10123-4.74163,18.87351-6.67087,18.11909-4.49749,25.7422-3.40982,40.92996-1.24232,4.9273,.70339,10.51245,1.5006,17.51696,2.25659,10.96895,1.18345,18.344,.56641,24.85079,.0212,6.29837-.52755,11.7379-.98287,18.30161,.6033,9.96685,2.4085,28.5079,6.8895,35.54734,22.9459,.79995,.85412,7.96893,9.6442-4.14971,38.63489-.51263,1.22623-1.24193,2.63302-2.34256,2.63302h-.00628c-.96678-.00471-1.90136-.99268-1.91-1.00249-.8918-.96952-2.21263-2.4925-3.74189-4.25569-2.99296-3.45103-6.71797-7.74598-9.20654-10.16782-13.38805-13.02615-20.9307-17.67789-29.66465-23.06444l-1.25096-.77169c-20.1802-12.47112-48.26182-5.99063-59.39878-2.62517-5.89368,1.78086-9.51153,3.54837-15.50491,6.47657-6.66419,3.25556-16.73506,8.17618-36.59144,16.29269-5.68918,2.32607-13.47872,5.51254-23.5806,4.74948-.65433-.04906-1.6474-.01963-2.90464,.01766-6.6269,.19861-20.42003,.6088-23.31526-10.57997-1.84445-7.12854-.03415-17.55857,6.10682-21.97755Zm-46.01269,77.81853c6.42868-5.91134,23.50484-21.61447,49.44959-26.98492,7.40213-1.5324,13.90147-1.34948,20.18649-1.17285,9.64028,.27162,18.74476,.52755,29.67682-5.55807,28.61388-15.92844,61.04579-33.98276,88.90877-22.8042,38.20469,15.3271,56.79834,47.81003,60.13789,54.16571,14.99895,28.54715,18.36127,66.53439,15.02093,82.98095-1.60776,7.91476-2.4136,8.52199-3.09619,8.46193-1.10298-.09342-1.47901-2.88345-1.67606-12.43972-.01963-.96403-.0369-1.81108-.05966-2.45011-.6873-19.25896-12.98454-40.80435-36.54983-64.03718-16.06228-15.83541-30.83907-24.43825-49.41112-28.76774-39.007-9.09114-72.68477,16.23107-82.07737,24.20902l-.34188,.2885c-.09774,.08007-.25396,.23433-.45807,.43413-.9444,.92517-2.70289,2.64715-4.42958,3.11543-2.83713,.76895-5.0898,.22295-6.17237-.03886-.16682-.04043-.30067-.0734-.39801-.08989-11.418-1.95789-50.60634-6.18611-75.47048,21.62782-16.61848,18.59011-22.42542,45.90828-24.37074,65.55152-2.3771,24.00334,.05103,45.52008,3.31247,55.35426,.03022,.09106,.11265,.29517,.22334,.5719,1.39423,3.47694,1.65094,4.72122,1.05627,5.12199-.11501,.07733-.29086,.15505-.53422,.15505-.09106,0-.19076-.01099-.30067-.0365-1.28118-.29831-3.17862-2.45128-5.07449-5.75944-5.20441-9.07937-13.47872-34.35526-13.52739-63.52847-.042-25.18404,6.16569-60.95826,35.97558-88.37024Zm-52.29378,290.07298c-.14876,.53932-.85883,.79485-2.42106,.79485-.86197,0-1.9834-.07772-3.41335-.22845-6.39885-.67435-12.46288-3.26341-18.88293-6.00476-7.38054-3.15115-15.01269-6.40984-23.50916-6.7529-4.35618-.17428-7.34639,.49065-9.98412,1.07864-3.62021,.80702-6.74662,1.50374-12.07429-.0683l-.14602-.042c-3.57232-1.0127-10.16978-3.51894-14.22372-8.92825-10.2369-13.6585-7.76953-23.41417-3.29088-41.12425,1.09003-4.31026,2.32528-9.19516,3.52718-14.72105,3.35761-15.43779,1.81305-22.55455-2.77276-43.67995-.38859-1.7895-.79838-3.67948-1.22937-5.6829-2.76844-12.87228-1.35537-17.23238,2.85911-22.13652,2.9121-3.3898,5.69075-5.77514,8.63268-8.301,3.07068-2.63616,6.24616-5.3626,10.08578-9.59788,2.35158-2.59416,3.50834-4.66666,4.27336-6.03852,.66061-1.18305,1.02448-1.83699,1.6843-1.75299,.20175,.02512,.3776,.12953,.50949,.30224,.65786,.86276,.28104,3.66966-.71242,10.50107-2.41674,16.61966-7.44491,51.20219,4.22783,85.52172,14.01333,41.19962,48.49655,71.51899,53.57418,74.06919l.07811,.03847c3.07617,1.52376,3.3478,2.24717,3.20806,2.75352Zm16.29034-42.77597c-6.13115,.81134-12.47034,1.65054-19.32608,6.2968-.04789,.03258-.09813,.05927-.17506,.09774-.12129,.06045-.33246,.16643-.8078,.4722-.17742,.11344-.38545,.11108-.54246-.00746-.42981-.32226-.09381-1.72394,.14484-2.53136,.85608-2.90268,4.09908-35.85311-11.54517-55.96188-3.99349-5.13298-6.89578-6.4907-9.70308-7.80407-2.78218-1.30159-5.4097-2.53096-8.77595-7.11952-11.17895-15.23996-11.43173-41.59214-.56287-58.74288,4.56343-7.20116,8.81049-11.66489,14.18643-17.3156,3.48596-3.66417,7.43667-7.81702,12.32315-13.58431,.62371-.73597,1.12221-1.34006,1.53043-1.83464,1.54967-1.87624,1.91746-2.32214,2.94154-2.34413h.03022c2.24364,0,2.5031,5.30215,2.97255,14.89375,.86904,17.7513,2.487,50.79357,20.05538,77.51119,29.00954,44.118,90.51496,54.47737,91.11787,54.5543,.21039,.02669,.46121,.06398,.71596,.10166,.46239,.0683,.98601,.14562,1.22702,.1519,.41372,.01021,.49183,.31323,.50321,.37368,.0314,.16525,.12718,.66885-2.87089,1.93748-28.18995,11.92435-42.33949,17.90987-51.00004,18.04254-.29086,.00393-.58014,.00628-.86747,.00628-9.21321,0-16.5282-2.25306-23.00556-4.24863-6.58216-2.02775-12.26662-3.77878-18.56617-2.94507Zm181.05583,72.57958c-.12757,.50556-.74893,.72106-2.20988,.72106-.28889,0-.61115-.00824-.96874-.02473-16.45755-.74696-34.54131-3.16057-34.72226-3.18451l-.0942-.01295c-24.81664-3.33484-38.49987-5.15417-39.23152-5.14122-.22962,.01923-.93498-.12325-1.33614-.32344-.26063-.13071-.67317-.57308-.72381-.77562-.22609-.72812-5.82185-8.41169-9.60652-11.37717-4.80051-3.76151-20.81059-10.10149-43.33414-11.10084-.09734-.00432-9.93231-.50242-27.05479-6.5904-1.95318-.69476-2.76962-1.30552-2.72958-2.04267,.0526-.96717,1.67527-1.45625,3.25595-1.80716,65.44436-14.53695,97.40564,4.47394,97.72083,4.66784,6.79804,4.17798,11.17934,8.20915,15.04527,11.76577,5.01129,4.61092,9.34,8.59343,17.19196,11.07807,5.93018,1.87703,11.5754,4.73535,17.03534,7.49947,2.80259,1.41896,5.70056,2.88619,8.59657,4.19996,2.47562,1.12339,3.33249,1.78636,3.16567,2.44854Zm215.13122-157.83203c-3.74228,1.92413-6.93582,2.4611-10.02416,2.98001-2.20125,.36975-4.28003,.7191-6.43418,1.55281-11.97302,4.63291-20.18963,19.1102-21.97991,38.72674-1.51081,16.55725,3.10836,29.8197,6.48089,39.50393,.26691,.7662,.52441,1.5057,.76816,2.21695l.05417,.15544c.38859,1.11554,1.29885,3.72776-.15426,5.13769-1.70275,1.65094-3.74503,.69633-4.72672,.23747l-.23159-.10716c-16.8171-7.44766-66.63801,16.02343-67.13965,16.26168-11.37364,6.4436-19.64638,11.73711-26.29369,15.99085-12.42756,7.95205-19.27309,12.33217-30.72838,14.41763-5.00737,.91143-12.90761,2.01362-21.80209,2.01362-13.98546,.00079-30.43399-2.72291-41.99486-13.19415-.21314-.1939-21.3821-19.29233-32.51709-19.29233-.01727,0-.03297,.00039-.05024,.00039l-.08949,.00039c-3.38155,.02826-3.65318-.23394-3.6991-.66807v-.00039c-.05103-.48633-.09106-.87061,7.65884-2.19458l.1311-.02198c11.88863-2.03404,23.90207-4.52457,35.51986-6.93268,10.94972-2.26994,22.27155-4.61681,33.47484-6.57941,.43648-.07615,44.15215-7.80485,87.07414-21.53754,4.6647-1.49236,15.58851-4.98735,23.62024-14.75284,4.93318-5.9977,6.35214-11.42585,8.70372-20.41964,.33364-1.27569,.68612-2.62478,1.0704-4.05865,.09146-.35837,9.43106-36.59811,23.22027-64.72526,3.04791-6.21751,6.58019-12.01737,10.31973-18.15795l1.39619-2.29545c.11776-.1939,.29282-.54246,.49065-.93577,.95932-1.90529,1.3432-2.55687,1.88527-2.36532,.49143,.17349,.451,.83057,.16447,2.33628l-.02237,.11736c-.37446,2.02108-.1629,5.70605,2.97216,11.78382,2.33274,4.52261,6.181,7.37544,13.84848,13.05912,.90122,.66807,1.85505,1.375,2.86461,2.12785,15.07902,11.24607,15.79694,12.39262,16.70562,15.95866,1.7683,6.93699-8.46664,12.59673-10.536,13.66046Z"
    fill="currentColor"
  />
</g></svg>
