<?xml version="1.0" encoding="UTF-8"?><svg id="_Слой_1" xmlns="http://www.w3.org/2000/svg" viewBox="0 0 775.08846 218.27785"><defs><style>.cls-1{fill:#1e1e1c;}</style></defs><path class="cls-1" d="M759.39342,48.51474c.17023-.00181,.33915-.00855,.50988-.00855V0c-8.37417,0-16.50558,1.06449-24.25309,3.05861-8.61003,2.21649-16.74802,5.57823-24.25309,9.92354-5.59846,3.24052-10.83968,7.01987-15.64997,11.27094-3.0517,2.6813-5.92182,5.55126-8.60312,8.60312-4.25107,4.81012-8.03042,10.05151-11.27094,15.64997-4.34548,7.50508-7.70705,15.64323-9.92354,24.25309h29.82458c-3.0517,2.6813-5.92182,5.55126-8.60312,8.60312-4.25107,4.81012-8.03042,10.05151-11.27094,15.64997h29.79761c1.79872-2.01435,3.71191-3.92771,5.72642-5.72642,6.9998-6.26542,15.21213-11.19002,24.25309-14.3835v20.10992h24.25309V48.50619c-.17961,0-.35741,.00757-.53685,.00855Zm-47.99631-5.73498c6.9998-6.26542,15.21213-11.19002,24.25309-14.3835v20.10992h-29.97952c1.79872-2.01435,3.71191-3.92771,5.72642-5.72642Z"/><path class="cls-1" d="M244.55203,3.05861c-8.60987,2.21649-16.74802,5.57823-24.25309,9.92354-5.59846,3.24052-10.83984,7.01987-15.64997,11.27094-1.92685,1.69099-3.77951,3.45599-5.55126,5.30207-1.05101,1.07782-2.0683,2.17603-3.05187,3.30105-4.25107,4.81012-8.03042,10.05151-11.27094,15.64997-.28964,.50527-.57945,1.01729-.86235,1.52931h-.00674c-3.92096,7.07382-6.98632,14.70012-9.05445,22.72379-.01349,.06069-.03372,.12122-.0472,.18865-1.96714,7.69357-3.01141,15.7577-3.01141,24.06444h24.25309c0-8.50214,1.46187-16.66726,4.14317-24.25309h44.36302v24.25309h24.25309V0c-8.37401,0-16.50558,1.06449-24.25309,3.05861Zm0,45.44758h-29.97952c1.79872-2.01435,3.71208-3.92771,5.72642-5.72642,6.19798-5.55126,13.35947-10.05151,21.20123-13.22459,1.0038-.41103,2.02109-.79508,3.05187-1.1589v20.10992Z"/><path class="cls-1" d="M269.81567,124.32408c-8.60987,2.21649-16.74802,5.57823-24.25309,9.92354-5.59846,3.24052-10.83984,7.01987-15.64997,11.27094-1.92685,1.69099-3.77951,3.45599-5.55126,5.30207-1.05101,1.07782-2.0683,2.17603-3.05187,3.30105-4.25107,4.81012-8.03042,10.05151-11.27094,15.64997-.28964,.50527-.57945,1.01729-.86235,1.52931h-.00674c-3.92096,7.07382-6.98632,14.70012-9.05445,22.72379-.01349,.06069-.03372,.12122-.0472,.18865-1.96714,7.69357-3.01141,15.7577-3.01141,24.06444h24.25309c0-8.50214,1.46187-16.66726,4.14317-24.25309h44.36302v24.25309h24.25309V121.26547c-8.37401,0-16.50558,1.06449-24.25309,3.05861Zm0,45.44758h-29.97952c1.79872-2.01435,3.71208-3.92771,5.72642-5.72642,6.19798-5.55126,13.35947-10.05151,21.20123-13.22459,1.0038-.41103,2.02109-.79508,3.05187-1.1589v20.10992Z"/><path class="cls-1" d="M547.7157,124.32408c-8.60987,2.21649-16.74802,5.57823-24.25309,9.92354-5.59846,3.24052-10.83984,7.01987-15.64997,11.27094-1.92685,1.69099-3.77951,3.45599-5.55126,5.30207-1.05101,1.07782-2.0683,2.17603-3.05187,3.30105-4.25107,4.81012-8.03042,10.05151-11.27094,15.64997-.28964,.50527-.57945,1.01729-.86235,1.52931h-.00674c-3.92096,7.07382-6.98632,14.70012-9.05445,22.72379-.01349,.06069-.03372,.12122-.0472,.18865-1.96714,7.69357-3.01141,15.7577-3.01141,24.06444h24.25309c0-8.50214,1.46187-16.66726,4.14317-24.25309h44.36302v24.25309h24.25309V121.26547c-8.37401,0-16.50558,1.06449-24.25309,3.05861Zm0,45.44758h-29.97952c1.79872-2.01435,3.71208-3.92771,5.72642-5.72642,6.19798-5.55126,13.35947-10.05151,21.20123-13.22459,1.0038-.41103,2.02109-.79508,3.05187-1.1589v20.10992Z"/><path class="cls-1" d="M750.83537,124.32408c-8.60987,2.21649-16.74802,5.57823-24.25309,9.92354-5.59846,3.24052-10.83984,7.01987-15.64997,11.27094-1.92685,1.69099-3.77951,3.45599-5.55126,5.30207-1.05101,1.07782-2.0683,2.17603-3.05187,3.30105-4.25107,4.81012-8.03042,10.05151-11.27094,15.64997-.28964,.50527-.57945,1.01729-.86235,1.52931h-.00674c-3.92096,7.07382-6.98632,14.70012-9.05445,22.72379-.01349,.06069-.03372,.12122-.0472,.18865-1.96714,7.69357-3.01141,15.7577-3.01141,24.06444h24.25309c0-8.50214,1.46187-16.66726,4.14317-24.25309h44.36302v24.25309h24.25309V121.26547c-8.37401,0-16.50558,1.06449-24.25309,3.05861Zm0,45.44758h-29.97952c1.79872-2.01435,3.71208-3.92771,5.72642-5.72642,6.19798-5.55126,13.35947-10.05151,21.20123-13.22459,1.0038-.41103,2.02109-.79508,3.05187-1.1589v20.10992Z"/><path class="cls-1" d="M438.57678,3.05861c-8.60987,2.21649-16.74802,5.57823-24.25309,9.92354-5.59846,3.24052-10.83984,7.01987-15.64997,11.27094-1.92685,1.69099-3.77951,3.45599-5.55126,5.30207-1.05101,1.07782-2.0683,2.17603-3.05187,3.30105-4.25107,4.81012-8.03042,10.05151-11.27094,15.64997-.28964,.50527-.57945,1.01729-.86235,1.52931h-.00674c-3.92096,7.07382-6.98632,14.70012-9.05445,22.72379-.01349,.06069-.03372,.12122-.0472,.18865-1.96714,7.69357-3.01141,15.7577-3.01141,24.06444h24.25309c0-8.50214,1.46187-16.66726,4.14317-24.25309h44.36302v24.25309h24.25309V0c-8.37401,0-16.50558,1.06449-24.25309,3.05861Zm0,45.44758h-29.97952c1.79872-2.01435,3.71208-3.92771,5.72642-5.72642,6.19798-5.55126,13.35947-10.05151,21.20123-13.22459,1.0038-.41103,2.02109-.79508,3.05187-1.1589v20.10992Z"/><path class="cls-1" d="M641.69644,3.05861c-8.60987,2.21649-16.74802,5.57823-24.25309,9.92354-5.59846,3.24052-10.83984,7.01987-15.64997,11.27094-1.92685,1.69099-3.77951,3.45599-5.55126,5.30207-1.05101,1.07782-2.0683,2.17603-3.05187,3.30105-4.25107,4.81012-8.03042,10.05151-11.27094,15.64997-.28964,.50527-.57945,1.01729-.86235,1.52931h-.00674c-3.92096,7.07382-6.98632,14.70012-9.05445,22.72379-.01349,.06069-.03372,.12122-.0472,.18865-1.96714,7.69357-3.01141,15.7577-3.01141,24.06444h24.25309c0-8.50214,1.46187-16.66726,4.14317-24.25309h44.36302v24.25309h24.25309V0c-8.37401,0-16.50558,1.06449-24.25309,3.05861Zm0,45.44758h-29.97952c1.79872-2.01435,3.71208-3.92771,5.72642-5.72642,6.19798-5.55126,13.35947-10.05151,21.20123-13.22459,1.0038-.41103,2.02109-.79508,3.05187-1.1589v20.10992Z"/><path class="cls-1" d="M565.92592,72.94794c-.01382-.06744-.03388-.12796-.04737-.18865-2.06813-8.02367-5.13365-15.64997-9.05445-22.72379h-.00691c-.2829-.51202-.57238-1.02403-.86219-1.52931-3.24052-5.59846-7.01987-10.83984-11.27094-15.64997-.98357-1.1251-2.0007-2.22323-3.05203-3.30113-1.77174-1.84592-3.62441-3.61101-5.55109-5.30199-4.81029-4.25107-10.05151-8.03042-15.64997-11.27094-7.50508-4.34531-15.64306-7.70705-24.25309-9.92354-7.74752-1.99412-15.87892-3.05861-24.25309-3.05861V97.01238h97.01238c0-8.30674-1.0441-16.37087-3.01124-24.06444Zm-69.74804-.18865V28.39635c1.03094,.36374,2.04807,.74779,3.05203,1.15874,7.8416,3.17317,15.00292,7.67342,21.20106,13.22468,2.01451,1.79872,3.92771,3.71208,5.72642,5.72642,3.61783,4.04218,6.79092,8.49531,9.43834,13.27854,1.9405,3.48979,3.59777,7.16149,4.94516,10.97455h-44.36302Z"/><path class="cls-1" d="M675.06484,194.21341c-.01382-.06744-.03388-.12796-.04737-.18865-2.06813-8.02367-5.13365-15.64997-9.05445-22.72379h-.00691c-.2829-.51202-.57238-1.02403-.86219-1.52931-3.24052-5.59846-7.01987-10.83984-11.27094-15.64997-.98357-1.1251-2.0007-2.22323-3.05203-3.30113-1.77174-1.84592-3.62441-3.61101-5.55109-5.30199-4.81029-4.25107-10.05151-8.03042-15.64997-11.27094-7.50508-4.34531-15.64306-7.70705-24.25309-9.92354-7.74752-1.99412-15.87892-3.05861-24.25309-3.05861v97.01238h97.01238c0-8.30674-1.0441-16.37087-3.01124-24.06444Zm-69.74804-.18865v-44.36293c1.03094,.36374,2.04807,.74779,3.05203,1.15874,7.8416,3.17317,15.00292,7.67342,21.20106,13.22468,2.01451,1.79872,3.92771,3.71208,5.72642,5.72642,3.61783,4.04218,6.79092,8.49531,9.43834,13.27854,1.9405,3.48979,3.59777,7.16149,4.94516,10.97455h-44.36302Z"/><path class="cls-1" d="M365.8175,0V97.01238h-24.25309V28.39626c-1.03078,.36382-2.04807,.74788-3.05187,1.1589-7.84176,3.17309-15.00325,7.67334-21.20123,13.22459-2.01435,1.79872-3.92771,3.71208-5.72642,5.72642-3.61783,4.04218-6.79092,8.49523-9.4385,13.27854-1.94033,3.48987-3.5976,7.16149-4.945,10.97455-2.6813,7.58584-4.14317,15.75096-4.14317,24.25309h-24.25309c0-8.30674,1.04426-16.37087,3.01141-24.06444,.01349-.06744,.03372-.12796,.0472-.18865,2.06813-8.02367,5.13349-15.64997,9.05445-22.72379h.00674c.2829-.51202,.57271-1.02403,.86235-1.52931,3.24052-5.59846,7.01987-10.83984,11.27094-15.64997,.98357-1.12502,2.00086-2.22323,3.05187-3.30105,1.77174-1.84609,3.62441-3.61109,5.55126-5.30207,4.81012-4.25107,10.05151-8.03042,15.64997-11.27094,7.50508-4.34531,15.64323-7.70705,24.25309-9.92354,7.74752-1.99412,15.87909-3.05861,24.25309-3.05861Z"/><path class="cls-1" d="M191.03358,171.30096h-.00691c-.2829-.51202-.57238-1.02403-.86219-1.52931-3.24052-5.59846-7.01987-10.83984-11.27094-15.64997-.98357-1.1251-2.0007-2.22323-3.05203-3.30113-1.77174-1.84592-3.62441-3.61101-5.55109-5.30199-4.81029-4.25107-10.05151-8.03042-15.64997-11.27094-7.50508-4.34531-15.64306-7.70705-24.25309-9.92354-7.74752-1.99412-15.87892-3.05861-24.25309-3.05861v97.01238h24.25309v-24.25309h69.70067c-2.06813-8.02367-5.13365-15.64997-9.05445-22.72379Zm-60.64622-1.52931v-20.10984c1.03094,.36374,2.04807,.74779,3.05203,1.15874,7.8416,3.17317,15.00292,7.67342,21.20106,13.22468,2.01451,1.79872,3.92771,3.71208,5.72642,5.72642h-29.97952Z"/><path class="cls-1" d="M147.53965,3.05861c-8.60987,2.21649-16.74802,5.57823-24.25309,9.92354-5.59846,3.24052-10.83984,7.01987-15.64997,11.27094-1.92685,1.69099-3.77951,3.45599-5.55126,5.30207-1.05101,1.07782-2.0683,2.17603-3.05187,3.30105-4.25107,4.81012-8.03042,10.05151-11.27094,15.64997-.28964,.50527-.57945,1.01729-.86235,1.52931h-.00674c-.33685,.61301-.6737,1.22617-.99706,1.85267-.00132,.00247-.00263,.0051-.00395,.00757-.32731-.62238-.65264-1.24608-.99311-1.86023h-.00691c-.2829-.51202-.57238-1.02403-.86219-1.52931-3.24052-5.59846-7.01987-10.83984-11.27094-15.64997-.98357-1.12502-2.0007-2.22323-3.05203-3.30105-1.77174-1.84609-3.62441-3.61109-5.55109-5.30207-4.81029-4.25107-10.05151-8.03042-15.64997-11.27094-7.50508-4.34531-15.64306-7.70705-24.25309-9.92354C16.50558,1.06449,8.37417,0,0,0V97.01238H24.25309V28.39626c1.03094,.36382,2.04807,.74788,3.05203,1.1589,7.8416,3.17309,15.00292,7.67334,21.20106,13.22459,2.01451,1.79872,3.92771,3.71208,5.72642,5.72642,3.61783,4.04218,6.79092,8.49523,9.43834,13.27854,1.9405,3.48987,3.59777,7.16132,4.94516,10.97455,2.6813,7.58584,4.14317,15.75096,4.14317,24.25309h26.27419c0-8.50214,1.46187-16.66726,4.14317-24.25309,1.34739-3.81307,3.00466-7.48468,4.945-10.97455,2.64758-4.78331,5.82067-9.23636,9.4385-13.27854,1.79872-2.01435,3.71208-3.92771,5.72642-5.72642,6.19798-5.55126,13.35947-10.05151,21.20123-13.22459,1.0038-.41103,2.02109-.79508,3.05187-1.1589V97.01238h24.25309V0c-8.37401,0-16.50558,1.06449-24.25309,3.05861Z"/><path class="cls-1" d="M450.70333,124.32408c-8.60987,2.21649-16.74802,5.57823-24.25309,9.92354-5.59846,3.24052-10.83984,7.01987-15.64997,11.27094-1.92685,1.69099-3.77951,3.45599-5.55126,5.30207-1.05101,1.07782-2.0683,2.17603-3.05187,3.30105-4.25107,4.81012-8.03042,10.05151-11.27094,15.64997-.28964,.50527-.57945,1.01729-.86235,1.52931h-.00674c-.34178,.61646-.66843,1.24262-.99706,1.86747-.32862-.62485-.65528-1.25101-.99706-1.86747h-.00691c-.2829-.51202-.57238-1.02403-.86219-1.52931-3.24052-5.59846-7.01987-10.83984-11.27094-15.64997-.98357-1.12502-2.0007-2.22323-3.05203-3.30105-1.77174-1.84609-3.62441-3.61109-5.55109-5.30207-4.81029-4.25107-10.05151-8.03042-15.64997-11.27094-7.50508-4.34531-15.64306-7.70705-24.25309-9.92354-7.74752-1.99412-15.87892-3.05861-24.25309-3.05861v97.01238h24.25309v-68.61611c1.03094,.36382,2.04807,.74788,3.05203,1.1589,7.8416,3.17309,15.00292,7.67334,21.20106,13.22459,2.01451,1.79872,3.92771,3.71208,5.72642,5.72642,3.61783,4.04218,6.79092,8.49523,9.43834,13.27854,1.9405,3.48987,3.59777,7.16132,4.94516,10.97455,2.6813,7.58584,4.14317,15.75096,4.14317,24.25309h26.27419c0-8.50214,1.46187-16.66726,4.14317-24.25309,1.34739-3.81307,3.00466-7.48468,4.945-10.97455,2.64758-4.78331,5.82067-9.23636,9.4385-13.27854,1.79872-2.01435,3.71208-3.92771,5.72642-5.72642,6.19798-5.55126,13.35947-10.05151,21.20123-13.22459,1.0038-.41103,2.02109-.79508,3.05187-1.1589v68.61611h24.25309V121.26547c-8.37401,0-16.50558,1.06449-24.25309,3.05861Z"/><path class="cls-1" d="M0,218.27785C0,209.97115,1.0441,201.90702,3.01124,194.21337c.01382-.06735,.03388-.128,.04737-.18861,2.06813-8.02375,5.13365-15.65001,9.05445-22.72383h.00691c.2829-.51198,.57238-1.02399,.86219-1.52926,3.24052-5.59842,7.01987-10.8398,11.27094-15.65001,.98357-1.12506,2.0007-2.22319,3.05203-3.30109,1.77174-1.84592,3.62441-3.61101,5.55109-5.30199,4.81029-4.25103,10.05151-8.0305,15.64997-11.27098,7.50508-4.34531,15.64306-7.7071,24.25309-9.92354,7.74752-1.99416,15.87892-3.05857,24.25309-3.05857v24.25309c-8.50214,0-16.66742,1.46191-24.25309,4.14321-1.03094,.36382-2.04807,.74783-3.05203,1.15878-7.8416,3.17309-15.00292,7.67342-21.20106,13.22468-2.01451,1.79876-3.92771,3.71208-5.72642,5.72642-3.61783,4.04218-6.79092,8.49531-9.43834,13.27854-1.9405,3.48979-3.59777,7.1614-4.94516,10.97455-2.6813,7.58584-4.14317,15.75104-4.14317,24.25309H0"/></svg>