<?xml version="1.0" encoding="UTF-8"?><svg id="_Слой_1" xmlns="http://www.w3.org/2000/svg" viewBox="0 0 787.06383 208.34043"><defs><style>.cls-1{fill:#1e1e1c;}</style></defs><path class="cls-1" d="M127.31915,162.04255v46.29787s23.14894,0,23.14894,0v-19.19439c8.62936,3.04794,16.46781,7.74834,23.14894,13.72867,1.9228,1.71683,3.74889,3.54292,5.46572,5.46572h28.44103c-3.09299-5.34358-6.70028-10.3465-10.75781-14.93748-2.55923-2.91308-5.29868-5.65222-8.21145-8.21145h28.46677c-2.11558-8.21805-5.32412-15.9857-9.47176-23.14894-3.09299-5.34358-6.70028-10.3465-10.75781-14.93748-2.55923-2.91308-5.29868-5.65222-8.21145-8.21145-4.59129-4.05753-9.5939-7.66482-14.93748-10.75781-7.1634-4.14764-14.93089-7.35618-23.14894-9.47176-7.3948-1.90333-15.15601-2.91936-23.14894-2.91936v46.29787c.16288,0,.32418,.00628,.48667,.00801-.17127-.00094-.34098-.00801-.51241-.00801Zm51.78934,0h-28.61466v-19.19439c8.62936,3.04794,16.46781,7.74834,23.14894,13.72867,1.9228,1.71683,3.74889,3.54292,5.46572,5.46572Z"/><path class="cls-1" d="M231.48936,2.91936c-8.21789,2.11558-15.98562,5.32427-23.14894,9.47176-5.34354,3.09299-10.34631,6.70028-14.93748,10.75781-1.83908,1.614-3.60741,3.29865-5.29853,5.06069-1.00316,1.02875-1.97409,2.07696-2.91293,3.15076-4.05749,4.59114-7.66486,9.5939-10.75781,14.93748-.2765,.48227-.55303,.97098-.82309,1.45968h-.00644c-3.74242,6.75177-6.66818,14.03087-8.64227,21.68925-.01283,.05793-.03214,.1157-.04502,.18007-1.87762,7.34331-2.87431,15.04031-2.87431,22.96887h23.14894c0-8.11506,1.39536-15.90846,3.95463-23.14894h42.34325v23.14894h23.14894V0c-7.99281,0-15.75414,1.01603-23.14894,2.91936Zm0,43.37851h-28.61466c1.71687-1.92264,3.54308-3.74889,5.46572-5.46572,5.91585-5.29853,12.75122-9.5939,20.23601-12.62253,.95814-.39231,1.92908-.75888,2.91293-1.10614v19.19439Z"/><path class="cls-1" d="M283.57447,118.66404c-8.21789,2.11558-15.98562,5.32427-23.14894,9.47176-5.34354,3.09299-10.34631,6.70028-14.93748,10.75781-1.83908,1.614-3.60741,3.29865-5.29853,5.06069-1.00316,1.02875-1.97409,2.07696-2.91293,3.15076-4.05749,4.59114-7.66486,9.5939-10.75781,14.93748-.2765,.48227-.55303,.97098-.82309,1.45968h-.00644c-3.74242,6.75177-6.66818,14.03087-8.64227,21.68925-.01283,.05793-.03214,.1157-.04502,.18007-1.87762,7.34331-2.87431,15.04031-2.87431,22.96887h23.14894c0-8.11506,1.39536-15.90846,3.95463-23.14894h42.34325v23.14894h23.14894V115.74468c-7.99281,0-15.75414,1.01603-23.14894,2.91936Zm0,43.37851h-28.61466c1.71687-1.92264,3.54308-3.74889,5.46572-5.46572,5.91585-5.29853,12.75122-9.5939,20.23601-12.62253,.95814-.39231,1.92908-.75888,2.91293-1.10614v19.19439Z"/><path class="cls-1" d="M546.89362,118.66404c-8.21789,2.11558-15.98562,5.32427-23.14894,9.47176-5.34354,3.09299-10.34631,6.70028-14.93748,10.75781-1.83908,1.614-3.60741,3.29865-5.29853,5.06069-1.00316,1.02875-1.97409,2.07696-2.91293,3.15076-4.05749,4.59114-7.66486,9.5939-10.75781,14.93748-.2765,.48227-.55303,.97098-.82309,1.45968h-.00644c-3.74242,6.75177-6.66818,14.03087-8.64227,21.68925-.01283,.05793-.03214,.1157-.04502,.18007-1.87762,7.34331-2.87431,15.04031-2.87431,22.96887h23.14894c0-8.11506,1.39536-15.90846,3.95463-23.14894h42.34325v23.14894h23.14894V115.74468c-7.99281,0-15.75414,1.01603-23.14894,2.91936Zm0,43.37851h-28.61466c1.71687-1.92264,3.54308-3.74889,5.46572-5.46572,5.91585-5.29853,12.75122-9.5939,20.23601-12.62253,.95814-.39231,1.92908-.75888,2.91293-1.10614v19.19439Z"/><path class="cls-1" d="M740.76596,118.66404c-8.21789,2.11558-15.98562,5.32427-23.14894,9.47176-5.34354,3.09299-10.34631,6.70028-14.93748,10.75781-1.83908,1.614-3.60741,3.29865-5.29853,5.06069-1.00316,1.02875-1.97409,2.07696-2.91293,3.15076-4.05749,4.59114-7.66486,9.5939-10.75781,14.93748-.2765,.48227-.55303,.97098-.82309,1.45968h-.00644c-3.74242,6.75177-6.66818,14.03087-8.64227,21.68925-.01283,.05793-.03214,.1157-.04502,.18007-1.87762,7.34331-2.87431,15.04031-2.87431,22.96887h23.14894c0-8.11506,1.39536-15.90846,3.95463-23.14894h42.34325v23.14894h23.14894V115.74468c-7.99281,0-15.75414,1.01603-23.14894,2.91936Zm0,43.37851h-28.61466c1.71687-1.92264,3.54308-3.74889,5.46572-5.46572,5.91585-5.29853,12.75122-9.5939,20.23601-12.62253,.95814-.39231,1.92908-.75888,2.91293-1.10614v19.19439Z"/><path class="cls-1" d="M402.21277,2.91936c-8.21789,2.11558-15.98562,5.32427-23.14894,9.47176-5.34354,3.09299-10.34631,6.70028-14.93748,10.75781-1.83908,1.614-3.60741,3.29865-5.29853,5.06069-1.00316,1.02875-1.97409,2.07696-2.91293,3.15076-4.05749,4.59114-7.66486,9.5939-10.75781,14.93748-.2765,.48227-.55303,.97098-.82309,1.45968h-.00644c-3.74242,6.75177-6.66818,14.03087-8.64227,21.68925-.01283,.05793-.03214,.1157-.04502,.18007-1.87762,7.34331-2.87431,15.04031-2.87431,22.96887h23.14894c0-8.11506,1.39536-15.90846,3.95463-23.14894h42.34325v23.14894h23.14894V0c-7.99281,0-15.75414,1.01603-23.14894,2.91936Zm0,43.37851h-28.61466c1.71687-1.92264,3.54308-3.74889,5.46572-5.46572,5.91585-5.29853,12.75122-9.5939,20.23601-12.62253,.95814-.39231,1.92908-.75888,2.91293-1.10614v19.19439Z"/><path class="cls-1" d="M596.08511,2.91936c-8.21789,2.11558-15.98562,5.32427-23.14894,9.47176-5.34354,3.09299-10.34631,6.70028-14.93748,10.75781-1.83908,1.614-3.60741,3.29865-5.29853,5.06069-1.00316,1.02875-1.97409,2.07696-2.91293,3.15076-4.05749,4.59114-7.66486,9.5939-10.75781,14.93748-.2765,.48227-.55303,.97098-.82309,1.45968h-.00644c-3.74242,6.75177-6.66818,14.03087-8.64227,21.68925-.01283,.05793-.03214,.1157-.04502,.18007-1.87762,7.34331-2.87431,15.04031-2.87431,22.96887h23.14894c0-8.11506,1.39536-15.90846,3.95463-23.14894h42.34325v23.14894h23.14894V0c-7.99281,0-15.75414,1.01603-23.14894,2.91936Zm0,43.37851h-28.61466c1.71687-1.92264,3.54308-3.74889,5.46572-5.46572,5.91585-5.29853,12.75122-9.5939,20.23601-12.62253,.95814-.39231,1.92908-.75888,2.91293-1.10614v19.19439Z"/><path class="cls-1" d="M763.91489,2.91936c-8.21789,2.11558-15.98562,5.32427-23.14894,9.47176-5.34354,3.09299-10.34631,6.70028-14.93748,10.75781-1.83908,1.614-3.60741,3.29865-5.29853,5.06069-1.00316,1.02875-1.97409,2.07696-2.91293,3.15076-4.05749,4.59114-7.66486,9.5939-10.75781,14.93748-.2765,.48227-.55303,.97098-.82309,1.45968h-.00644c-3.74242,6.75177-6.66818,14.03087-8.64227,21.68925-.01283,.05793-.03214,.1157-.04502,.18007-1.87762,7.34331-2.87431,15.04031-2.87431,22.96887h23.14894c0-8.11506,1.39536-15.90846,3.95463-23.14894h42.34325v23.14894h23.14894V0c-7.99281,0-15.75414,1.01603-23.14894,2.91936Zm0,43.37851h-28.61466c1.71687-1.92264,3.54308-3.74889,5.46572-5.46572,5.91585-5.29853,12.75122-9.5939,20.23601-12.62253,.95814-.39231,1.92908-.75888,2.91293-1.10614v19.19439Z"/><path class="cls-1" d="M523.76415,69.62687c-.01319-.06437-.03234-.12214-.04521-.18007-1.97398-7.65838-4.89993-14.93748-8.64223-21.68925h-.00659c-.27002-.48871-.54632-.97741-.82294-1.45968-3.09299-5.34358-6.70028-10.34634-10.75781-14.93748-.93879-1.07388-1.90961-2.12202-2.91308-3.15084-1.69108-1.76188-3.4594-3.44661-5.29837-5.06061-4.59129-4.05753-9.5939-7.66482-14.93748-10.75781-7.1634-4.14749-14.93089-7.35618-23.14894-9.47176-7.3948-1.90333-15.15601-2.91936-23.14894-2.91936V92.59574h92.59574c0-7.92856-.99656-15.62556-2.87415-22.96887Zm-66.57266-.18007V27.10356c.98401,.34718,1.95482,.71375,2.91308,1.10599,7.4846,3.02871,14.31989,7.32408,20.23585,12.6226,1.9228,1.71683,3.74889,3.54308,5.46572,5.46572,3.45313,3.85816,6.48175,8.10855,9.00864,12.67402,1.85215,3.33091,3.43397,6.83545,4.72002,10.47492h-42.34333Z"/><path class="cls-1" d="M668.445,185.37156c-.01319-.06437-.03234-.12214-.04521-.18007-1.97398-7.65838-4.89993-14.93748-8.64223-21.68925h-.00659c-.27002-.48871-.54632-.97741-.82294-1.45968-3.09299-5.34358-6.70028-10.34634-10.75781-14.93748-.93879-1.07388-1.90961-2.12202-2.91308-3.15084-1.69108-1.76188-3.4594-3.44661-5.29837-5.06061-4.59129-4.05753-9.5939-7.66482-14.93748-10.75781-7.1634-4.14749-14.93089-7.35618-23.14894-9.47176-7.3948-1.90333-15.15601-2.91936-23.14894-2.91936v92.59574h92.59574c0-7.92856-.99656-15.62556-2.87415-22.96887Zm-66.57266-.18007v-42.34325c.98401,.34718,1.95482,.71375,2.91308,1.10599,7.4846,3.02871,14.31989,7.32408,20.23585,12.6226,1.9228,1.71683,3.74889,3.54308,5.46572,5.46572,3.45312,3.85816,6.48175,8.10855,9.00864,12.67402,1.85215,3.33091,3.43397,6.83545,4.72002,10.47492h-42.34333Z"/><polygon class="cls-1" points="95.48936 115.74468 95.48936 162.04255 49.19149 162.04255 49.19149 115.74468 26.04255 115.74468 26.04255 162.04255 26.04255 185.19149 26.04255 208.34043 49.19149 208.34043 49.19149 185.19149 95.48936 185.19149 95.48936 208.34043 118.6383 208.34043 118.6383 185.19149 118.6383 162.04255 118.6383 115.74468 95.48936 115.74468"/><path class="cls-1" d="M340.14788,35.68794c-.18007-.32151-.36005-.64303-.54012-.96454-1.81974-3.14449-3.9996-6.05082-6.48167-8.67441-3.33091,1.852-6.83545,3.43382-10.47492,4.71987-3.72185,1.31557-7.59178,2.31747-11.57447,2.98655V0h-23.14894V35.44869c-3.87786,.48384-7.68162,1.20614-11.3944,2.15546-.06437,.01287-.12214,.03218-.18007,.04506-7.65838,1.97398-14.93748,4.89978-21.68925,8.64223v.00644c.9581,3.74246,2.37916,7.30484,4.19254,10.61637,.18007,.32151,.36005,.64303,.54012,.96454,1.81974,3.14449,3.9996,6.05082,6.48167,8.67441,3.33091-1.852,6.83545-3.43382,10.47492-4.71987,3.72185-1.31557,7.59178-2.31747,11.57447-2.98655v33.74897h23.14894V57.15365c3.87786-.48415,7.68162-1.2063,11.3944-2.15561,.06437-.01287,.12214-.03218,.18007-.04506,7.65838-1.97398,14.93748-4.89978,21.68925-8.64223v-.00644c-.9581-3.74246-2.37916-7.30484-4.19254-10.61637Z"/><path class="cls-1" d="M138.89362,2.91936c-8.21789,2.11558-15.98554,5.32427-23.14894,9.47176-5.34358,3.09299-10.34634,6.70028-14.93748,10.75781-1.83912,1.614-3.60744,3.29865-5.29853,5.06069-1.00316,1.02875-1.97413,2.07696-2.91293,3.15076-4.05753,4.59114-7.66482,9.5939-10.75781,14.93748-.2743,.4785-.54864,.96344-.81673,1.44838-.26802-.48494-.54208-.96988-.81658-1.44838-3.09299-5.34358-6.70028-10.34634-10.75781-14.93748-.93879-1.0738-1.90961-2.12202-2.91308-3.15076-1.69108-1.76204-3.4594-3.44669-5.29837-5.06069-4.59129-4.05753-9.5939-7.66482-14.93748-10.75781-7.1634-4.14749-14.93089-7.35618-23.14894-9.47176C15.75414,1.01603,7.99293,0,0,0V92.59574H23.14894V27.10348c.98401,.34726,1.95482,.71383,2.91308,1.10614,7.4846,3.02863,14.31989,7.324,20.23585,12.62253,1.9228,1.71683,3.74889,3.54308,5.46572,5.46572,3.45312,3.85816,6.48175,8.10847,9.00864,12.67402,1.85215,3.33099,3.43397,6.83529,4.72002,10.47492,2.55923,7.24048,3.95455,15.03387,3.95455,23.14894h23.14894c0-8.11506,1.39532-15.90846,3.95455-23.14894,1.28605-3.63947,2.86787-7.14393,4.71987-10.47492,2.52705-4.56555,5.55568-8.81586,9.0088-12.67402,1.71683-1.92264,3.54308-3.74889,5.46572-5.46572,5.91581-5.29853,12.75126-9.5939,20.23601-12.62253,.9581-.39231,1.92908-.75888,2.91293-1.10614V92.59574h23.14894V0c-7.99277,0-15.75414,1.01603-23.14894,2.91936Z"/><path class="cls-1" d="M454.29787,118.66404c-8.21789,2.11558-15.98554,5.32427-23.14894,9.47176-5.34358,3.09299-10.34634,6.70028-14.93748,10.75781-1.83912,1.614-3.60744,3.29865-5.29853,5.06069-1.00316,1.02875-1.97413,2.07696-2.91293,3.15076-4.05753,4.59114-7.66482,9.5939-10.75781,14.93748-.2743,.4785-.54864,.96344-.81673,1.44838-.26802-.48494-.54208-.96988-.81658-1.44838-3.09299-5.34358-6.70028-10.34634-10.75781-14.93748-.93879-1.0738-1.90961-2.12202-2.91308-3.15076-1.69108-1.76204-3.4594-3.44669-5.29837-5.06069-4.59129-4.05753-9.5939-7.66482-14.93748-10.75781-7.1634-4.14749-14.93089-7.35618-23.14894-9.47176-7.3948-1.90333-15.15601-2.91936-23.14894-2.91936v92.59574h23.14894v-65.49226c.98401,.34726,1.95482,.71383,2.91308,1.10614,7.4846,3.02863,14.31989,7.324,20.23585,12.62253,1.9228,1.71683,3.74889,3.54308,5.46572,5.46572,3.45312,3.85816,6.48175,8.10847,9.00864,12.67402,1.85215,3.33099,3.43397,6.83529,4.72002,10.47492,2.55923,7.24048,3.95455,15.03387,3.95455,23.14894h23.14894c0-8.11506,1.39532-15.90846,3.95455-23.14894,1.28605-3.63947,2.86787-7.14393,4.71987-10.47492,2.52705-4.56555,5.55568-8.81586,9.0088-12.67402,1.71683-1.92264,3.54308-3.74889,5.46572-5.46572,5.91581-5.29853,12.75126-9.5939,20.23601-12.62253,.9581-.39231,1.92908-.75888,2.91293-1.10614v65.49226h23.14894V115.74468c-7.99277,0-15.75414,1.01603-23.14894,2.91936Z"/><path class="cls-1" d="M715.68794,0h-46.29787s0,23.14894,0,23.14894h19.19439c-.34726,.98385-.71383,1.95482-1.10614,2.91293-.52717,1.3118-1.09955,2.60429-1.71039,3.87103-2.855,5.98017-6.53952,11.48436-10.91213,16.36498-.04506,.05149-.09639,.10283-.14145,.15432-1.67193,1.86487-3.45313,3.63947-5.32427,5.3114-3.85816,3.45312-8.10847,6.48175-12.67402,9.0088-1.20897,.66877-2.43709,1.30536-3.69096,1.90333-2.19926,1.05449-4.46272,1.99988-6.78396,2.81654-5.4271,1.9162-11.15656,3.18295-17.10455,3.6974-1.99329,.16704-4.00604,.25715-6.04438,.25715v23.14894c7.92856,0,15.62556-.99672,22.96887-2.87431,.06437-.01287,.12214-.03218,.18007-.04506,1.38244-.36013,2.75861-.74585,4.1153-1.16391,6.1538-1.8969,12.04386-4.41107,17.57395-7.47832v-.00644c.48871-.27002,.97741-.54663,1.45968-.82309,4.76477-2.75861,9.25323-5.92224,13.42631-9.45889,.50802-.4245,1.00959-.85527,1.51117-1.29893,1.0738-.93879,2.12202-1.90977,3.15076-2.91293,1.76204-1.69108,3.44669-3.4594,5.06069-5.29853,2.71355-3.06725,5.22773-6.32728,7.5105-9.74178,1.14461-1.69124,2.225-3.42738,3.24731-5.1957,3.44669-5.95443,6.25019-12.33319,8.30785-19.03991,.4245-1.35685,.81022-2.72658,1.16391-4.10902C714.67191,15.75414,715.68794,7.99277,715.68794,0Z"/></svg>