<svg height="377.21235" preserveAspectRatio="xMidYMid meet" viewBox="0 0 664 945" width="265.102667" xmlns="http://www.w3.org/2000/svg"><g fill="#d1120a" transform="matrix(.1 0 0 -.1 0 945)"><path d="m3190 9444c-380-30-580-64-845-145-937-288-1718-1004-2088-1914-111-273-177-522-225-845-21-146-24-664-4-810 81-591 257-1054 577-1520 162-237 450-544 645-690 30-22 56-44 59-48 13-17 214-154 318-215 212-126 390-209 619-287 362-125 692-179 1086-180 584 0 1147 154 1668 457 95 55 346 231 430 301 173 145 455 447 565 606 22 31 54 76 71 99 85 117 262 447 324 607 168 435 240 807 240 1250 0 545-114 1029-356 1511-86 173-225 396-320 514-82 102-100 125-148 180-96 113-149 165-159 158-5-3-7-1-4 5 8 12-209 207-338 302-425 316-915 530-1408 615-198 34-569 60-707 49zm283-1915c55-11 138-36 186-55 47-19 94-38 104-41 30-9 19-19-37-32-99-22-185-91-231-186-21-42-32-55-44-50-109 43-261 44-390 2l-75-23-56 70c-92 116-154 161-268 195-29 9-53 20-53 25 0 20 275 91 431 111 132 17 302 11 433-16zm757-257c0-4-45-41-99-81-96-70-179-150-268-255l-41-49-16 38c-25 60-58 96-125 140-33 22-61 44-61 48 0 21 262 127 380 153 62 14 230 18 230 6zm-1635-77c140-33 306-115 267-131-61-26-206-171-224-225-2-5-53 39-113 99-94 93-123 115-195 150-47 22-116 48-155 58-38 9-76 18-82 20-34 9-5 22 75 33 48 7 92 15 97 17 25 9 267-6 330-21zm1851-76c-66-140-217-621-352-1124-9-33-22-80-29-105s-25-91-40-148c-15-56-31-105-36-108-5-2-57 35-116 83-60 49-173 140-253 203-152 120-175 139-169 144 2 1 20 12 39 24 46 27 156 140 218 222 26 36 119 171 204 300 187 281 285 401 413 505 52 43 149 97 153 86 2-5-13-42-32-82zm256-61c-6-186 14-317 147-943 150-711 196-1100 171-1458-27-396-111-666-291-934-55-82-211-249-240-258-21-7-26-3-153 140-207 232-285 309-426 424-52 42-176 137-275 210-99 74-184 138-189 142-28 25 66 140 313 388 226 225 267 277 365 463 106 200 151 385 186 763 41 447 85 639 200 875 38 79 179 300 190 300 3 0 3-51 2-112zm-2937-15c98-112 191-244 247-353 100-197 133-330 178-730 36-310 73-518 112-627 89-248 298-564 569-863 155-171 178-190 814-694 104-83 196-155 205-162 8-7 58-47 110-89s127-106 167-141c40-36 75-65 78-64 7 0 85-86 85-95 0-36-206-217-321-281-169-94-317-133-530-141-202-7-333 11-534 75-433 139-895 510-1155 927-68 108-180 325-180 347 0 8-4 18-9 24-12 13-58 156-77 239-22 98-30 446-15 627 12 133 59 502 81 628 33 190 78 489 112 745 8 59 13 196 13 335 0 194-3 246-18 296-17 61-21 84-13 84 2 0 38-39 81-87zm1649 2c80-17 177-60 223-99 37-31 83-118 83-158 0-19-21-55-63-110-34-46-80-109-102-141-86-128-185-206-261-207-47 0-124 27-173 60-25 17-116 98-202 180-178 170-171 154-113 260 96 176 357 268 608 215zm-1189-121c189-97 346-251 566-555 217-300 290-391 429-529 108-109 196-181 325-268 80-54 119-76 285-164 44-23 45-25 43-72-1-28-12-69-28-103-30-60-154-232-219-302-157-170-312-294-344-275-9 6-50 51-90 100-183 223-301 445-467 874-8 19-46 123-85 230-159 436-307 761-459 1008-28 46-51 85-51 88 0 11 31 1 95-32z"/><path d="m2140 2814c-308-32-520-104-849-288-187-105-496-334-711-527-41-37-95-85-119-106-24-22-41-44-38-50 12-20 563-338 597-345 8-2 17-6 20-9 9-12 201-108 345-173 603-273 1026-313 1390-129 103 52 152 84 250 164 78 63 261 250 315 322 19 25 38 47 41 47s11-192 17-427c13-451 39-1115 48-1220l6-63h97 97l-3 113c-2 61-8 227-13 367-6 140-14 422-20 625-5 204-12 414-16 468-3 53-2 97 2 97 5 0 45-33 88-72 344-316 644-461 1005-484 344-23 756 119 1171 401 135 92 339 244 425 317 11 9 63 52 115 95s96 83 97 88c1 6-22 35-51 65-269 280-599 495-931 608-346 117-728 125-1060 21-277-86-609-305-816-538l-56-63-7 158c-3 88-9 226-12 307l-7 149-96-7c-53-4-98-9-99-10-2-2 0-129 6-282 5-153 7-280 5-283-3-3-10 2-16 11-89 121-294 323-418 411-160 114-338 191-512 222-88 16-230 25-287 20z"/></g></svg>